G04 EAGLE Gerber RS-274X export*
G75*
%MOMM*%
%FSLAX34Y34*%
%LPD*%
%INMechanicalNonPlated*%
%IPPOS*%
%AMOC8*
5,1,8,0,0,1.08239X$1,22.5*%
G01*
%ADD10C,0.000000*%
%ADD11C,0.254000*%


D10*
X0Y455000D02*
X90000Y455000D01*
X90725Y455009D01*
X91449Y455035D01*
X92173Y455079D01*
X92895Y455140D01*
X93616Y455219D01*
X94335Y455315D01*
X95051Y455428D01*
X95764Y455559D01*
X96474Y455707D01*
X97179Y455872D01*
X97881Y456054D01*
X98578Y456253D01*
X99271Y456468D01*
X99957Y456701D01*
X100638Y456950D01*
X101313Y457215D01*
X101981Y457496D01*
X102642Y457794D01*
X103296Y458107D01*
X103942Y458436D01*
X104580Y458781D01*
X105209Y459141D01*
X105829Y459516D01*
X106440Y459906D01*
X107042Y460310D01*
X107634Y460729D01*
X108215Y461163D01*
X108786Y461610D01*
X109345Y462071D01*
X109894Y462545D01*
X110430Y463032D01*
X110955Y463532D01*
X111468Y464045D01*
X111968Y464570D01*
X112455Y465106D01*
X112929Y465655D01*
X113390Y466214D01*
X113837Y466785D01*
X114271Y467366D01*
X114690Y467958D01*
X115094Y468560D01*
X115484Y469171D01*
X115859Y469791D01*
X116219Y470420D01*
X116564Y471058D01*
X116893Y471704D01*
X117206Y472358D01*
X117504Y473019D01*
X117785Y473687D01*
X118050Y474362D01*
X118299Y475043D01*
X118532Y475729D01*
X118747Y476422D01*
X118946Y477119D01*
X119128Y477821D01*
X119293Y478526D01*
X119441Y479236D01*
X119572Y479949D01*
X119685Y480665D01*
X119781Y481384D01*
X119860Y482105D01*
X119921Y482827D01*
X119965Y483551D01*
X119991Y484275D01*
X120000Y485000D01*
X120000Y570000D01*
X154495Y570000D01*
X154584Y570002D01*
X154672Y570008D01*
X154760Y570018D01*
X154848Y570031D01*
X154935Y570049D01*
X155021Y570070D01*
X155106Y570096D01*
X155190Y570125D01*
X155272Y570157D01*
X155353Y570194D01*
X155433Y570233D01*
X155510Y570277D01*
X155585Y570323D01*
X155659Y570373D01*
X155730Y570427D01*
X155798Y570483D01*
X155864Y570542D01*
X155927Y570604D01*
X155988Y570669D01*
X156045Y570737D01*
X156100Y570807D01*
X170000Y589500D01*
X260000Y589500D01*
X273900Y570807D01*
X273955Y570737D01*
X274012Y570669D01*
X274073Y570604D01*
X274136Y570542D01*
X274202Y570483D01*
X274270Y570427D01*
X274341Y570373D01*
X274415Y570323D01*
X274490Y570277D01*
X274567Y570233D01*
X274647Y570194D01*
X274728Y570157D01*
X274810Y570125D01*
X274894Y570096D01*
X274979Y570070D01*
X275065Y570049D01*
X275152Y570031D01*
X275240Y570018D01*
X275328Y570008D01*
X275416Y570002D01*
X275505Y570000D01*
X790000Y570000D01*
X790000Y485000D01*
X790009Y484275D01*
X790035Y483551D01*
X790079Y482827D01*
X790140Y482105D01*
X790219Y481384D01*
X790315Y480665D01*
X790428Y479949D01*
X790559Y479236D01*
X790707Y478526D01*
X790872Y477821D01*
X791054Y477119D01*
X791253Y476422D01*
X791468Y475729D01*
X791701Y475043D01*
X791950Y474362D01*
X792215Y473687D01*
X792496Y473019D01*
X792794Y472358D01*
X793107Y471704D01*
X793436Y471058D01*
X793781Y470420D01*
X794141Y469791D01*
X794516Y469171D01*
X794906Y468560D01*
X795310Y467958D01*
X795729Y467366D01*
X796163Y466785D01*
X796610Y466214D01*
X797071Y465655D01*
X797545Y465106D01*
X798032Y464570D01*
X798532Y464045D01*
X799045Y463532D01*
X799570Y463032D01*
X800106Y462545D01*
X800655Y462071D01*
X801214Y461610D01*
X801785Y461163D01*
X802366Y460729D01*
X802958Y460310D01*
X803560Y459906D01*
X804171Y459516D01*
X804791Y459141D01*
X805420Y458781D01*
X806058Y458436D01*
X806704Y458107D01*
X807358Y457794D01*
X808019Y457496D01*
X808687Y457215D01*
X809362Y456950D01*
X810043Y456701D01*
X810729Y456468D01*
X811422Y456253D01*
X812119Y456054D01*
X812821Y455872D01*
X813526Y455707D01*
X814236Y455559D01*
X814949Y455428D01*
X815665Y455315D01*
X816384Y455219D01*
X817105Y455140D01*
X817827Y455079D01*
X818551Y455035D01*
X819275Y455009D01*
X820000Y455000D01*
X910000Y455000D01*
X910000Y115000D01*
X820000Y115000D01*
X819275Y114991D01*
X818551Y114965D01*
X817827Y114921D01*
X817105Y114860D01*
X816384Y114781D01*
X815665Y114685D01*
X814949Y114572D01*
X814236Y114441D01*
X813526Y114293D01*
X812821Y114128D01*
X812119Y113946D01*
X811422Y113747D01*
X810729Y113532D01*
X810043Y113299D01*
X809362Y113050D01*
X808687Y112785D01*
X808019Y112504D01*
X807358Y112206D01*
X806704Y111893D01*
X806058Y111564D01*
X805420Y111219D01*
X804791Y110859D01*
X804171Y110484D01*
X803560Y110094D01*
X802958Y109690D01*
X802366Y109271D01*
X801785Y108837D01*
X801214Y108390D01*
X800655Y107929D01*
X800106Y107455D01*
X799570Y106968D01*
X799045Y106468D01*
X798532Y105955D01*
X798032Y105430D01*
X797545Y104894D01*
X797071Y104345D01*
X796610Y103786D01*
X796163Y103215D01*
X795729Y102634D01*
X795310Y102042D01*
X794906Y101440D01*
X794516Y100829D01*
X794141Y100209D01*
X793781Y99580D01*
X793436Y98942D01*
X793107Y98296D01*
X792794Y97642D01*
X792496Y96981D01*
X792215Y96313D01*
X791950Y95638D01*
X791701Y94957D01*
X791468Y94271D01*
X791253Y93578D01*
X791054Y92881D01*
X790872Y92179D01*
X790707Y91474D01*
X790559Y90764D01*
X790428Y90051D01*
X790315Y89335D01*
X790219Y88616D01*
X790140Y87895D01*
X790079Y87173D01*
X790035Y86449D01*
X790009Y85725D01*
X790000Y85000D01*
X790000Y0D01*
X120000Y0D01*
X120000Y85000D01*
X119991Y85725D01*
X119965Y86449D01*
X119921Y87173D01*
X119860Y87895D01*
X119781Y88616D01*
X119685Y89335D01*
X119572Y90051D01*
X119441Y90764D01*
X119293Y91474D01*
X119128Y92179D01*
X118946Y92881D01*
X118747Y93578D01*
X118532Y94271D01*
X118299Y94957D01*
X118050Y95638D01*
X117785Y96313D01*
X117504Y96981D01*
X117206Y97642D01*
X116893Y98296D01*
X116564Y98942D01*
X116219Y99580D01*
X115859Y100209D01*
X115484Y100829D01*
X115094Y101440D01*
X114690Y102042D01*
X114271Y102634D01*
X113837Y103215D01*
X113390Y103786D01*
X112929Y104345D01*
X112455Y104894D01*
X111968Y105430D01*
X111468Y105955D01*
X110955Y106468D01*
X110430Y106968D01*
X109894Y107455D01*
X109345Y107929D01*
X108786Y108390D01*
X108215Y108837D01*
X107634Y109271D01*
X107042Y109690D01*
X106440Y110094D01*
X105829Y110484D01*
X105209Y110859D01*
X104580Y111219D01*
X103942Y111564D01*
X103296Y111893D01*
X102642Y112206D01*
X101981Y112504D01*
X101313Y112785D01*
X100638Y113050D01*
X99957Y113299D01*
X99271Y113532D01*
X98578Y113747D01*
X97881Y113946D01*
X97179Y114128D01*
X96474Y114293D01*
X95764Y114441D01*
X95051Y114572D01*
X94335Y114685D01*
X93616Y114781D01*
X92895Y114860D01*
X92173Y114921D01*
X91449Y114965D01*
X90725Y114991D01*
X90000Y115000D01*
X0Y115000D01*
X0Y455000D01*
X130500Y430000D02*
X130504Y430356D01*
X130517Y430711D01*
X130539Y431067D01*
X130570Y431421D01*
X130609Y431775D01*
X130657Y432128D01*
X130713Y432479D01*
X130779Y432829D01*
X130852Y433177D01*
X130935Y433523D01*
X131025Y433867D01*
X131124Y434209D01*
X131232Y434548D01*
X131348Y434885D01*
X131472Y435218D01*
X131604Y435549D01*
X131744Y435876D01*
X131892Y436200D01*
X132048Y436519D01*
X132212Y436835D01*
X132384Y437147D01*
X132563Y437454D01*
X132750Y437757D01*
X132944Y438056D01*
X133145Y438349D01*
X133353Y438638D01*
X133569Y438921D01*
X133791Y439199D01*
X134020Y439471D01*
X134256Y439738D01*
X134498Y439998D01*
X134747Y440253D01*
X135002Y440502D01*
X135262Y440744D01*
X135529Y440980D01*
X135801Y441209D01*
X136079Y441431D01*
X136362Y441647D01*
X136651Y441855D01*
X136944Y442056D01*
X137243Y442250D01*
X137546Y442437D01*
X137853Y442616D01*
X138165Y442788D01*
X138481Y442952D01*
X138800Y443108D01*
X139124Y443256D01*
X139451Y443396D01*
X139782Y443528D01*
X140115Y443652D01*
X140452Y443768D01*
X140791Y443876D01*
X141133Y443975D01*
X141477Y444065D01*
X141823Y444148D01*
X142171Y444221D01*
X142521Y444287D01*
X142872Y444343D01*
X143225Y444391D01*
X143579Y444430D01*
X143933Y444461D01*
X144289Y444483D01*
X144644Y444496D01*
X145000Y444500D01*
X145356Y444496D01*
X145711Y444483D01*
X146067Y444461D01*
X146421Y444430D01*
X146775Y444391D01*
X147128Y444343D01*
X147479Y444287D01*
X147829Y444221D01*
X148177Y444148D01*
X148523Y444065D01*
X148867Y443975D01*
X149209Y443876D01*
X149548Y443768D01*
X149885Y443652D01*
X150218Y443528D01*
X150549Y443396D01*
X150876Y443256D01*
X151200Y443108D01*
X151519Y442952D01*
X151835Y442788D01*
X152147Y442616D01*
X152454Y442437D01*
X152757Y442250D01*
X153056Y442056D01*
X153349Y441855D01*
X153638Y441647D01*
X153921Y441431D01*
X154199Y441209D01*
X154471Y440980D01*
X154738Y440744D01*
X154998Y440502D01*
X155253Y440253D01*
X155502Y439998D01*
X155744Y439738D01*
X155980Y439471D01*
X156209Y439199D01*
X156431Y438921D01*
X156647Y438638D01*
X156855Y438349D01*
X157056Y438056D01*
X157250Y437757D01*
X157437Y437454D01*
X157616Y437147D01*
X157788Y436835D01*
X157952Y436519D01*
X158108Y436200D01*
X158256Y435876D01*
X158396Y435549D01*
X158528Y435218D01*
X158652Y434885D01*
X158768Y434548D01*
X158876Y434209D01*
X158975Y433867D01*
X159065Y433523D01*
X159148Y433177D01*
X159221Y432829D01*
X159287Y432479D01*
X159343Y432128D01*
X159391Y431775D01*
X159430Y431421D01*
X159461Y431067D01*
X159483Y430711D01*
X159496Y430356D01*
X159500Y430000D01*
X159496Y429644D01*
X159483Y429289D01*
X159461Y428933D01*
X159430Y428579D01*
X159391Y428225D01*
X159343Y427872D01*
X159287Y427521D01*
X159221Y427171D01*
X159148Y426823D01*
X159065Y426477D01*
X158975Y426133D01*
X158876Y425791D01*
X158768Y425452D01*
X158652Y425115D01*
X158528Y424782D01*
X158396Y424451D01*
X158256Y424124D01*
X158108Y423800D01*
X157952Y423481D01*
X157788Y423165D01*
X157616Y422853D01*
X157437Y422546D01*
X157250Y422243D01*
X157056Y421944D01*
X156855Y421651D01*
X156647Y421362D01*
X156431Y421079D01*
X156209Y420801D01*
X155980Y420529D01*
X155744Y420262D01*
X155502Y420002D01*
X155253Y419747D01*
X154998Y419498D01*
X154738Y419256D01*
X154471Y419020D01*
X154199Y418791D01*
X153921Y418569D01*
X153638Y418353D01*
X153349Y418145D01*
X153056Y417944D01*
X152757Y417750D01*
X152454Y417563D01*
X152147Y417384D01*
X151835Y417212D01*
X151519Y417048D01*
X151200Y416892D01*
X150876Y416744D01*
X150549Y416604D01*
X150218Y416472D01*
X149885Y416348D01*
X149548Y416232D01*
X149209Y416124D01*
X148867Y416025D01*
X148523Y415935D01*
X148177Y415852D01*
X147829Y415779D01*
X147479Y415713D01*
X147128Y415657D01*
X146775Y415609D01*
X146421Y415570D01*
X146067Y415539D01*
X145711Y415517D01*
X145356Y415504D01*
X145000Y415500D01*
X144644Y415504D01*
X144289Y415517D01*
X143933Y415539D01*
X143579Y415570D01*
X143225Y415609D01*
X142872Y415657D01*
X142521Y415713D01*
X142171Y415779D01*
X141823Y415852D01*
X141477Y415935D01*
X141133Y416025D01*
X140791Y416124D01*
X140452Y416232D01*
X140115Y416348D01*
X139782Y416472D01*
X139451Y416604D01*
X139124Y416744D01*
X138800Y416892D01*
X138481Y417048D01*
X138165Y417212D01*
X137853Y417384D01*
X137546Y417563D01*
X137243Y417750D01*
X136944Y417944D01*
X136651Y418145D01*
X136362Y418353D01*
X136079Y418569D01*
X135801Y418791D01*
X135529Y419020D01*
X135262Y419256D01*
X135002Y419498D01*
X134747Y419747D01*
X134498Y420002D01*
X134256Y420262D01*
X134020Y420529D01*
X133791Y420801D01*
X133569Y421079D01*
X133353Y421362D01*
X133145Y421651D01*
X132944Y421944D01*
X132750Y422243D01*
X132563Y422546D01*
X132384Y422853D01*
X132212Y423165D01*
X132048Y423481D01*
X131892Y423800D01*
X131744Y424124D01*
X131604Y424451D01*
X131472Y424782D01*
X131348Y425115D01*
X131232Y425452D01*
X131124Y425791D01*
X131025Y426133D01*
X130935Y426477D01*
X130852Y426823D01*
X130779Y427171D01*
X130713Y427521D01*
X130657Y427872D01*
X130609Y428225D01*
X130570Y428579D01*
X130539Y428933D01*
X130517Y429289D01*
X130504Y429644D01*
X130500Y430000D01*
X130500Y140000D02*
X130504Y140356D01*
X130517Y140711D01*
X130539Y141067D01*
X130570Y141421D01*
X130609Y141775D01*
X130657Y142128D01*
X130713Y142479D01*
X130779Y142829D01*
X130852Y143177D01*
X130935Y143523D01*
X131025Y143867D01*
X131124Y144209D01*
X131232Y144548D01*
X131348Y144885D01*
X131472Y145218D01*
X131604Y145549D01*
X131744Y145876D01*
X131892Y146200D01*
X132048Y146519D01*
X132212Y146835D01*
X132384Y147147D01*
X132563Y147454D01*
X132750Y147757D01*
X132944Y148056D01*
X133145Y148349D01*
X133353Y148638D01*
X133569Y148921D01*
X133791Y149199D01*
X134020Y149471D01*
X134256Y149738D01*
X134498Y149998D01*
X134747Y150253D01*
X135002Y150502D01*
X135262Y150744D01*
X135529Y150980D01*
X135801Y151209D01*
X136079Y151431D01*
X136362Y151647D01*
X136651Y151855D01*
X136944Y152056D01*
X137243Y152250D01*
X137546Y152437D01*
X137853Y152616D01*
X138165Y152788D01*
X138481Y152952D01*
X138800Y153108D01*
X139124Y153256D01*
X139451Y153396D01*
X139782Y153528D01*
X140115Y153652D01*
X140452Y153768D01*
X140791Y153876D01*
X141133Y153975D01*
X141477Y154065D01*
X141823Y154148D01*
X142171Y154221D01*
X142521Y154287D01*
X142872Y154343D01*
X143225Y154391D01*
X143579Y154430D01*
X143933Y154461D01*
X144289Y154483D01*
X144644Y154496D01*
X145000Y154500D01*
X145356Y154496D01*
X145711Y154483D01*
X146067Y154461D01*
X146421Y154430D01*
X146775Y154391D01*
X147128Y154343D01*
X147479Y154287D01*
X147829Y154221D01*
X148177Y154148D01*
X148523Y154065D01*
X148867Y153975D01*
X149209Y153876D01*
X149548Y153768D01*
X149885Y153652D01*
X150218Y153528D01*
X150549Y153396D01*
X150876Y153256D01*
X151200Y153108D01*
X151519Y152952D01*
X151835Y152788D01*
X152147Y152616D01*
X152454Y152437D01*
X152757Y152250D01*
X153056Y152056D01*
X153349Y151855D01*
X153638Y151647D01*
X153921Y151431D01*
X154199Y151209D01*
X154471Y150980D01*
X154738Y150744D01*
X154998Y150502D01*
X155253Y150253D01*
X155502Y149998D01*
X155744Y149738D01*
X155980Y149471D01*
X156209Y149199D01*
X156431Y148921D01*
X156647Y148638D01*
X156855Y148349D01*
X157056Y148056D01*
X157250Y147757D01*
X157437Y147454D01*
X157616Y147147D01*
X157788Y146835D01*
X157952Y146519D01*
X158108Y146200D01*
X158256Y145876D01*
X158396Y145549D01*
X158528Y145218D01*
X158652Y144885D01*
X158768Y144548D01*
X158876Y144209D01*
X158975Y143867D01*
X159065Y143523D01*
X159148Y143177D01*
X159221Y142829D01*
X159287Y142479D01*
X159343Y142128D01*
X159391Y141775D01*
X159430Y141421D01*
X159461Y141067D01*
X159483Y140711D01*
X159496Y140356D01*
X159500Y140000D01*
X159496Y139644D01*
X159483Y139289D01*
X159461Y138933D01*
X159430Y138579D01*
X159391Y138225D01*
X159343Y137872D01*
X159287Y137521D01*
X159221Y137171D01*
X159148Y136823D01*
X159065Y136477D01*
X158975Y136133D01*
X158876Y135791D01*
X158768Y135452D01*
X158652Y135115D01*
X158528Y134782D01*
X158396Y134451D01*
X158256Y134124D01*
X158108Y133800D01*
X157952Y133481D01*
X157788Y133165D01*
X157616Y132853D01*
X157437Y132546D01*
X157250Y132243D01*
X157056Y131944D01*
X156855Y131651D01*
X156647Y131362D01*
X156431Y131079D01*
X156209Y130801D01*
X155980Y130529D01*
X155744Y130262D01*
X155502Y130002D01*
X155253Y129747D01*
X154998Y129498D01*
X154738Y129256D01*
X154471Y129020D01*
X154199Y128791D01*
X153921Y128569D01*
X153638Y128353D01*
X153349Y128145D01*
X153056Y127944D01*
X152757Y127750D01*
X152454Y127563D01*
X152147Y127384D01*
X151835Y127212D01*
X151519Y127048D01*
X151200Y126892D01*
X150876Y126744D01*
X150549Y126604D01*
X150218Y126472D01*
X149885Y126348D01*
X149548Y126232D01*
X149209Y126124D01*
X148867Y126025D01*
X148523Y125935D01*
X148177Y125852D01*
X147829Y125779D01*
X147479Y125713D01*
X147128Y125657D01*
X146775Y125609D01*
X146421Y125570D01*
X146067Y125539D01*
X145711Y125517D01*
X145356Y125504D01*
X145000Y125500D01*
X144644Y125504D01*
X144289Y125517D01*
X143933Y125539D01*
X143579Y125570D01*
X143225Y125609D01*
X142872Y125657D01*
X142521Y125713D01*
X142171Y125779D01*
X141823Y125852D01*
X141477Y125935D01*
X141133Y126025D01*
X140791Y126124D01*
X140452Y126232D01*
X140115Y126348D01*
X139782Y126472D01*
X139451Y126604D01*
X139124Y126744D01*
X138800Y126892D01*
X138481Y127048D01*
X138165Y127212D01*
X137853Y127384D01*
X137546Y127563D01*
X137243Y127750D01*
X136944Y127944D01*
X136651Y128145D01*
X136362Y128353D01*
X136079Y128569D01*
X135801Y128791D01*
X135529Y129020D01*
X135262Y129256D01*
X135002Y129498D01*
X134747Y129747D01*
X134498Y130002D01*
X134256Y130262D01*
X134020Y130529D01*
X133791Y130801D01*
X133569Y131079D01*
X133353Y131362D01*
X133145Y131651D01*
X132944Y131944D01*
X132750Y132243D01*
X132563Y132546D01*
X132384Y132853D01*
X132212Y133165D01*
X132048Y133481D01*
X131892Y133800D01*
X131744Y134124D01*
X131604Y134451D01*
X131472Y134782D01*
X131348Y135115D01*
X131232Y135452D01*
X131124Y135791D01*
X131025Y136133D01*
X130935Y136477D01*
X130852Y136823D01*
X130779Y137171D01*
X130713Y137521D01*
X130657Y137872D01*
X130609Y138225D01*
X130570Y138579D01*
X130539Y138933D01*
X130517Y139289D01*
X130504Y139644D01*
X130500Y140000D01*
X750500Y140000D02*
X750504Y140356D01*
X750517Y140711D01*
X750539Y141067D01*
X750570Y141421D01*
X750609Y141775D01*
X750657Y142128D01*
X750713Y142479D01*
X750779Y142829D01*
X750852Y143177D01*
X750935Y143523D01*
X751025Y143867D01*
X751124Y144209D01*
X751232Y144548D01*
X751348Y144885D01*
X751472Y145218D01*
X751604Y145549D01*
X751744Y145876D01*
X751892Y146200D01*
X752048Y146519D01*
X752212Y146835D01*
X752384Y147147D01*
X752563Y147454D01*
X752750Y147757D01*
X752944Y148056D01*
X753145Y148349D01*
X753353Y148638D01*
X753569Y148921D01*
X753791Y149199D01*
X754020Y149471D01*
X754256Y149738D01*
X754498Y149998D01*
X754747Y150253D01*
X755002Y150502D01*
X755262Y150744D01*
X755529Y150980D01*
X755801Y151209D01*
X756079Y151431D01*
X756362Y151647D01*
X756651Y151855D01*
X756944Y152056D01*
X757243Y152250D01*
X757546Y152437D01*
X757853Y152616D01*
X758165Y152788D01*
X758481Y152952D01*
X758800Y153108D01*
X759124Y153256D01*
X759451Y153396D01*
X759782Y153528D01*
X760115Y153652D01*
X760452Y153768D01*
X760791Y153876D01*
X761133Y153975D01*
X761477Y154065D01*
X761823Y154148D01*
X762171Y154221D01*
X762521Y154287D01*
X762872Y154343D01*
X763225Y154391D01*
X763579Y154430D01*
X763933Y154461D01*
X764289Y154483D01*
X764644Y154496D01*
X765000Y154500D01*
X765356Y154496D01*
X765711Y154483D01*
X766067Y154461D01*
X766421Y154430D01*
X766775Y154391D01*
X767128Y154343D01*
X767479Y154287D01*
X767829Y154221D01*
X768177Y154148D01*
X768523Y154065D01*
X768867Y153975D01*
X769209Y153876D01*
X769548Y153768D01*
X769885Y153652D01*
X770218Y153528D01*
X770549Y153396D01*
X770876Y153256D01*
X771200Y153108D01*
X771519Y152952D01*
X771835Y152788D01*
X772147Y152616D01*
X772454Y152437D01*
X772757Y152250D01*
X773056Y152056D01*
X773349Y151855D01*
X773638Y151647D01*
X773921Y151431D01*
X774199Y151209D01*
X774471Y150980D01*
X774738Y150744D01*
X774998Y150502D01*
X775253Y150253D01*
X775502Y149998D01*
X775744Y149738D01*
X775980Y149471D01*
X776209Y149199D01*
X776431Y148921D01*
X776647Y148638D01*
X776855Y148349D01*
X777056Y148056D01*
X777250Y147757D01*
X777437Y147454D01*
X777616Y147147D01*
X777788Y146835D01*
X777952Y146519D01*
X778108Y146200D01*
X778256Y145876D01*
X778396Y145549D01*
X778528Y145218D01*
X778652Y144885D01*
X778768Y144548D01*
X778876Y144209D01*
X778975Y143867D01*
X779065Y143523D01*
X779148Y143177D01*
X779221Y142829D01*
X779287Y142479D01*
X779343Y142128D01*
X779391Y141775D01*
X779430Y141421D01*
X779461Y141067D01*
X779483Y140711D01*
X779496Y140356D01*
X779500Y140000D01*
X779496Y139644D01*
X779483Y139289D01*
X779461Y138933D01*
X779430Y138579D01*
X779391Y138225D01*
X779343Y137872D01*
X779287Y137521D01*
X779221Y137171D01*
X779148Y136823D01*
X779065Y136477D01*
X778975Y136133D01*
X778876Y135791D01*
X778768Y135452D01*
X778652Y135115D01*
X778528Y134782D01*
X778396Y134451D01*
X778256Y134124D01*
X778108Y133800D01*
X777952Y133481D01*
X777788Y133165D01*
X777616Y132853D01*
X777437Y132546D01*
X777250Y132243D01*
X777056Y131944D01*
X776855Y131651D01*
X776647Y131362D01*
X776431Y131079D01*
X776209Y130801D01*
X775980Y130529D01*
X775744Y130262D01*
X775502Y130002D01*
X775253Y129747D01*
X774998Y129498D01*
X774738Y129256D01*
X774471Y129020D01*
X774199Y128791D01*
X773921Y128569D01*
X773638Y128353D01*
X773349Y128145D01*
X773056Y127944D01*
X772757Y127750D01*
X772454Y127563D01*
X772147Y127384D01*
X771835Y127212D01*
X771519Y127048D01*
X771200Y126892D01*
X770876Y126744D01*
X770549Y126604D01*
X770218Y126472D01*
X769885Y126348D01*
X769548Y126232D01*
X769209Y126124D01*
X768867Y126025D01*
X768523Y125935D01*
X768177Y125852D01*
X767829Y125779D01*
X767479Y125713D01*
X767128Y125657D01*
X766775Y125609D01*
X766421Y125570D01*
X766067Y125539D01*
X765711Y125517D01*
X765356Y125504D01*
X765000Y125500D01*
X764644Y125504D01*
X764289Y125517D01*
X763933Y125539D01*
X763579Y125570D01*
X763225Y125609D01*
X762872Y125657D01*
X762521Y125713D01*
X762171Y125779D01*
X761823Y125852D01*
X761477Y125935D01*
X761133Y126025D01*
X760791Y126124D01*
X760452Y126232D01*
X760115Y126348D01*
X759782Y126472D01*
X759451Y126604D01*
X759124Y126744D01*
X758800Y126892D01*
X758481Y127048D01*
X758165Y127212D01*
X757853Y127384D01*
X757546Y127563D01*
X757243Y127750D01*
X756944Y127944D01*
X756651Y128145D01*
X756362Y128353D01*
X756079Y128569D01*
X755801Y128791D01*
X755529Y129020D01*
X755262Y129256D01*
X755002Y129498D01*
X754747Y129747D01*
X754498Y130002D01*
X754256Y130262D01*
X754020Y130529D01*
X753791Y130801D01*
X753569Y131079D01*
X753353Y131362D01*
X753145Y131651D01*
X752944Y131944D01*
X752750Y132243D01*
X752563Y132546D01*
X752384Y132853D01*
X752212Y133165D01*
X752048Y133481D01*
X751892Y133800D01*
X751744Y134124D01*
X751604Y134451D01*
X751472Y134782D01*
X751348Y135115D01*
X751232Y135452D01*
X751124Y135791D01*
X751025Y136133D01*
X750935Y136477D01*
X750852Y136823D01*
X750779Y137171D01*
X750713Y137521D01*
X750657Y137872D01*
X750609Y138225D01*
X750570Y138579D01*
X750539Y138933D01*
X750517Y139289D01*
X750504Y139644D01*
X750500Y140000D01*
X750500Y430000D02*
X750504Y430356D01*
X750517Y430711D01*
X750539Y431067D01*
X750570Y431421D01*
X750609Y431775D01*
X750657Y432128D01*
X750713Y432479D01*
X750779Y432829D01*
X750852Y433177D01*
X750935Y433523D01*
X751025Y433867D01*
X751124Y434209D01*
X751232Y434548D01*
X751348Y434885D01*
X751472Y435218D01*
X751604Y435549D01*
X751744Y435876D01*
X751892Y436200D01*
X752048Y436519D01*
X752212Y436835D01*
X752384Y437147D01*
X752563Y437454D01*
X752750Y437757D01*
X752944Y438056D01*
X753145Y438349D01*
X753353Y438638D01*
X753569Y438921D01*
X753791Y439199D01*
X754020Y439471D01*
X754256Y439738D01*
X754498Y439998D01*
X754747Y440253D01*
X755002Y440502D01*
X755262Y440744D01*
X755529Y440980D01*
X755801Y441209D01*
X756079Y441431D01*
X756362Y441647D01*
X756651Y441855D01*
X756944Y442056D01*
X757243Y442250D01*
X757546Y442437D01*
X757853Y442616D01*
X758165Y442788D01*
X758481Y442952D01*
X758800Y443108D01*
X759124Y443256D01*
X759451Y443396D01*
X759782Y443528D01*
X760115Y443652D01*
X760452Y443768D01*
X760791Y443876D01*
X761133Y443975D01*
X761477Y444065D01*
X761823Y444148D01*
X762171Y444221D01*
X762521Y444287D01*
X762872Y444343D01*
X763225Y444391D01*
X763579Y444430D01*
X763933Y444461D01*
X764289Y444483D01*
X764644Y444496D01*
X765000Y444500D01*
X765356Y444496D01*
X765711Y444483D01*
X766067Y444461D01*
X766421Y444430D01*
X766775Y444391D01*
X767128Y444343D01*
X767479Y444287D01*
X767829Y444221D01*
X768177Y444148D01*
X768523Y444065D01*
X768867Y443975D01*
X769209Y443876D01*
X769548Y443768D01*
X769885Y443652D01*
X770218Y443528D01*
X770549Y443396D01*
X770876Y443256D01*
X771200Y443108D01*
X771519Y442952D01*
X771835Y442788D01*
X772147Y442616D01*
X772454Y442437D01*
X772757Y442250D01*
X773056Y442056D01*
X773349Y441855D01*
X773638Y441647D01*
X773921Y441431D01*
X774199Y441209D01*
X774471Y440980D01*
X774738Y440744D01*
X774998Y440502D01*
X775253Y440253D01*
X775502Y439998D01*
X775744Y439738D01*
X775980Y439471D01*
X776209Y439199D01*
X776431Y438921D01*
X776647Y438638D01*
X776855Y438349D01*
X777056Y438056D01*
X777250Y437757D01*
X777437Y437454D01*
X777616Y437147D01*
X777788Y436835D01*
X777952Y436519D01*
X778108Y436200D01*
X778256Y435876D01*
X778396Y435549D01*
X778528Y435218D01*
X778652Y434885D01*
X778768Y434548D01*
X778876Y434209D01*
X778975Y433867D01*
X779065Y433523D01*
X779148Y433177D01*
X779221Y432829D01*
X779287Y432479D01*
X779343Y432128D01*
X779391Y431775D01*
X779430Y431421D01*
X779461Y431067D01*
X779483Y430711D01*
X779496Y430356D01*
X779500Y430000D01*
X779496Y429644D01*
X779483Y429289D01*
X779461Y428933D01*
X779430Y428579D01*
X779391Y428225D01*
X779343Y427872D01*
X779287Y427521D01*
X779221Y427171D01*
X779148Y426823D01*
X779065Y426477D01*
X778975Y426133D01*
X778876Y425791D01*
X778768Y425452D01*
X778652Y425115D01*
X778528Y424782D01*
X778396Y424451D01*
X778256Y424124D01*
X778108Y423800D01*
X777952Y423481D01*
X777788Y423165D01*
X777616Y422853D01*
X777437Y422546D01*
X777250Y422243D01*
X777056Y421944D01*
X776855Y421651D01*
X776647Y421362D01*
X776431Y421079D01*
X776209Y420801D01*
X775980Y420529D01*
X775744Y420262D01*
X775502Y420002D01*
X775253Y419747D01*
X774998Y419498D01*
X774738Y419256D01*
X774471Y419020D01*
X774199Y418791D01*
X773921Y418569D01*
X773638Y418353D01*
X773349Y418145D01*
X773056Y417944D01*
X772757Y417750D01*
X772454Y417563D01*
X772147Y417384D01*
X771835Y417212D01*
X771519Y417048D01*
X771200Y416892D01*
X770876Y416744D01*
X770549Y416604D01*
X770218Y416472D01*
X769885Y416348D01*
X769548Y416232D01*
X769209Y416124D01*
X768867Y416025D01*
X768523Y415935D01*
X768177Y415852D01*
X767829Y415779D01*
X767479Y415713D01*
X767128Y415657D01*
X766775Y415609D01*
X766421Y415570D01*
X766067Y415539D01*
X765711Y415517D01*
X765356Y415504D01*
X765000Y415500D01*
X764644Y415504D01*
X764289Y415517D01*
X763933Y415539D01*
X763579Y415570D01*
X763225Y415609D01*
X762872Y415657D01*
X762521Y415713D01*
X762171Y415779D01*
X761823Y415852D01*
X761477Y415935D01*
X761133Y416025D01*
X760791Y416124D01*
X760452Y416232D01*
X760115Y416348D01*
X759782Y416472D01*
X759451Y416604D01*
X759124Y416744D01*
X758800Y416892D01*
X758481Y417048D01*
X758165Y417212D01*
X757853Y417384D01*
X757546Y417563D01*
X757243Y417750D01*
X756944Y417944D01*
X756651Y418145D01*
X756362Y418353D01*
X756079Y418569D01*
X755801Y418791D01*
X755529Y419020D01*
X755262Y419256D01*
X755002Y419498D01*
X754747Y419747D01*
X754498Y420002D01*
X754256Y420262D01*
X754020Y420529D01*
X753791Y420801D01*
X753569Y421079D01*
X753353Y421362D01*
X753145Y421651D01*
X752944Y421944D01*
X752750Y422243D01*
X752563Y422546D01*
X752384Y422853D01*
X752212Y423165D01*
X752048Y423481D01*
X751892Y423800D01*
X751744Y424124D01*
X751604Y424451D01*
X751472Y424782D01*
X751348Y425115D01*
X751232Y425452D01*
X751124Y425791D01*
X751025Y426133D01*
X750935Y426477D01*
X750852Y426823D01*
X750779Y427171D01*
X750713Y427521D01*
X750657Y427872D01*
X750609Y428225D01*
X750570Y428579D01*
X750539Y428933D01*
X750517Y429289D01*
X750504Y429644D01*
X750500Y430000D01*
X331600Y505000D02*
X331605Y505399D01*
X331620Y505797D01*
X331644Y506195D01*
X331678Y506593D01*
X331722Y506989D01*
X331776Y507384D01*
X331839Y507778D01*
X331912Y508170D01*
X331995Y508560D01*
X332087Y508948D01*
X332189Y509334D01*
X332300Y509717D01*
X332420Y510097D01*
X332550Y510474D01*
X332689Y510848D01*
X332837Y511219D01*
X332994Y511585D01*
X333160Y511948D01*
X333335Y512306D01*
X333519Y512660D01*
X333711Y513010D01*
X333912Y513354D01*
X334121Y513694D01*
X334339Y514028D01*
X334564Y514357D01*
X334798Y514680D01*
X335039Y514998D01*
X335289Y515309D01*
X335545Y515614D01*
X335810Y515913D01*
X336081Y516205D01*
X336360Y516490D01*
X336645Y516769D01*
X336937Y517040D01*
X337236Y517305D01*
X337541Y517561D01*
X337852Y517811D01*
X338170Y518052D01*
X338493Y518286D01*
X338822Y518511D01*
X339156Y518729D01*
X339496Y518938D01*
X339840Y519139D01*
X340190Y519331D01*
X340544Y519515D01*
X340902Y519690D01*
X341265Y519856D01*
X341631Y520013D01*
X342002Y520161D01*
X342376Y520300D01*
X342753Y520430D01*
X343133Y520550D01*
X343516Y520661D01*
X343902Y520763D01*
X344290Y520855D01*
X344680Y520938D01*
X345072Y521011D01*
X345466Y521074D01*
X345861Y521128D01*
X346257Y521172D01*
X346655Y521206D01*
X347053Y521230D01*
X347451Y521245D01*
X347850Y521250D01*
X348249Y521245D01*
X348647Y521230D01*
X349045Y521206D01*
X349443Y521172D01*
X349839Y521128D01*
X350234Y521074D01*
X350628Y521011D01*
X351020Y520938D01*
X351410Y520855D01*
X351798Y520763D01*
X352184Y520661D01*
X352567Y520550D01*
X352947Y520430D01*
X353324Y520300D01*
X353698Y520161D01*
X354069Y520013D01*
X354435Y519856D01*
X354798Y519690D01*
X355156Y519515D01*
X355510Y519331D01*
X355860Y519139D01*
X356204Y518938D01*
X356544Y518729D01*
X356878Y518511D01*
X357207Y518286D01*
X357530Y518052D01*
X357848Y517811D01*
X358159Y517561D01*
X358464Y517305D01*
X358763Y517040D01*
X359055Y516769D01*
X359340Y516490D01*
X359619Y516205D01*
X359890Y515913D01*
X360155Y515614D01*
X360411Y515309D01*
X360661Y514998D01*
X360902Y514680D01*
X361136Y514357D01*
X361361Y514028D01*
X361579Y513694D01*
X361788Y513354D01*
X361989Y513010D01*
X362181Y512660D01*
X362365Y512306D01*
X362540Y511948D01*
X362706Y511585D01*
X362863Y511219D01*
X363011Y510848D01*
X363150Y510474D01*
X363280Y510097D01*
X363400Y509717D01*
X363511Y509334D01*
X363613Y508948D01*
X363705Y508560D01*
X363788Y508170D01*
X363861Y507778D01*
X363924Y507384D01*
X363978Y506989D01*
X364022Y506593D01*
X364056Y506195D01*
X364080Y505797D01*
X364095Y505399D01*
X364100Y505000D01*
X364095Y504601D01*
X364080Y504203D01*
X364056Y503805D01*
X364022Y503407D01*
X363978Y503011D01*
X363924Y502616D01*
X363861Y502222D01*
X363788Y501830D01*
X363705Y501440D01*
X363613Y501052D01*
X363511Y500666D01*
X363400Y500283D01*
X363280Y499903D01*
X363150Y499526D01*
X363011Y499152D01*
X362863Y498781D01*
X362706Y498415D01*
X362540Y498052D01*
X362365Y497694D01*
X362181Y497340D01*
X361989Y496990D01*
X361788Y496646D01*
X361579Y496306D01*
X361361Y495972D01*
X361136Y495643D01*
X360902Y495320D01*
X360661Y495002D01*
X360411Y494691D01*
X360155Y494386D01*
X359890Y494087D01*
X359619Y493795D01*
X359340Y493510D01*
X359055Y493231D01*
X358763Y492960D01*
X358464Y492695D01*
X358159Y492439D01*
X357848Y492189D01*
X357530Y491948D01*
X357207Y491714D01*
X356878Y491489D01*
X356544Y491271D01*
X356204Y491062D01*
X355860Y490861D01*
X355510Y490669D01*
X355156Y490485D01*
X354798Y490310D01*
X354435Y490144D01*
X354069Y489987D01*
X353698Y489839D01*
X353324Y489700D01*
X352947Y489570D01*
X352567Y489450D01*
X352184Y489339D01*
X351798Y489237D01*
X351410Y489145D01*
X351020Y489062D01*
X350628Y488989D01*
X350234Y488926D01*
X349839Y488872D01*
X349443Y488828D01*
X349045Y488794D01*
X348647Y488770D01*
X348249Y488755D01*
X347850Y488750D01*
X347451Y488755D01*
X347053Y488770D01*
X346655Y488794D01*
X346257Y488828D01*
X345861Y488872D01*
X345466Y488926D01*
X345072Y488989D01*
X344680Y489062D01*
X344290Y489145D01*
X343902Y489237D01*
X343516Y489339D01*
X343133Y489450D01*
X342753Y489570D01*
X342376Y489700D01*
X342002Y489839D01*
X341631Y489987D01*
X341265Y490144D01*
X340902Y490310D01*
X340544Y490485D01*
X340190Y490669D01*
X339840Y490861D01*
X339496Y491062D01*
X339156Y491271D01*
X338822Y491489D01*
X338493Y491714D01*
X338170Y491948D01*
X337852Y492189D01*
X337541Y492439D01*
X337236Y492695D01*
X336937Y492960D01*
X336645Y493231D01*
X336360Y493510D01*
X336081Y493795D01*
X335810Y494087D01*
X335545Y494386D01*
X335289Y494691D01*
X335039Y495002D01*
X334798Y495320D01*
X334564Y495643D01*
X334339Y495972D01*
X334121Y496306D01*
X333912Y496646D01*
X333711Y496990D01*
X333519Y497340D01*
X333335Y497694D01*
X333160Y498052D01*
X332994Y498415D01*
X332837Y498781D01*
X332689Y499152D01*
X332550Y499526D01*
X332420Y499903D01*
X332300Y500283D01*
X332189Y500666D01*
X332087Y501052D01*
X331995Y501440D01*
X331912Y501830D01*
X331839Y502222D01*
X331776Y502616D01*
X331722Y503011D01*
X331678Y503407D01*
X331644Y503805D01*
X331620Y504203D01*
X331605Y504601D01*
X331600Y505000D01*
X445900Y505000D02*
X445905Y505399D01*
X445920Y505797D01*
X445944Y506195D01*
X445978Y506593D01*
X446022Y506989D01*
X446076Y507384D01*
X446139Y507778D01*
X446212Y508170D01*
X446295Y508560D01*
X446387Y508948D01*
X446489Y509334D01*
X446600Y509717D01*
X446720Y510097D01*
X446850Y510474D01*
X446989Y510848D01*
X447137Y511219D01*
X447294Y511585D01*
X447460Y511948D01*
X447635Y512306D01*
X447819Y512660D01*
X448011Y513010D01*
X448212Y513354D01*
X448421Y513694D01*
X448639Y514028D01*
X448864Y514357D01*
X449098Y514680D01*
X449339Y514998D01*
X449589Y515309D01*
X449845Y515614D01*
X450110Y515913D01*
X450381Y516205D01*
X450660Y516490D01*
X450945Y516769D01*
X451237Y517040D01*
X451536Y517305D01*
X451841Y517561D01*
X452152Y517811D01*
X452470Y518052D01*
X452793Y518286D01*
X453122Y518511D01*
X453456Y518729D01*
X453796Y518938D01*
X454140Y519139D01*
X454490Y519331D01*
X454844Y519515D01*
X455202Y519690D01*
X455565Y519856D01*
X455931Y520013D01*
X456302Y520161D01*
X456676Y520300D01*
X457053Y520430D01*
X457433Y520550D01*
X457816Y520661D01*
X458202Y520763D01*
X458590Y520855D01*
X458980Y520938D01*
X459372Y521011D01*
X459766Y521074D01*
X460161Y521128D01*
X460557Y521172D01*
X460955Y521206D01*
X461353Y521230D01*
X461751Y521245D01*
X462150Y521250D01*
X462549Y521245D01*
X462947Y521230D01*
X463345Y521206D01*
X463743Y521172D01*
X464139Y521128D01*
X464534Y521074D01*
X464928Y521011D01*
X465320Y520938D01*
X465710Y520855D01*
X466098Y520763D01*
X466484Y520661D01*
X466867Y520550D01*
X467247Y520430D01*
X467624Y520300D01*
X467998Y520161D01*
X468369Y520013D01*
X468735Y519856D01*
X469098Y519690D01*
X469456Y519515D01*
X469810Y519331D01*
X470160Y519139D01*
X470504Y518938D01*
X470844Y518729D01*
X471178Y518511D01*
X471507Y518286D01*
X471830Y518052D01*
X472148Y517811D01*
X472459Y517561D01*
X472764Y517305D01*
X473063Y517040D01*
X473355Y516769D01*
X473640Y516490D01*
X473919Y516205D01*
X474190Y515913D01*
X474455Y515614D01*
X474711Y515309D01*
X474961Y514998D01*
X475202Y514680D01*
X475436Y514357D01*
X475661Y514028D01*
X475879Y513694D01*
X476088Y513354D01*
X476289Y513010D01*
X476481Y512660D01*
X476665Y512306D01*
X476840Y511948D01*
X477006Y511585D01*
X477163Y511219D01*
X477311Y510848D01*
X477450Y510474D01*
X477580Y510097D01*
X477700Y509717D01*
X477811Y509334D01*
X477913Y508948D01*
X478005Y508560D01*
X478088Y508170D01*
X478161Y507778D01*
X478224Y507384D01*
X478278Y506989D01*
X478322Y506593D01*
X478356Y506195D01*
X478380Y505797D01*
X478395Y505399D01*
X478400Y505000D01*
X478395Y504601D01*
X478380Y504203D01*
X478356Y503805D01*
X478322Y503407D01*
X478278Y503011D01*
X478224Y502616D01*
X478161Y502222D01*
X478088Y501830D01*
X478005Y501440D01*
X477913Y501052D01*
X477811Y500666D01*
X477700Y500283D01*
X477580Y499903D01*
X477450Y499526D01*
X477311Y499152D01*
X477163Y498781D01*
X477006Y498415D01*
X476840Y498052D01*
X476665Y497694D01*
X476481Y497340D01*
X476289Y496990D01*
X476088Y496646D01*
X475879Y496306D01*
X475661Y495972D01*
X475436Y495643D01*
X475202Y495320D01*
X474961Y495002D01*
X474711Y494691D01*
X474455Y494386D01*
X474190Y494087D01*
X473919Y493795D01*
X473640Y493510D01*
X473355Y493231D01*
X473063Y492960D01*
X472764Y492695D01*
X472459Y492439D01*
X472148Y492189D01*
X471830Y491948D01*
X471507Y491714D01*
X471178Y491489D01*
X470844Y491271D01*
X470504Y491062D01*
X470160Y490861D01*
X469810Y490669D01*
X469456Y490485D01*
X469098Y490310D01*
X468735Y490144D01*
X468369Y489987D01*
X467998Y489839D01*
X467624Y489700D01*
X467247Y489570D01*
X466867Y489450D01*
X466484Y489339D01*
X466098Y489237D01*
X465710Y489145D01*
X465320Y489062D01*
X464928Y488989D01*
X464534Y488926D01*
X464139Y488872D01*
X463743Y488828D01*
X463345Y488794D01*
X462947Y488770D01*
X462549Y488755D01*
X462150Y488750D01*
X461751Y488755D01*
X461353Y488770D01*
X460955Y488794D01*
X460557Y488828D01*
X460161Y488872D01*
X459766Y488926D01*
X459372Y488989D01*
X458980Y489062D01*
X458590Y489145D01*
X458202Y489237D01*
X457816Y489339D01*
X457433Y489450D01*
X457053Y489570D01*
X456676Y489700D01*
X456302Y489839D01*
X455931Y489987D01*
X455565Y490144D01*
X455202Y490310D01*
X454844Y490485D01*
X454490Y490669D01*
X454140Y490861D01*
X453796Y491062D01*
X453456Y491271D01*
X453122Y491489D01*
X452793Y491714D01*
X452470Y491948D01*
X452152Y492189D01*
X451841Y492439D01*
X451536Y492695D01*
X451237Y492960D01*
X450945Y493231D01*
X450660Y493510D01*
X450381Y493795D01*
X450110Y494087D01*
X449845Y494386D01*
X449589Y494691D01*
X449339Y495002D01*
X449098Y495320D01*
X448864Y495643D01*
X448639Y495972D01*
X448421Y496306D01*
X448212Y496646D01*
X448011Y496990D01*
X447819Y497340D01*
X447635Y497694D01*
X447460Y498052D01*
X447294Y498415D01*
X447137Y498781D01*
X446989Y499152D01*
X446850Y499526D01*
X446720Y499903D01*
X446600Y500283D01*
X446489Y500666D01*
X446387Y501052D01*
X446295Y501440D01*
X446212Y501830D01*
X446139Y502222D01*
X446076Y502616D01*
X446022Y503011D01*
X445978Y503407D01*
X445944Y503805D01*
X445920Y504203D01*
X445905Y504601D01*
X445900Y505000D01*
X230000Y555000D02*
X230002Y555126D01*
X230008Y555252D01*
X230018Y555378D01*
X230032Y555504D01*
X230050Y555629D01*
X230072Y555753D01*
X230097Y555877D01*
X230127Y556000D01*
X230160Y556121D01*
X230198Y556242D01*
X230239Y556361D01*
X230284Y556480D01*
X230332Y556596D01*
X230384Y556711D01*
X230440Y556824D01*
X230500Y556936D01*
X230563Y557045D01*
X230629Y557153D01*
X230698Y557258D01*
X230771Y557361D01*
X230848Y557462D01*
X230927Y557560D01*
X231009Y557656D01*
X231095Y557749D01*
X231183Y557840D01*
X231274Y557927D01*
X231368Y558012D01*
X231464Y558093D01*
X231563Y558172D01*
X231664Y558247D01*
X231768Y558319D01*
X231874Y558388D01*
X231982Y558454D01*
X232092Y558516D01*
X232204Y558574D01*
X232317Y558629D01*
X232433Y558680D01*
X232550Y558728D01*
X232668Y558772D01*
X232788Y558812D01*
X232909Y558848D01*
X233031Y558881D01*
X233154Y558910D01*
X233278Y558934D01*
X233402Y558955D01*
X233527Y558972D01*
X233653Y558985D01*
X233779Y558994D01*
X233905Y558999D01*
X234032Y559000D01*
X234158Y558997D01*
X234284Y558990D01*
X234410Y558979D01*
X234535Y558964D01*
X234660Y558945D01*
X234784Y558922D01*
X234908Y558896D01*
X235030Y558865D01*
X235152Y558831D01*
X235272Y558792D01*
X235391Y558750D01*
X235509Y558705D01*
X235625Y558655D01*
X235740Y558602D01*
X235852Y558545D01*
X235963Y558485D01*
X236072Y558421D01*
X236179Y558354D01*
X236284Y558284D01*
X236387Y558210D01*
X236487Y558133D01*
X236585Y558053D01*
X236680Y557970D01*
X236772Y557884D01*
X236862Y557795D01*
X236949Y557703D01*
X237032Y557609D01*
X237113Y557512D01*
X237191Y557412D01*
X237266Y557310D01*
X237337Y557206D01*
X237405Y557099D01*
X237469Y556991D01*
X237530Y556880D01*
X237588Y556768D01*
X237642Y556654D01*
X237692Y556538D01*
X237739Y556421D01*
X237782Y556302D01*
X237821Y556182D01*
X237857Y556061D01*
X237888Y555938D01*
X237916Y555815D01*
X237940Y555691D01*
X237960Y555566D01*
X237976Y555441D01*
X237988Y555315D01*
X237996Y555189D01*
X238000Y555063D01*
X238000Y554937D01*
X237996Y554811D01*
X237988Y554685D01*
X237976Y554559D01*
X237960Y554434D01*
X237940Y554309D01*
X237916Y554185D01*
X237888Y554062D01*
X237857Y553939D01*
X237821Y553818D01*
X237782Y553698D01*
X237739Y553579D01*
X237692Y553462D01*
X237642Y553346D01*
X237588Y553232D01*
X237530Y553120D01*
X237469Y553009D01*
X237405Y552901D01*
X237337Y552794D01*
X237266Y552690D01*
X237191Y552588D01*
X237113Y552488D01*
X237032Y552391D01*
X236949Y552297D01*
X236862Y552205D01*
X236772Y552116D01*
X236680Y552030D01*
X236585Y551947D01*
X236487Y551867D01*
X236387Y551790D01*
X236284Y551716D01*
X236179Y551646D01*
X236072Y551579D01*
X235963Y551515D01*
X235852Y551455D01*
X235740Y551398D01*
X235625Y551345D01*
X235509Y551295D01*
X235391Y551250D01*
X235272Y551208D01*
X235152Y551169D01*
X235030Y551135D01*
X234908Y551104D01*
X234784Y551078D01*
X234660Y551055D01*
X234535Y551036D01*
X234410Y551021D01*
X234284Y551010D01*
X234158Y551003D01*
X234032Y551000D01*
X233905Y551001D01*
X233779Y551006D01*
X233653Y551015D01*
X233527Y551028D01*
X233402Y551045D01*
X233278Y551066D01*
X233154Y551090D01*
X233031Y551119D01*
X232909Y551152D01*
X232788Y551188D01*
X232668Y551228D01*
X232550Y551272D01*
X232433Y551320D01*
X232317Y551371D01*
X232204Y551426D01*
X232092Y551484D01*
X231982Y551546D01*
X231874Y551612D01*
X231768Y551681D01*
X231664Y551753D01*
X231563Y551828D01*
X231464Y551907D01*
X231368Y551988D01*
X231274Y552073D01*
X231183Y552160D01*
X231095Y552251D01*
X231009Y552344D01*
X230927Y552440D01*
X230848Y552538D01*
X230771Y552639D01*
X230698Y552742D01*
X230629Y552847D01*
X230563Y552955D01*
X230500Y553064D01*
X230440Y553176D01*
X230384Y553289D01*
X230332Y553404D01*
X230284Y553520D01*
X230239Y553639D01*
X230198Y553758D01*
X230160Y553879D01*
X230127Y554000D01*
X230097Y554123D01*
X230072Y554247D01*
X230050Y554371D01*
X230032Y554496D01*
X230018Y554622D01*
X230008Y554748D01*
X230002Y554874D01*
X230000Y555000D01*
X192000Y555000D02*
X192002Y555126D01*
X192008Y555252D01*
X192018Y555378D01*
X192032Y555504D01*
X192050Y555629D01*
X192072Y555753D01*
X192097Y555877D01*
X192127Y556000D01*
X192160Y556121D01*
X192198Y556242D01*
X192239Y556361D01*
X192284Y556480D01*
X192332Y556596D01*
X192384Y556711D01*
X192440Y556824D01*
X192500Y556936D01*
X192563Y557045D01*
X192629Y557153D01*
X192698Y557258D01*
X192771Y557361D01*
X192848Y557462D01*
X192927Y557560D01*
X193009Y557656D01*
X193095Y557749D01*
X193183Y557840D01*
X193274Y557927D01*
X193368Y558012D01*
X193464Y558093D01*
X193563Y558172D01*
X193664Y558247D01*
X193768Y558319D01*
X193874Y558388D01*
X193982Y558454D01*
X194092Y558516D01*
X194204Y558574D01*
X194317Y558629D01*
X194433Y558680D01*
X194550Y558728D01*
X194668Y558772D01*
X194788Y558812D01*
X194909Y558848D01*
X195031Y558881D01*
X195154Y558910D01*
X195278Y558934D01*
X195402Y558955D01*
X195527Y558972D01*
X195653Y558985D01*
X195779Y558994D01*
X195905Y558999D01*
X196032Y559000D01*
X196158Y558997D01*
X196284Y558990D01*
X196410Y558979D01*
X196535Y558964D01*
X196660Y558945D01*
X196784Y558922D01*
X196908Y558896D01*
X197030Y558865D01*
X197152Y558831D01*
X197272Y558792D01*
X197391Y558750D01*
X197509Y558705D01*
X197625Y558655D01*
X197740Y558602D01*
X197852Y558545D01*
X197963Y558485D01*
X198072Y558421D01*
X198179Y558354D01*
X198284Y558284D01*
X198387Y558210D01*
X198487Y558133D01*
X198585Y558053D01*
X198680Y557970D01*
X198772Y557884D01*
X198862Y557795D01*
X198949Y557703D01*
X199032Y557609D01*
X199113Y557512D01*
X199191Y557412D01*
X199266Y557310D01*
X199337Y557206D01*
X199405Y557099D01*
X199469Y556991D01*
X199530Y556880D01*
X199588Y556768D01*
X199642Y556654D01*
X199692Y556538D01*
X199739Y556421D01*
X199782Y556302D01*
X199821Y556182D01*
X199857Y556061D01*
X199888Y555938D01*
X199916Y555815D01*
X199940Y555691D01*
X199960Y555566D01*
X199976Y555441D01*
X199988Y555315D01*
X199996Y555189D01*
X200000Y555063D01*
X200000Y554937D01*
X199996Y554811D01*
X199988Y554685D01*
X199976Y554559D01*
X199960Y554434D01*
X199940Y554309D01*
X199916Y554185D01*
X199888Y554062D01*
X199857Y553939D01*
X199821Y553818D01*
X199782Y553698D01*
X199739Y553579D01*
X199692Y553462D01*
X199642Y553346D01*
X199588Y553232D01*
X199530Y553120D01*
X199469Y553009D01*
X199405Y552901D01*
X199337Y552794D01*
X199266Y552690D01*
X199191Y552588D01*
X199113Y552488D01*
X199032Y552391D01*
X198949Y552297D01*
X198862Y552205D01*
X198772Y552116D01*
X198680Y552030D01*
X198585Y551947D01*
X198487Y551867D01*
X198387Y551790D01*
X198284Y551716D01*
X198179Y551646D01*
X198072Y551579D01*
X197963Y551515D01*
X197852Y551455D01*
X197740Y551398D01*
X197625Y551345D01*
X197509Y551295D01*
X197391Y551250D01*
X197272Y551208D01*
X197152Y551169D01*
X197030Y551135D01*
X196908Y551104D01*
X196784Y551078D01*
X196660Y551055D01*
X196535Y551036D01*
X196410Y551021D01*
X196284Y551010D01*
X196158Y551003D01*
X196032Y551000D01*
X195905Y551001D01*
X195779Y551006D01*
X195653Y551015D01*
X195527Y551028D01*
X195402Y551045D01*
X195278Y551066D01*
X195154Y551090D01*
X195031Y551119D01*
X194909Y551152D01*
X194788Y551188D01*
X194668Y551228D01*
X194550Y551272D01*
X194433Y551320D01*
X194317Y551371D01*
X194204Y551426D01*
X194092Y551484D01*
X193982Y551546D01*
X193874Y551612D01*
X193768Y551681D01*
X193664Y551753D01*
X193563Y551828D01*
X193464Y551907D01*
X193368Y551988D01*
X193274Y552073D01*
X193183Y552160D01*
X193095Y552251D01*
X193009Y552344D01*
X192927Y552440D01*
X192848Y552538D01*
X192771Y552639D01*
X192698Y552742D01*
X192629Y552847D01*
X192563Y552955D01*
X192500Y553064D01*
X192440Y553176D01*
X192384Y553289D01*
X192332Y553404D01*
X192284Y553520D01*
X192239Y553639D01*
X192198Y553758D01*
X192160Y553879D01*
X192127Y554000D01*
X192097Y554123D01*
X192072Y554247D01*
X192050Y554371D01*
X192032Y554496D01*
X192018Y554622D01*
X192008Y554748D01*
X192002Y554874D01*
X192000Y555000D01*
X666455Y147300D02*
X666457Y147433D01*
X666463Y147566D01*
X666473Y147698D01*
X666487Y147831D01*
X666505Y147962D01*
X666526Y148094D01*
X666552Y148224D01*
X666582Y148354D01*
X666615Y148483D01*
X666652Y148610D01*
X666694Y148737D01*
X666738Y148862D01*
X666787Y148986D01*
X666839Y149108D01*
X666895Y149229D01*
X666955Y149348D01*
X667018Y149465D01*
X667084Y149580D01*
X667154Y149693D01*
X667227Y149804D01*
X667304Y149913D01*
X667384Y150019D01*
X667467Y150123D01*
X667553Y150225D01*
X667642Y150323D01*
X667733Y150419D01*
X667828Y150513D01*
X667926Y150603D01*
X668026Y150691D01*
X668129Y150775D01*
X668234Y150857D01*
X668341Y150935D01*
X668451Y151010D01*
X668563Y151081D01*
X668678Y151149D01*
X668794Y151214D01*
X668912Y151276D01*
X669032Y151333D01*
X669153Y151387D01*
X669276Y151438D01*
X669401Y151484D01*
X669526Y151527D01*
X669654Y151567D01*
X669782Y151602D01*
X669911Y151634D01*
X670041Y151661D01*
X670172Y151685D01*
X670303Y151705D01*
X670435Y151721D01*
X670568Y151733D01*
X670701Y151741D01*
X670834Y151745D01*
X670966Y151745D01*
X671099Y151741D01*
X671232Y151733D01*
X671365Y151721D01*
X671497Y151705D01*
X671628Y151685D01*
X671759Y151661D01*
X671889Y151634D01*
X672018Y151602D01*
X672146Y151567D01*
X672274Y151527D01*
X672399Y151484D01*
X672524Y151438D01*
X672647Y151387D01*
X672768Y151333D01*
X672888Y151276D01*
X673006Y151214D01*
X673123Y151149D01*
X673237Y151081D01*
X673349Y151010D01*
X673459Y150935D01*
X673566Y150857D01*
X673671Y150775D01*
X673774Y150691D01*
X673874Y150603D01*
X673972Y150513D01*
X674067Y150419D01*
X674158Y150323D01*
X674247Y150225D01*
X674333Y150123D01*
X674416Y150019D01*
X674496Y149913D01*
X674573Y149804D01*
X674646Y149693D01*
X674716Y149580D01*
X674782Y149465D01*
X674845Y149348D01*
X674905Y149229D01*
X674961Y149108D01*
X675013Y148986D01*
X675062Y148862D01*
X675106Y148737D01*
X675148Y148610D01*
X675185Y148483D01*
X675218Y148354D01*
X675248Y148224D01*
X675274Y148094D01*
X675295Y147962D01*
X675313Y147831D01*
X675327Y147698D01*
X675337Y147566D01*
X675343Y147433D01*
X675345Y147300D01*
X675343Y147167D01*
X675337Y147034D01*
X675327Y146902D01*
X675313Y146769D01*
X675295Y146638D01*
X675274Y146506D01*
X675248Y146376D01*
X675218Y146246D01*
X675185Y146117D01*
X675148Y145990D01*
X675106Y145863D01*
X675062Y145738D01*
X675013Y145614D01*
X674961Y145492D01*
X674905Y145371D01*
X674845Y145252D01*
X674782Y145135D01*
X674716Y145020D01*
X674646Y144907D01*
X674573Y144796D01*
X674496Y144687D01*
X674416Y144581D01*
X674333Y144477D01*
X674247Y144375D01*
X674158Y144277D01*
X674067Y144181D01*
X673972Y144087D01*
X673874Y143997D01*
X673774Y143909D01*
X673671Y143825D01*
X673566Y143743D01*
X673459Y143665D01*
X673349Y143590D01*
X673237Y143519D01*
X673122Y143451D01*
X673006Y143386D01*
X672888Y143324D01*
X672768Y143267D01*
X672647Y143213D01*
X672524Y143162D01*
X672399Y143116D01*
X672274Y143073D01*
X672146Y143033D01*
X672018Y142998D01*
X671889Y142966D01*
X671759Y142939D01*
X671628Y142915D01*
X671497Y142895D01*
X671365Y142879D01*
X671232Y142867D01*
X671099Y142859D01*
X670966Y142855D01*
X670834Y142855D01*
X670701Y142859D01*
X670568Y142867D01*
X670435Y142879D01*
X670303Y142895D01*
X670172Y142915D01*
X670041Y142939D01*
X669911Y142966D01*
X669782Y142998D01*
X669654Y143033D01*
X669526Y143073D01*
X669401Y143116D01*
X669276Y143162D01*
X669153Y143213D01*
X669032Y143267D01*
X668912Y143324D01*
X668794Y143386D01*
X668677Y143451D01*
X668563Y143519D01*
X668451Y143590D01*
X668341Y143665D01*
X668234Y143743D01*
X668129Y143825D01*
X668026Y143909D01*
X667926Y143997D01*
X667828Y144087D01*
X667733Y144181D01*
X667642Y144277D01*
X667553Y144375D01*
X667467Y144477D01*
X667384Y144581D01*
X667304Y144687D01*
X667227Y144796D01*
X667154Y144907D01*
X667084Y145020D01*
X667018Y145135D01*
X666955Y145252D01*
X666895Y145371D01*
X666839Y145492D01*
X666787Y145614D01*
X666738Y145738D01*
X666694Y145863D01*
X666652Y145990D01*
X666615Y146117D01*
X666582Y146246D01*
X666552Y146376D01*
X666526Y146506D01*
X666505Y146638D01*
X666487Y146769D01*
X666473Y146902D01*
X666463Y147034D01*
X666457Y147167D01*
X666455Y147300D01*
X717255Y137140D02*
X717257Y137273D01*
X717263Y137406D01*
X717273Y137538D01*
X717287Y137671D01*
X717305Y137802D01*
X717326Y137934D01*
X717352Y138064D01*
X717382Y138194D01*
X717415Y138323D01*
X717452Y138450D01*
X717494Y138577D01*
X717538Y138702D01*
X717587Y138826D01*
X717639Y138948D01*
X717695Y139069D01*
X717755Y139188D01*
X717818Y139305D01*
X717884Y139420D01*
X717954Y139533D01*
X718027Y139644D01*
X718104Y139753D01*
X718184Y139859D01*
X718267Y139963D01*
X718353Y140065D01*
X718442Y140163D01*
X718533Y140259D01*
X718628Y140353D01*
X718726Y140443D01*
X718826Y140531D01*
X718929Y140615D01*
X719034Y140697D01*
X719141Y140775D01*
X719251Y140850D01*
X719363Y140921D01*
X719478Y140989D01*
X719594Y141054D01*
X719712Y141116D01*
X719832Y141173D01*
X719953Y141227D01*
X720076Y141278D01*
X720201Y141324D01*
X720326Y141367D01*
X720454Y141407D01*
X720582Y141442D01*
X720711Y141474D01*
X720841Y141501D01*
X720972Y141525D01*
X721103Y141545D01*
X721235Y141561D01*
X721368Y141573D01*
X721501Y141581D01*
X721634Y141585D01*
X721766Y141585D01*
X721899Y141581D01*
X722032Y141573D01*
X722165Y141561D01*
X722297Y141545D01*
X722428Y141525D01*
X722559Y141501D01*
X722689Y141474D01*
X722818Y141442D01*
X722946Y141407D01*
X723074Y141367D01*
X723199Y141324D01*
X723324Y141278D01*
X723447Y141227D01*
X723568Y141173D01*
X723688Y141116D01*
X723806Y141054D01*
X723923Y140989D01*
X724037Y140921D01*
X724149Y140850D01*
X724259Y140775D01*
X724366Y140697D01*
X724471Y140615D01*
X724574Y140531D01*
X724674Y140443D01*
X724772Y140353D01*
X724867Y140259D01*
X724958Y140163D01*
X725047Y140065D01*
X725133Y139963D01*
X725216Y139859D01*
X725296Y139753D01*
X725373Y139644D01*
X725446Y139533D01*
X725516Y139420D01*
X725582Y139305D01*
X725645Y139188D01*
X725705Y139069D01*
X725761Y138948D01*
X725813Y138826D01*
X725862Y138702D01*
X725906Y138577D01*
X725948Y138450D01*
X725985Y138323D01*
X726018Y138194D01*
X726048Y138064D01*
X726074Y137934D01*
X726095Y137802D01*
X726113Y137671D01*
X726127Y137538D01*
X726137Y137406D01*
X726143Y137273D01*
X726145Y137140D01*
X726143Y137007D01*
X726137Y136874D01*
X726127Y136742D01*
X726113Y136609D01*
X726095Y136478D01*
X726074Y136346D01*
X726048Y136216D01*
X726018Y136086D01*
X725985Y135957D01*
X725948Y135830D01*
X725906Y135703D01*
X725862Y135578D01*
X725813Y135454D01*
X725761Y135332D01*
X725705Y135211D01*
X725645Y135092D01*
X725582Y134975D01*
X725516Y134860D01*
X725446Y134747D01*
X725373Y134636D01*
X725296Y134527D01*
X725216Y134421D01*
X725133Y134317D01*
X725047Y134215D01*
X724958Y134117D01*
X724867Y134021D01*
X724772Y133927D01*
X724674Y133837D01*
X724574Y133749D01*
X724471Y133665D01*
X724366Y133583D01*
X724259Y133505D01*
X724149Y133430D01*
X724037Y133359D01*
X723922Y133291D01*
X723806Y133226D01*
X723688Y133164D01*
X723568Y133107D01*
X723447Y133053D01*
X723324Y133002D01*
X723199Y132956D01*
X723074Y132913D01*
X722946Y132873D01*
X722818Y132838D01*
X722689Y132806D01*
X722559Y132779D01*
X722428Y132755D01*
X722297Y132735D01*
X722165Y132719D01*
X722032Y132707D01*
X721899Y132699D01*
X721766Y132695D01*
X721634Y132695D01*
X721501Y132699D01*
X721368Y132707D01*
X721235Y132719D01*
X721103Y132735D01*
X720972Y132755D01*
X720841Y132779D01*
X720711Y132806D01*
X720582Y132838D01*
X720454Y132873D01*
X720326Y132913D01*
X720201Y132956D01*
X720076Y133002D01*
X719953Y133053D01*
X719832Y133107D01*
X719712Y133164D01*
X719594Y133226D01*
X719477Y133291D01*
X719363Y133359D01*
X719251Y133430D01*
X719141Y133505D01*
X719034Y133583D01*
X718929Y133665D01*
X718826Y133749D01*
X718726Y133837D01*
X718628Y133927D01*
X718533Y134021D01*
X718442Y134117D01*
X718353Y134215D01*
X718267Y134317D01*
X718184Y134421D01*
X718104Y134527D01*
X718027Y134636D01*
X717954Y134747D01*
X717884Y134860D01*
X717818Y134975D01*
X717755Y135092D01*
X717695Y135211D01*
X717639Y135332D01*
X717587Y135454D01*
X717538Y135578D01*
X717494Y135703D01*
X717452Y135830D01*
X717415Y135957D01*
X717382Y136086D01*
X717352Y136216D01*
X717326Y136346D01*
X717305Y136478D01*
X717287Y136609D01*
X717273Y136742D01*
X717263Y136874D01*
X717257Y137007D01*
X717255Y137140D01*
X717255Y157460D02*
X717257Y157593D01*
X717263Y157726D01*
X717273Y157858D01*
X717287Y157991D01*
X717305Y158122D01*
X717326Y158254D01*
X717352Y158384D01*
X717382Y158514D01*
X717415Y158643D01*
X717452Y158770D01*
X717494Y158897D01*
X717538Y159022D01*
X717587Y159146D01*
X717639Y159268D01*
X717695Y159389D01*
X717755Y159508D01*
X717818Y159625D01*
X717884Y159740D01*
X717954Y159853D01*
X718027Y159964D01*
X718104Y160073D01*
X718184Y160179D01*
X718267Y160283D01*
X718353Y160385D01*
X718442Y160483D01*
X718533Y160579D01*
X718628Y160673D01*
X718726Y160763D01*
X718826Y160851D01*
X718929Y160935D01*
X719034Y161017D01*
X719141Y161095D01*
X719251Y161170D01*
X719363Y161241D01*
X719478Y161309D01*
X719594Y161374D01*
X719712Y161436D01*
X719832Y161493D01*
X719953Y161547D01*
X720076Y161598D01*
X720201Y161644D01*
X720326Y161687D01*
X720454Y161727D01*
X720582Y161762D01*
X720711Y161794D01*
X720841Y161821D01*
X720972Y161845D01*
X721103Y161865D01*
X721235Y161881D01*
X721368Y161893D01*
X721501Y161901D01*
X721634Y161905D01*
X721766Y161905D01*
X721899Y161901D01*
X722032Y161893D01*
X722165Y161881D01*
X722297Y161865D01*
X722428Y161845D01*
X722559Y161821D01*
X722689Y161794D01*
X722818Y161762D01*
X722946Y161727D01*
X723074Y161687D01*
X723199Y161644D01*
X723324Y161598D01*
X723447Y161547D01*
X723568Y161493D01*
X723688Y161436D01*
X723806Y161374D01*
X723923Y161309D01*
X724037Y161241D01*
X724149Y161170D01*
X724259Y161095D01*
X724366Y161017D01*
X724471Y160935D01*
X724574Y160851D01*
X724674Y160763D01*
X724772Y160673D01*
X724867Y160579D01*
X724958Y160483D01*
X725047Y160385D01*
X725133Y160283D01*
X725216Y160179D01*
X725296Y160073D01*
X725373Y159964D01*
X725446Y159853D01*
X725516Y159740D01*
X725582Y159625D01*
X725645Y159508D01*
X725705Y159389D01*
X725761Y159268D01*
X725813Y159146D01*
X725862Y159022D01*
X725906Y158897D01*
X725948Y158770D01*
X725985Y158643D01*
X726018Y158514D01*
X726048Y158384D01*
X726074Y158254D01*
X726095Y158122D01*
X726113Y157991D01*
X726127Y157858D01*
X726137Y157726D01*
X726143Y157593D01*
X726145Y157460D01*
X726143Y157327D01*
X726137Y157194D01*
X726127Y157062D01*
X726113Y156929D01*
X726095Y156798D01*
X726074Y156666D01*
X726048Y156536D01*
X726018Y156406D01*
X725985Y156277D01*
X725948Y156150D01*
X725906Y156023D01*
X725862Y155898D01*
X725813Y155774D01*
X725761Y155652D01*
X725705Y155531D01*
X725645Y155412D01*
X725582Y155295D01*
X725516Y155180D01*
X725446Y155067D01*
X725373Y154956D01*
X725296Y154847D01*
X725216Y154741D01*
X725133Y154637D01*
X725047Y154535D01*
X724958Y154437D01*
X724867Y154341D01*
X724772Y154247D01*
X724674Y154157D01*
X724574Y154069D01*
X724471Y153985D01*
X724366Y153903D01*
X724259Y153825D01*
X724149Y153750D01*
X724037Y153679D01*
X723922Y153611D01*
X723806Y153546D01*
X723688Y153484D01*
X723568Y153427D01*
X723447Y153373D01*
X723324Y153322D01*
X723199Y153276D01*
X723074Y153233D01*
X722946Y153193D01*
X722818Y153158D01*
X722689Y153126D01*
X722559Y153099D01*
X722428Y153075D01*
X722297Y153055D01*
X722165Y153039D01*
X722032Y153027D01*
X721899Y153019D01*
X721766Y153015D01*
X721634Y153015D01*
X721501Y153019D01*
X721368Y153027D01*
X721235Y153039D01*
X721103Y153055D01*
X720972Y153075D01*
X720841Y153099D01*
X720711Y153126D01*
X720582Y153158D01*
X720454Y153193D01*
X720326Y153233D01*
X720201Y153276D01*
X720076Y153322D01*
X719953Y153373D01*
X719832Y153427D01*
X719712Y153484D01*
X719594Y153546D01*
X719477Y153611D01*
X719363Y153679D01*
X719251Y153750D01*
X719141Y153825D01*
X719034Y153903D01*
X718929Y153985D01*
X718826Y154069D01*
X718726Y154157D01*
X718628Y154247D01*
X718533Y154341D01*
X718442Y154437D01*
X718353Y154535D01*
X718267Y154637D01*
X718184Y154741D01*
X718104Y154847D01*
X718027Y154956D01*
X717954Y155067D01*
X717884Y155180D01*
X717818Y155295D01*
X717755Y155412D01*
X717695Y155531D01*
X717639Y155652D01*
X717587Y155774D01*
X717538Y155898D01*
X717494Y156023D01*
X717452Y156150D01*
X717415Y156277D01*
X717382Y156406D01*
X717352Y156536D01*
X717326Y156666D01*
X717305Y156798D01*
X717287Y156929D01*
X717273Y157062D01*
X717263Y157194D01*
X717257Y157327D01*
X717255Y157460D01*
X711658Y505000D02*
X711660Y505152D01*
X711666Y505304D01*
X711676Y505456D01*
X711690Y505608D01*
X711708Y505759D01*
X711729Y505910D01*
X711755Y506060D01*
X711785Y506210D01*
X711818Y506358D01*
X711855Y506506D01*
X711897Y506653D01*
X711942Y506798D01*
X711990Y506942D01*
X712043Y507085D01*
X712099Y507227D01*
X712159Y507367D01*
X712222Y507505D01*
X712290Y507642D01*
X712360Y507777D01*
X712434Y507910D01*
X712512Y508041D01*
X712593Y508170D01*
X712677Y508297D01*
X712765Y508422D01*
X712856Y508544D01*
X712950Y508664D01*
X713047Y508781D01*
X713147Y508896D01*
X713250Y509008D01*
X713356Y509117D01*
X713464Y509224D01*
X713576Y509328D01*
X713690Y509429D01*
X713807Y509526D01*
X713926Y509621D01*
X714048Y509713D01*
X714172Y509801D01*
X714298Y509886D01*
X714426Y509968D01*
X714557Y510047D01*
X714690Y510122D01*
X714824Y510193D01*
X714960Y510261D01*
X715098Y510326D01*
X715238Y510386D01*
X715379Y510443D01*
X715522Y510497D01*
X715666Y510547D01*
X715811Y510593D01*
X715957Y510635D01*
X716105Y510673D01*
X716253Y510707D01*
X716402Y510738D01*
X716552Y510765D01*
X716703Y510787D01*
X716854Y510806D01*
X717006Y510821D01*
X717158Y510832D01*
X717310Y510839D01*
X717462Y510842D01*
X717614Y510841D01*
X717766Y510836D01*
X717918Y510827D01*
X718070Y510814D01*
X718222Y510797D01*
X718372Y510776D01*
X718523Y510752D01*
X718672Y510723D01*
X718821Y510691D01*
X718969Y510654D01*
X719116Y510614D01*
X719262Y510570D01*
X719406Y510522D01*
X719550Y510471D01*
X719692Y510415D01*
X719832Y510356D01*
X719971Y510294D01*
X720108Y510228D01*
X720243Y510158D01*
X720377Y510085D01*
X720508Y510008D01*
X720638Y509928D01*
X720765Y509844D01*
X720891Y509757D01*
X721013Y509667D01*
X721134Y509574D01*
X721252Y509478D01*
X721367Y509379D01*
X721480Y509276D01*
X721590Y509171D01*
X721698Y509063D01*
X721802Y508952D01*
X721904Y508839D01*
X722002Y508723D01*
X722098Y508604D01*
X722190Y508483D01*
X722279Y508359D01*
X722365Y508234D01*
X722448Y508106D01*
X722527Y507976D01*
X722603Y507844D01*
X722676Y507710D01*
X722744Y507574D01*
X722810Y507436D01*
X722871Y507297D01*
X722930Y507156D01*
X722984Y507014D01*
X723035Y506870D01*
X723081Y506725D01*
X723124Y506579D01*
X723164Y506432D01*
X723199Y506284D01*
X723231Y506135D01*
X723258Y505985D01*
X723282Y505835D01*
X723302Y505684D01*
X723318Y505532D01*
X723330Y505381D01*
X723338Y505228D01*
X723342Y505076D01*
X723342Y504924D01*
X723338Y504772D01*
X723330Y504619D01*
X723318Y504468D01*
X723302Y504316D01*
X723282Y504165D01*
X723258Y504015D01*
X723231Y503865D01*
X723199Y503716D01*
X723164Y503568D01*
X723124Y503421D01*
X723081Y503275D01*
X723035Y503130D01*
X722984Y502986D01*
X722930Y502844D01*
X722871Y502703D01*
X722810Y502564D01*
X722744Y502426D01*
X722676Y502290D01*
X722603Y502156D01*
X722527Y502024D01*
X722448Y501894D01*
X722365Y501766D01*
X722279Y501641D01*
X722190Y501517D01*
X722098Y501396D01*
X722002Y501277D01*
X721904Y501161D01*
X721802Y501048D01*
X721698Y500937D01*
X721590Y500829D01*
X721480Y500724D01*
X721367Y500621D01*
X721252Y500522D01*
X721134Y500426D01*
X721013Y500333D01*
X720891Y500243D01*
X720765Y500156D01*
X720638Y500072D01*
X720508Y499992D01*
X720377Y499915D01*
X720243Y499842D01*
X720108Y499772D01*
X719971Y499706D01*
X719832Y499644D01*
X719692Y499585D01*
X719550Y499529D01*
X719406Y499478D01*
X719262Y499430D01*
X719116Y499386D01*
X718969Y499346D01*
X718821Y499309D01*
X718672Y499277D01*
X718523Y499248D01*
X718372Y499224D01*
X718222Y499203D01*
X718070Y499186D01*
X717918Y499173D01*
X717766Y499164D01*
X717614Y499159D01*
X717462Y499158D01*
X717310Y499161D01*
X717158Y499168D01*
X717006Y499179D01*
X716854Y499194D01*
X716703Y499213D01*
X716552Y499235D01*
X716402Y499262D01*
X716253Y499293D01*
X716105Y499327D01*
X715957Y499365D01*
X715811Y499407D01*
X715666Y499453D01*
X715522Y499503D01*
X715379Y499557D01*
X715238Y499614D01*
X715098Y499674D01*
X714960Y499739D01*
X714824Y499807D01*
X714690Y499878D01*
X714557Y499953D01*
X714426Y500032D01*
X714298Y500114D01*
X714172Y500199D01*
X714048Y500287D01*
X713926Y500379D01*
X713807Y500474D01*
X713690Y500571D01*
X713576Y500672D01*
X713464Y500776D01*
X713356Y500883D01*
X713250Y500992D01*
X713147Y501104D01*
X713047Y501219D01*
X712950Y501336D01*
X712856Y501456D01*
X712765Y501578D01*
X712677Y501703D01*
X712593Y501830D01*
X712512Y501959D01*
X712434Y502090D01*
X712360Y502223D01*
X712290Y502358D01*
X712222Y502495D01*
X712159Y502633D01*
X712099Y502773D01*
X712043Y502915D01*
X711990Y503058D01*
X711942Y503202D01*
X711897Y503347D01*
X711855Y503494D01*
X711818Y503642D01*
X711785Y503790D01*
X711755Y503940D01*
X711729Y504090D01*
X711708Y504241D01*
X711690Y504392D01*
X711676Y504544D01*
X711666Y504696D01*
X711660Y504848D01*
X711658Y505000D01*
X686658Y505000D02*
X686660Y505152D01*
X686666Y505304D01*
X686676Y505456D01*
X686690Y505608D01*
X686708Y505759D01*
X686729Y505910D01*
X686755Y506060D01*
X686785Y506210D01*
X686818Y506358D01*
X686855Y506506D01*
X686897Y506653D01*
X686942Y506798D01*
X686990Y506942D01*
X687043Y507085D01*
X687099Y507227D01*
X687159Y507367D01*
X687222Y507505D01*
X687290Y507642D01*
X687360Y507777D01*
X687434Y507910D01*
X687512Y508041D01*
X687593Y508170D01*
X687677Y508297D01*
X687765Y508422D01*
X687856Y508544D01*
X687950Y508664D01*
X688047Y508781D01*
X688147Y508896D01*
X688250Y509008D01*
X688356Y509117D01*
X688464Y509224D01*
X688576Y509328D01*
X688690Y509429D01*
X688807Y509526D01*
X688926Y509621D01*
X689048Y509713D01*
X689172Y509801D01*
X689298Y509886D01*
X689426Y509968D01*
X689557Y510047D01*
X689690Y510122D01*
X689824Y510193D01*
X689960Y510261D01*
X690098Y510326D01*
X690238Y510386D01*
X690379Y510443D01*
X690522Y510497D01*
X690666Y510547D01*
X690811Y510593D01*
X690957Y510635D01*
X691105Y510673D01*
X691253Y510707D01*
X691402Y510738D01*
X691552Y510765D01*
X691703Y510787D01*
X691854Y510806D01*
X692006Y510821D01*
X692158Y510832D01*
X692310Y510839D01*
X692462Y510842D01*
X692614Y510841D01*
X692766Y510836D01*
X692918Y510827D01*
X693070Y510814D01*
X693222Y510797D01*
X693372Y510776D01*
X693523Y510752D01*
X693672Y510723D01*
X693821Y510691D01*
X693969Y510654D01*
X694116Y510614D01*
X694262Y510570D01*
X694406Y510522D01*
X694550Y510471D01*
X694692Y510415D01*
X694832Y510356D01*
X694971Y510294D01*
X695108Y510228D01*
X695243Y510158D01*
X695377Y510085D01*
X695508Y510008D01*
X695638Y509928D01*
X695765Y509844D01*
X695891Y509757D01*
X696013Y509667D01*
X696134Y509574D01*
X696252Y509478D01*
X696367Y509379D01*
X696480Y509276D01*
X696590Y509171D01*
X696698Y509063D01*
X696802Y508952D01*
X696904Y508839D01*
X697002Y508723D01*
X697098Y508604D01*
X697190Y508483D01*
X697279Y508359D01*
X697365Y508234D01*
X697448Y508106D01*
X697527Y507976D01*
X697603Y507844D01*
X697676Y507710D01*
X697744Y507574D01*
X697810Y507436D01*
X697871Y507297D01*
X697930Y507156D01*
X697984Y507014D01*
X698035Y506870D01*
X698081Y506725D01*
X698124Y506579D01*
X698164Y506432D01*
X698199Y506284D01*
X698231Y506135D01*
X698258Y505985D01*
X698282Y505835D01*
X698302Y505684D01*
X698318Y505532D01*
X698330Y505381D01*
X698338Y505228D01*
X698342Y505076D01*
X698342Y504924D01*
X698338Y504772D01*
X698330Y504619D01*
X698318Y504468D01*
X698302Y504316D01*
X698282Y504165D01*
X698258Y504015D01*
X698231Y503865D01*
X698199Y503716D01*
X698164Y503568D01*
X698124Y503421D01*
X698081Y503275D01*
X698035Y503130D01*
X697984Y502986D01*
X697930Y502844D01*
X697871Y502703D01*
X697810Y502564D01*
X697744Y502426D01*
X697676Y502290D01*
X697603Y502156D01*
X697527Y502024D01*
X697448Y501894D01*
X697365Y501766D01*
X697279Y501641D01*
X697190Y501517D01*
X697098Y501396D01*
X697002Y501277D01*
X696904Y501161D01*
X696802Y501048D01*
X696698Y500937D01*
X696590Y500829D01*
X696480Y500724D01*
X696367Y500621D01*
X696252Y500522D01*
X696134Y500426D01*
X696013Y500333D01*
X695891Y500243D01*
X695765Y500156D01*
X695638Y500072D01*
X695508Y499992D01*
X695377Y499915D01*
X695243Y499842D01*
X695108Y499772D01*
X694971Y499706D01*
X694832Y499644D01*
X694692Y499585D01*
X694550Y499529D01*
X694406Y499478D01*
X694262Y499430D01*
X694116Y499386D01*
X693969Y499346D01*
X693821Y499309D01*
X693672Y499277D01*
X693523Y499248D01*
X693372Y499224D01*
X693222Y499203D01*
X693070Y499186D01*
X692918Y499173D01*
X692766Y499164D01*
X692614Y499159D01*
X692462Y499158D01*
X692310Y499161D01*
X692158Y499168D01*
X692006Y499179D01*
X691854Y499194D01*
X691703Y499213D01*
X691552Y499235D01*
X691402Y499262D01*
X691253Y499293D01*
X691105Y499327D01*
X690957Y499365D01*
X690811Y499407D01*
X690666Y499453D01*
X690522Y499503D01*
X690379Y499557D01*
X690238Y499614D01*
X690098Y499674D01*
X689960Y499739D01*
X689824Y499807D01*
X689690Y499878D01*
X689557Y499953D01*
X689426Y500032D01*
X689298Y500114D01*
X689172Y500199D01*
X689048Y500287D01*
X688926Y500379D01*
X688807Y500474D01*
X688690Y500571D01*
X688576Y500672D01*
X688464Y500776D01*
X688356Y500883D01*
X688250Y500992D01*
X688147Y501104D01*
X688047Y501219D01*
X687950Y501336D01*
X687856Y501456D01*
X687765Y501578D01*
X687677Y501703D01*
X687593Y501830D01*
X687512Y501959D01*
X687434Y502090D01*
X687360Y502223D01*
X687290Y502358D01*
X687222Y502495D01*
X687159Y502633D01*
X687099Y502773D01*
X687043Y502915D01*
X686990Y503058D01*
X686942Y503202D01*
X686897Y503347D01*
X686855Y503494D01*
X686818Y503642D01*
X686785Y503790D01*
X686755Y503940D01*
X686729Y504090D01*
X686708Y504241D01*
X686690Y504392D01*
X686676Y504544D01*
X686666Y504696D01*
X686660Y504848D01*
X686658Y505000D01*
D11*
X0Y115000D02*
X90000Y115000D01*
X92615Y114886D01*
X95209Y114544D01*
X97765Y113978D01*
X100261Y113191D01*
X102679Y112189D01*
X105000Y110981D01*
X107207Y109575D01*
X109284Y107981D01*
X111213Y106213D01*
X112981Y104284D01*
X114575Y102207D01*
X115981Y100000D01*
X117189Y97679D01*
X118191Y95261D01*
X118978Y92765D01*
X119544Y90209D01*
X119886Y87615D01*
X120000Y85000D01*
X120000Y0D01*
X790000Y0D01*
X790000Y85000D01*
X790114Y87615D01*
X790456Y90209D01*
X791022Y92765D01*
X791809Y95261D01*
X792811Y97679D01*
X794019Y100000D01*
X795425Y102207D01*
X797019Y104284D01*
X798787Y106213D01*
X800716Y107981D01*
X802793Y109575D01*
X805000Y110981D01*
X807321Y112189D01*
X809739Y113191D01*
X812235Y113978D01*
X814791Y114544D01*
X817385Y114886D01*
X820000Y115000D01*
X910000Y115000D01*
X910000Y455000D01*
X820000Y455000D01*
X817385Y455114D01*
X814791Y455456D01*
X812235Y456022D01*
X809739Y456809D01*
X807321Y457811D01*
X805000Y459019D01*
X802793Y460425D01*
X800716Y462019D01*
X798787Y463787D01*
X797019Y465716D01*
X795425Y467793D01*
X794019Y470000D01*
X792811Y472321D01*
X791809Y474739D01*
X791022Y477235D01*
X790456Y479791D01*
X790114Y482385D01*
X790000Y485000D01*
X790000Y570000D01*
X275505Y570000D01*
X275388Y570003D01*
X275214Y570021D01*
X275043Y570054D01*
X274875Y570102D01*
X274712Y570164D01*
X274555Y570240D01*
X274405Y570330D01*
X274264Y570432D01*
X274132Y570546D01*
X274010Y570671D01*
X273900Y570807D01*
X260000Y589500D01*
X170000Y589500D01*
X156100Y570807D01*
X156027Y570714D01*
X155909Y570586D01*
X155780Y570468D01*
X155642Y570362D01*
X155495Y570268D01*
X155340Y570187D01*
X155179Y570121D01*
X155012Y570068D01*
X154842Y570030D01*
X154669Y570008D01*
X154495Y570000D01*
X120000Y570000D01*
X120000Y485000D01*
X119886Y482385D01*
X119544Y479791D01*
X118978Y477235D01*
X118191Y474739D01*
X117189Y472321D01*
X115981Y470000D01*
X114575Y467793D01*
X112981Y465716D01*
X111213Y463787D01*
X109284Y462019D01*
X107207Y460425D01*
X105000Y459019D01*
X102679Y457811D01*
X100261Y456809D01*
X97765Y456022D01*
X95209Y455456D01*
X92615Y455114D01*
X90000Y455000D01*
X0Y455000D01*
X0Y115000D01*
M02*
