M48
;GenerationSoftware,Autodesk,EAGLE,9.6.2*%
;CreationDate,2021-10-20T09:31:47Z*%
FMAT,2
ICI,OFF
METRIC,TZ,000.000
T8C0.305
T7C0.380
T6C0.600
T5C0.890
T4C1.000
T3C1.020
T2C1.400
T1C1.630
%
G90
M71
T1
X32755Y47450
X48245Y47450
T2
X64100Y52750
X56900Y52750
T3
X47125Y55400
X44585Y55400
X36415Y55400
X33875Y55400
T4
X62750Y55250
X58250Y55250
T5
X36060Y41610
X44950Y44150
X42500Y44150
X39870Y44150
X37330Y44150
X43680Y41610
X41140Y41610
X38600Y41610
T6
X17900Y57400
X25100Y57400
X18200Y54600
X24800Y54600
T7
X43500Y6000
X43500Y1000
X1050Y18950
X6050Y20950
X1050Y20950
X6050Y22950
X1050Y22950
X6050Y24950
X27500Y1000
X6050Y26950
X1050Y26950
X6050Y28950
X1050Y28950
X6050Y30950
X1050Y30950
X6050Y32950
X1050Y32950
X6050Y34950
X1050Y34950
X6050Y36950
X1050Y36950
X25500Y1000
X27500Y6000
X29500Y6000
X29500Y1000
X31500Y6000
X31500Y1000
X33500Y6000
X33500Y1000
X35500Y6000
X1050Y24950
X35500Y1000
X37500Y6000
X37500Y1000
X39500Y6000
X39500Y1000
X41500Y6000
X41500Y1000
T8
X41850Y36741
X40250Y24470
X56883Y20350
X41040Y25010
X57750Y20550
X39680Y23950
X57700Y19800
X42000Y15100
X39300Y26000
X42150Y24710
X60650Y26000
X43100Y36791
X41750Y34913
X44250Y21500
X44250Y32000
X43050Y16500
X40100Y27800
X40000Y16050
X32250Y39750
X32850Y39150
X42800Y27200
X16800Y23600
X25250Y20400
X22300Y21500
X41300Y36200
X38500Y35500
X78000Y23500
X70000Y17500
X79500Y18000
X74500Y17000
X28500Y16500
X20500Y43800
X81900Y38000
X72200Y21600
X71100Y41500
X72900Y21600
X71600Y42100
X78300Y17500
X73900Y16400
X74000Y47950
X71100Y17300
X73500Y48500
X71100Y18000
X22500Y22467
X49000Y18700
X60500Y24650
X27500Y50600
X28500Y50600
X29500Y50600
X29500Y51600
X28500Y51600
X27500Y51600
X69500Y46500
X68800Y47200
X69500Y47200
X70200Y47200
X67700Y18000
X72200Y28100
X69900Y22000
X72200Y29100
X21400Y51400
X20800Y52500
X54800Y42850
X54500Y45500
X56600Y45194
X54100Y49400
X48171Y52262
X54650Y48850
X47450Y52300
X61450Y42450
X58200Y48950
X62110Y42140
X57500Y49000
X39500Y40500
X72100Y41500
X75750Y22200
X70200Y34400
X32500Y36500
X62500Y34400
X65200Y35900
X49350Y23800
X60350Y23600
X43500Y19500
X42500Y21500
X42500Y20500
X41500Y20500
X40500Y20500
X40500Y21500
X41500Y21500
X41500Y22500
X42500Y22500
X40500Y22500
X42500Y31000
X41500Y31000
X40500Y31000
X40500Y32000
X41500Y32000
X42500Y32000
X58000Y22500
X58000Y23500
X58000Y24500
X58000Y25500
X58000Y26500
X58000Y27500
X57000Y27500
X56000Y27500
X55000Y27500
X53000Y26500
X53000Y25500
X53000Y24500
X53000Y23500
X53000Y22500
X54000Y22500
X55000Y22500
X56000Y22500
X57000Y22500
X57000Y23500
X56000Y23500
X55000Y23500
X54000Y23500
X54000Y24500
X55000Y24500
X56000Y24500
X57000Y24500
X56000Y25500
X57000Y25500
X57000Y26500
X56000Y26500
X55000Y26500
X54000Y26500
X54000Y25500
X55000Y25500
X27000Y29000
X27500Y28500
X27500Y29500
X26500Y29500
X26500Y28500
X43500Y30000
X49300Y27200
X43700Y26800
X57600Y32150
X56550Y32150
X55550Y32150
X39100Y27850
X62970Y27270
X63490Y22980
X46550Y21650
X55850Y17750
X54100Y17700
X54000Y27500
X53000Y27500
X59500Y12800
X60500Y12800
X61500Y12800
X62500Y12800
X63500Y12800
X64500Y12800
X65500Y12800
X66500Y12800
X74500Y12800
X58500Y12800
X57500Y12800
X56500Y12800
X55500Y12800
X54500Y12800
X53500Y12800
X52500Y12800
X51500Y12800
X50500Y12800
X49500Y12800
X48500Y12800
X47500Y12800
X46500Y12800
X45500Y12800
X44500Y12800
X43500Y12800
X42500Y12800
X41500Y12800
X40500Y12800
X70500Y12800
X53300Y18500
X39500Y12800
X38500Y12800
X37500Y12800
X36500Y12800
X35500Y12800
X34500Y12800
X33500Y12800
X32500Y12800
X31500Y12800
X30500Y12800
X29500Y12800
X28500Y12800
X22500Y12800
X21500Y12800
X20500Y12800
X17500Y12800
X16500Y12800
X78000Y25350
X73950Y30050
X73950Y28900
X74850Y28900
X12800Y22500
X12800Y23500
X12800Y24500
X12800Y28500
X12800Y29500
X70200Y48700
X22200Y35300
X20500Y40800
X23000Y39850
X12800Y30500
X12800Y31500
X12800Y32500
X12800Y33500
X12800Y34500
X12800Y35500
X12800Y36500
X12800Y37500
X12800Y38500
X12800Y39500
X12800Y40500
X12800Y41500
X12780Y42110
X12780Y43890
X12800Y44600
X12800Y45500
X12800Y46500
X12800Y47500
X12800Y48500
X12800Y49500
X12800Y50500
X78500Y12800
X79500Y12800
X80500Y12800
X81500Y12800
X82500Y12800
X83500Y12800
X84200Y13500
X84200Y14500
X84200Y15500
X84200Y16500
X84200Y17500
X84200Y18500
X84200Y19500
X84200Y20500
X84200Y21500
X84200Y22500
X84200Y23500
X84200Y24500
X84200Y25500
X84200Y26500
X84200Y27500
X84200Y28500
X84200Y29500
X84200Y30500
X84200Y31500
X84200Y32500
X84200Y33500
X84200Y34500
X84200Y35500
X84200Y36500
X84200Y39500
X84200Y40500
X84200Y41500
X84200Y42500
X84200Y43500
X84200Y44900
X52650Y36250
X51500Y37000
X48650Y43000
X54500Y52500
X54500Y53500
X61750Y48200
X12800Y51500
X12800Y52500
X12800Y53500
X12800Y54500
X12800Y55500
X12800Y56500
X13500Y56500
X14500Y56500
X20200Y20400
X20500Y30800
X21500Y31800
X22500Y31800
X23500Y31800
X24400Y31800
X25400Y30800
X18500Y31800
X17500Y30800
X17500Y29800
X17500Y28800
X17500Y27800
X17500Y25800
X17500Y24800
X17500Y31800
X19500Y31800
X19500Y30800
X20500Y31800
X19500Y28800
X19500Y27800
X19500Y26800
X19500Y25800
X19500Y24800
X20500Y28800
X21500Y28800
X22500Y28800
X23500Y28800
X23400Y26750
X21500Y27800
X20500Y26800
X20500Y25800
X21500Y24800
X22500Y24800
X23500Y24800
X24400Y24800
X20500Y24800
X20500Y27800
X24400Y32800
X24400Y33800
X24400Y34800
X25400Y34800
X26400Y34800
X27400Y34800
X28250Y34800
X29000Y35200
X28900Y33500
X28900Y32500
X31800Y25900
X31800Y24900
X31800Y23900
X32100Y21800
X32100Y20800
X32100Y19800
X32800Y18900
X34100Y18700
X33800Y17900
X34800Y17900
X35800Y17900
X34100Y20700
X35100Y20700
X35100Y21700
X35100Y22700
X35100Y23700
X35100Y24700
X35100Y25700
X34100Y21700
X34100Y22700
X34100Y23700
X34100Y24700
X34100Y26700
X35100Y26700
X38100Y24700
X38100Y25700
X28800Y26900
X33100Y28700
X32100Y28700
X33100Y30400
X32100Y30400
X34100Y30400
X35100Y30400
X35100Y31400
X35100Y32400
X38000Y29800
X38000Y28800
X37000Y28800
X39000Y29800
X38000Y27800
X37000Y27800
X37000Y26800
X37000Y25800
X28150Y31600
X26500Y32500
X16800Y21950
X20500Y18500
X23500Y18500
X21200Y20400
X22200Y20400
X23200Y20400
X22500Y19500
X19700Y24000
X18500Y22100
X25600Y27600
X25150Y26800
X22000Y45900
X21700Y42150
X27400Y39400
X25500Y39400
X30400Y38850
X30400Y43450
X50550Y17400
X46550Y19400
X37000Y16000
X50500Y36150
X45000Y16950
X46400Y16800
X39100Y14950
X33500Y14500
X30500Y17500
X29400Y18550
X26500Y18500
X27500Y17500
X24100Y24100
X24500Y19500
X24100Y23100
X23100Y22100
X28950Y23250
X28950Y24950
X28500Y37500
X32500Y37500
X33500Y43500
X28500Y43500
X27500Y53900
X20400Y49000
X15750Y25000
X22500Y23500
X42100Y26250
X46700Y26900
X46750Y32150
X39500Y36900
X37500Y36950
X38950Y34950
X51500Y45500
X66500Y51900
X67500Y51500
X67350Y33700
X35100Y29600
X53300Y31500
X51800Y31850
X49500Y45500
X55000Y18400
X51080Y21850
X49300Y21750
X49500Y28500
X49500Y29500
X55600Y34950
X50750Y34900
X49100Y36900
X63050Y32300
X60700Y35250
X60000Y18850
X64940Y19160
X65950Y18250
X69000Y26500
X82450Y32800
X83050Y31900
X77800Y32800
X74700Y40800
X28500Y45500
X27500Y46500
X24500Y46500
X30500Y48500
X32500Y44500
X25500Y52500
X19400Y41900
X18500Y35500
X15500Y35500
X15500Y41200
X17600Y39800
X17500Y43500
X15500Y32500
X17500Y33500
X15500Y29500
X15950Y28400
X18500Y33500
X20500Y33500
X33500Y32500
X38600Y23260
X38500Y16050
X19500Y54350
X20200Y53550
X15500Y56500
X28950Y22250
X33600Y27500
X24500Y17500
X22500Y16500
X21500Y17500
X23500Y12800
X24500Y12800
X28500Y13800
X69000Y32000
X72700Y35000
X79800Y14500
X82500Y14500
X46900Y30250
X21600Y14500
X22500Y14500
X23500Y13500
X12850Y12850
X66500Y13800
X16800Y16500
X16500Y13800
X30500Y13800
X32500Y13800
X34500Y13800
X36900Y14950
X18500Y40500
X13800Y23500
X13800Y31500
X13800Y33500
X13800Y35500
X13800Y37500
X13800Y39500
X13800Y45500
X13800Y47500
X14300Y49500
X15800Y44500
X83350Y44900
X77500Y49500
X75500Y51200
X74500Y56500
X54500Y56500
X55500Y56500
X56500Y56500
X57500Y56500
X58500Y56500
X59500Y56500
X60500Y56500
X61500Y56500
X62500Y56500
X63500Y56500
X64500Y56500
X65500Y56500
X66500Y56500
X67500Y56500
X68500Y56500
X69500Y56500
X70500Y56500
X71500Y56500
X72500Y56500
X73500Y56500
X75500Y56500
X76500Y56500
X77500Y56500
X78500Y56500
X78500Y55500
X78500Y54500
X78500Y53500
X78500Y52500
X78500Y51500
X78500Y50500
X78500Y49500
X78500Y48500
X78500Y47500
X79600Y45800
X81450Y44900
X82450Y44900
X79000Y46500
X16500Y56500
X20500Y56500
X26500Y56500
X27500Y56500
X28500Y56500
X29500Y56500
X30500Y56500
X31500Y56500
X17500Y47500
X17500Y45500
X26500Y55500
X28500Y53900
X27500Y43500
X20900Y42950
X54500Y54500
X55500Y54500
X66300Y55100
X55500Y52500
X48650Y40000
X47300Y40150
X47500Y45500
X40500Y46500
X41900Y46950
X42900Y46950
X39500Y45500
X38500Y44500
X37500Y40500
X38500Y43500
X37500Y42500
X40500Y45500
X42050Y42800
X42500Y40000
X44650Y40000
X46250Y43950
X47650Y43450
X52650Y47000
X50650Y47000
X51650Y48000
X37500Y52000
X39900Y52000
X41500Y52000
X43000Y52000
X44350Y52000
X36350Y52000
X33600Y52250
X31500Y49500
X38700Y52000
X32500Y56500
X37500Y56500
X38500Y56500
X39500Y56500
X40500Y56500
X41500Y56500
X42500Y56500
X43500Y56500
X45500Y56500
X46500Y56500
X51500Y56500
X59100Y31200
X59100Y28550
X62100Y33200
X54500Y35500
X53100Y34900
X53900Y36650
X74500Y43500
X29150Y30050
X21950Y53050
X59600Y54600
X77900Y40200
X79800Y24300
X79500Y26000
X83400Y34900
X42000Y54950
X39300Y54950
X37800Y54950
X43200Y54950
X40700Y54950
X26500Y53500
X23500Y57800
X19500Y57800
X21500Y57800
X16400Y53500
X16400Y54900
X14300Y54900
X35500Y44500
X38500Y47500
X68200Y55100
X64800Y55100
X63510Y26060
X60000Y27300
X47600Y20300
X72700Y53900
X82300Y34900
X21200Y50100
X23000Y45900
X16400Y51700
X14300Y53400
X55500Y40150
X16200Y24050
X14800Y19950
X13800Y19950
X12800Y19950
X13800Y20950
X14800Y20950
X12800Y20950
X13800Y21950
X13800Y17950
X14800Y17950
X16800Y17950
X16800Y18950
X16800Y19950
X17800Y19950
X17800Y18950
X17700Y18150
X18000Y16650
X15800Y16950
X14800Y16950
X13800Y16950
X12800Y16950
X15800Y15950
X14800Y15950
X13800Y15950
X12800Y15950
X16500Y14800
X27500Y12800
X27500Y13800
X26500Y13800
X26500Y14800
X24500Y14800
X24500Y13800
X26500Y16800
X25500Y16800
X27500Y16800
X27500Y15800
X27500Y14800
X23500Y14800
X23500Y15800
X25500Y17800
X26500Y17800
X24500Y18500
X23500Y19500
X21500Y16500
X20500Y17500
X22500Y15500
X21600Y15500
X21600Y13500
X22500Y13500
X31500Y14500
X29500Y14500
X51350Y42850
X53350Y42850
X52350Y42850
X61800Y54500
X58150Y38150
X57500Y43650
X59500Y43650
X59500Y41650
X57500Y41650
X58500Y42650
X15190Y23320
X14500Y29500
X13600Y30000
X15500Y38500
X15500Y30500
X66900Y39900
X67900Y38900
X64700Y39400
X68000Y33000
X68000Y32000
X69000Y33000
X66200Y41200
X65600Y40500
X68000Y26500
X69000Y27500
X69000Y28500
X68000Y28400
X68000Y27500
X69000Y25500
X68000Y24500
X68000Y23500
X68000Y22800
X69000Y22500
X69000Y23500
X61500Y43950
X62200Y41000
X64000Y41000
X62200Y40000
X38500Y36900
X52500Y45500
X50500Y40500
X51500Y40500
X68250Y46150
X68650Y43850
X67350Y45000
X54500Y48150
X62750Y48200
X63750Y48200
X34700Y34500
X58500Y52500
X67350Y46150
X29500Y53900
X68100Y50550
X65500Y53500
X66800Y53500
X68500Y53700
X65500Y52500
X69350Y49250
X71050Y47900
X71100Y46800
X42500Y33000
X41500Y33000
X40500Y33000
X34500Y35500
X33500Y36500
X35800Y34650
X37650Y35900
X36500Y36950
X37050Y32950
X33500Y31500
X36050Y32950
X34050Y32950
X18500Y37500
X18500Y39500
X20500Y39500
X20500Y37500
X22500Y37500
X24500Y37500
X26500Y37500
X20500Y35500
X73950Y31050
X73900Y35000
X70500Y33500
X68850Y40250
X70550Y43650
X72800Y43250
X74550Y45000
X72500Y46250
X72050Y49000
X75550Y49850
X77500Y47550
X66900Y42250
X73300Y39200
X67850Y41200
X70450Y23450
X70950Y21900
X83250Y17750
X29500Y49500
X30500Y53900
X28500Y52500
X29500Y52500
X67500Y12800
X68500Y12800
X69500Y12800
X71500Y12800
X72500Y12800
X73500Y12800
X65885Y36520
X62010Y36120
X70330Y42070
X72205Y40265
X72805Y41835
X83050Y42850
X83050Y41850
X80400Y45300
X75550Y45000
X62500Y52500
X25400Y35800
X27400Y35800
X28400Y35800
X26400Y35800
X12800Y14950
X52200Y15000
X76139Y18061
X81700Y17900
X78300Y16600
X54330Y15220
X53030Y15220
X55630Y15220
X61000Y14900
X58700Y14900
X61000Y16300
X63300Y17800
X63500Y15100
X59200Y16700
X74800Y18000
X69000Y24500
X68000Y25500
X70000Y26100
X74500Y38100
X75100Y39300
X70400Y55200
X76000Y38600
X70050Y39450
X70050Y38050
X72450Y38050
X68700Y38100
X65700Y39300
X66300Y38600
X67000Y38000
X65600Y43650
X64500Y43650
X63500Y43650
X77400Y38500
X84200Y38400
X84200Y37500
X77800Y34500
X72950Y28900
X65850Y34600
X69000Y34800
X68000Y34900
X69000Y33900
X68000Y33900
X70300Y32000
X72400Y33800
X74850Y31050
X74850Y30050
X73950Y26900
X73950Y27800
X72950Y30050
X74850Y27800
X74850Y26900
X80200Y28100
X80200Y32900
X77950Y31050
X77950Y30050
X77950Y28900
X77950Y27900
X77950Y26900
X74850Y25700
X73950Y25700
X72950Y25700
X60500Y52500
X72950Y27800
X72250Y27300
X72250Y26300
X72250Y25300
X72950Y24600
X73950Y24600
X74850Y24600
X74850Y22900
X73950Y23700
X74850Y31950
X77950Y31950
X72100Y23200
X73000Y22300
X73900Y21200
X70300Y24700
X69900Y27500
X75100Y20900
X77900Y21100
X79000Y21100
X82200Y21100
X79700Y22900
X81200Y22100
X69250Y18050
X70150Y16550
X73250Y14650
X80400Y16700
X82100Y16100
X75600Y16500
X74200Y15700
X68000Y29070
X55000Y19700
X53200Y19800
X50700Y19400
X49000Y19600
X49700Y18500
X48800Y17800
X45000Y15400
X47900Y16900
X42800Y15050
X35900Y16100
X62310Y24660
X47090Y23780
X46900Y28600
X51300Y29580
X59100Y29800
X65000Y38000
X60900Y39000
X59450Y48500
X58700Y15700
X62300Y15100
X63500Y16500
X63500Y15800
X21100Y45900
X22000Y43750
X18600Y48600
X19500Y49500
X21900Y48000
X18900Y43200
X17500Y41700
X18700Y46800
X44200Y16150
X39680Y18750
X45700Y27500
X47000Y18300
X14300Y51700
X16400Y49500
X15600Y47700
X18500Y51700
X74700Y54500
X76700Y52800
X76800Y54800
X13400Y24800
X17100Y17300
X22400Y56500
X61200Y25500
X59900Y25900
X31900Y35500
X33000Y35300
X60700Y28700
X70100Y29000
X63477Y37277
X70100Y28300
X63500Y36500
X70600Y26950
X64500Y37300
X68500Y32500
X67000Y38800
X66765Y16065
X49350Y22800
X56500Y19000
X62000Y27300
X58950Y17850
X33050Y41650
X80600Y43000
X53500Y30500
X51500Y16350
X33750Y41650
X32350Y41650
X62800Y18600
X79900Y42750
X80600Y43700
X81300Y42750
X80700Y34900
X74400Y33500
X66000Y42800
X52200Y38500
X59900Y47100
X57150Y48400
X60350Y38150
X67300Y28500
X56500Y40500
X58950Y20200
X63300Y21600
X61150Y20580
X63500Y28500
X62300Y20000
X63510Y24100
X67900Y20900
X49300Y26200
X55500Y29500
X62000Y21500
X52200Y19100
X52200Y18000
X32500Y15500
X65100Y14150
X30050Y22150
X30800Y22150
X65650Y13850
X27000Y49000
X28200Y49000
X28150Y47850
X27600Y48400
X40250Y34900
X72950Y26900
M30