G04 EAGLE Gerber RS-274X export*
G75*
%MOMM*%
%FSLAX34Y34*%
%LPD*%
%INMechanicalPlated*%
%IPPOS*%
%AMOC8*
5,1,8,0,0,1.08239X$1,22.5*%
G01*
%ADD10C,0.000000*%
%ADD11C,0.254000*%


D10*
X248000Y570500D02*
X248012Y570397D01*
X248027Y570295D01*
X248046Y570194D01*
X248068Y570093D01*
X248095Y569993D01*
X248125Y569894D01*
X248159Y569797D01*
X248196Y569701D01*
X248237Y569606D01*
X248282Y569513D01*
X248330Y569421D01*
X248381Y569332D01*
X248436Y569244D01*
X248494Y569159D01*
X248555Y569075D01*
X248619Y568995D01*
X248686Y568916D01*
X248756Y568840D01*
X248829Y568767D01*
X248904Y568697D01*
X248982Y568629D01*
X249063Y568564D01*
X249146Y568503D01*
X249231Y568444D01*
X249318Y568389D01*
X249408Y568337D01*
X249499Y568289D01*
X249592Y568244D01*
X249686Y568202D01*
X249782Y568164D01*
X249880Y568130D01*
X249978Y568099D01*
X250078Y568072D01*
X250178Y568049D01*
X250280Y568029D01*
X250382Y568014D01*
X250484Y568002D01*
X250587Y567994D01*
X250691Y567990D01*
X250794Y567989D01*
X250897Y567993D01*
X251000Y568000D01*
X248000Y570500D02*
X248000Y577500D01*
X248012Y577603D01*
X248027Y577705D01*
X248046Y577806D01*
X248068Y577907D01*
X248095Y578007D01*
X248125Y578106D01*
X248159Y578203D01*
X248196Y578299D01*
X248237Y578394D01*
X248282Y578487D01*
X248330Y578579D01*
X248381Y578668D01*
X248436Y578756D01*
X248494Y578841D01*
X248555Y578925D01*
X248619Y579005D01*
X248686Y579084D01*
X248756Y579160D01*
X248829Y579233D01*
X248904Y579303D01*
X248982Y579371D01*
X249063Y579436D01*
X249146Y579497D01*
X249231Y579556D01*
X249318Y579611D01*
X249408Y579663D01*
X249499Y579711D01*
X249592Y579756D01*
X249686Y579798D01*
X249782Y579836D01*
X249880Y579870D01*
X249978Y579901D01*
X250078Y579928D01*
X250178Y579951D01*
X250280Y579971D01*
X250382Y579986D01*
X250484Y579998D01*
X250587Y580006D01*
X250691Y580010D01*
X250794Y580011D01*
X250897Y580007D01*
X251000Y580000D01*
X251103Y580007D01*
X251206Y580011D01*
X251309Y580010D01*
X251413Y580006D01*
X251516Y579998D01*
X251618Y579986D01*
X251720Y579971D01*
X251822Y579951D01*
X251922Y579928D01*
X252022Y579901D01*
X252120Y579870D01*
X252218Y579836D01*
X252314Y579798D01*
X252408Y579756D01*
X252501Y579711D01*
X252592Y579663D01*
X252682Y579611D01*
X252769Y579556D01*
X252854Y579497D01*
X252937Y579436D01*
X253018Y579371D01*
X253096Y579303D01*
X253171Y579233D01*
X253244Y579160D01*
X253314Y579084D01*
X253381Y579005D01*
X253445Y578925D01*
X253506Y578841D01*
X253564Y578756D01*
X253619Y578668D01*
X253670Y578579D01*
X253718Y578487D01*
X253763Y578394D01*
X253804Y578299D01*
X253841Y578203D01*
X253875Y578106D01*
X253905Y578007D01*
X253932Y577907D01*
X253954Y577806D01*
X253973Y577705D01*
X253988Y577603D01*
X254000Y577500D01*
X254000Y570500D01*
X253988Y570397D01*
X253973Y570295D01*
X253954Y570194D01*
X253932Y570093D01*
X253905Y569993D01*
X253875Y569894D01*
X253841Y569797D01*
X253804Y569701D01*
X253763Y569606D01*
X253718Y569513D01*
X253670Y569421D01*
X253619Y569332D01*
X253564Y569244D01*
X253506Y569159D01*
X253445Y569075D01*
X253381Y568995D01*
X253314Y568916D01*
X253244Y568840D01*
X253171Y568767D01*
X253096Y568697D01*
X253018Y568629D01*
X252937Y568564D01*
X252854Y568503D01*
X252769Y568444D01*
X252682Y568389D01*
X252592Y568337D01*
X252501Y568289D01*
X252408Y568244D01*
X252314Y568202D01*
X252218Y568164D01*
X252120Y568130D01*
X252022Y568099D01*
X251922Y568072D01*
X251822Y568049D01*
X251720Y568029D01*
X251618Y568014D01*
X251516Y568002D01*
X251413Y567994D01*
X251309Y567990D01*
X251206Y567989D01*
X251103Y567993D01*
X251000Y568000D01*
X180500Y549000D02*
X180393Y548998D01*
X180286Y548992D01*
X180179Y548983D01*
X180073Y548969D01*
X179967Y548952D01*
X179862Y548931D01*
X179758Y548907D01*
X179655Y548878D01*
X179553Y548846D01*
X179452Y548811D01*
X179352Y548772D01*
X179254Y548729D01*
X179157Y548683D01*
X179062Y548633D01*
X178969Y548580D01*
X178878Y548524D01*
X178789Y548464D01*
X178702Y548402D01*
X178618Y548336D01*
X178535Y548267D01*
X178456Y548196D01*
X178379Y548121D01*
X178304Y548044D01*
X178233Y547965D01*
X178164Y547882D01*
X178098Y547798D01*
X178036Y547711D01*
X177976Y547622D01*
X177920Y547531D01*
X177867Y547438D01*
X177817Y547343D01*
X177771Y547246D01*
X177728Y547148D01*
X177689Y547048D01*
X177654Y546947D01*
X177622Y546845D01*
X177593Y546742D01*
X177569Y546638D01*
X177548Y546533D01*
X177531Y546427D01*
X177517Y546321D01*
X177508Y546214D01*
X177502Y546107D01*
X177500Y546000D01*
X180500Y549000D02*
X183500Y549000D01*
X183607Y548998D01*
X183714Y548992D01*
X183821Y548983D01*
X183927Y548969D01*
X184033Y548952D01*
X184138Y548931D01*
X184242Y548907D01*
X184345Y548878D01*
X184447Y548846D01*
X184548Y548811D01*
X184648Y548772D01*
X184746Y548729D01*
X184843Y548683D01*
X184938Y548633D01*
X185031Y548580D01*
X185122Y548524D01*
X185211Y548464D01*
X185298Y548402D01*
X185382Y548336D01*
X185465Y548267D01*
X185544Y548196D01*
X185621Y548121D01*
X185696Y548044D01*
X185767Y547965D01*
X185836Y547882D01*
X185902Y547798D01*
X185964Y547711D01*
X186024Y547622D01*
X186080Y547531D01*
X186133Y547438D01*
X186183Y547343D01*
X186229Y547246D01*
X186272Y547148D01*
X186311Y547048D01*
X186346Y546947D01*
X186378Y546845D01*
X186407Y546742D01*
X186431Y546638D01*
X186452Y546533D01*
X186469Y546427D01*
X186483Y546321D01*
X186492Y546214D01*
X186498Y546107D01*
X186500Y546000D01*
X186498Y545893D01*
X186492Y545786D01*
X186483Y545679D01*
X186469Y545573D01*
X186452Y545467D01*
X186431Y545362D01*
X186407Y545258D01*
X186378Y545155D01*
X186346Y545053D01*
X186311Y544952D01*
X186272Y544852D01*
X186229Y544754D01*
X186183Y544657D01*
X186133Y544562D01*
X186080Y544469D01*
X186024Y544378D01*
X185964Y544289D01*
X185902Y544202D01*
X185836Y544118D01*
X185767Y544035D01*
X185696Y543956D01*
X185621Y543879D01*
X185544Y543804D01*
X185465Y543733D01*
X185382Y543664D01*
X185298Y543598D01*
X185211Y543536D01*
X185122Y543476D01*
X185031Y543420D01*
X184938Y543367D01*
X184843Y543317D01*
X184746Y543271D01*
X184648Y543228D01*
X184548Y543189D01*
X184447Y543154D01*
X184345Y543122D01*
X184242Y543093D01*
X184138Y543069D01*
X184033Y543048D01*
X183927Y543031D01*
X183821Y543017D01*
X183714Y543008D01*
X183607Y543002D01*
X183500Y543000D01*
X180500Y543000D01*
X180393Y543002D01*
X180286Y543008D01*
X180179Y543017D01*
X180073Y543031D01*
X179967Y543048D01*
X179862Y543069D01*
X179758Y543093D01*
X179655Y543122D01*
X179553Y543154D01*
X179452Y543189D01*
X179352Y543228D01*
X179254Y543271D01*
X179157Y543317D01*
X179062Y543367D01*
X178969Y543420D01*
X178878Y543476D01*
X178789Y543536D01*
X178702Y543598D01*
X178618Y543664D01*
X178535Y543733D01*
X178456Y543804D01*
X178379Y543879D01*
X178304Y543956D01*
X178233Y544035D01*
X178164Y544118D01*
X178098Y544202D01*
X178036Y544289D01*
X177976Y544378D01*
X177920Y544469D01*
X177867Y544562D01*
X177817Y544657D01*
X177771Y544754D01*
X177728Y544852D01*
X177689Y544952D01*
X177654Y545053D01*
X177622Y545155D01*
X177593Y545258D01*
X177569Y545362D01*
X177548Y545467D01*
X177531Y545573D01*
X177517Y545679D01*
X177508Y545786D01*
X177502Y545893D01*
X177500Y546000D01*
X243500Y546000D02*
X243502Y546107D01*
X243508Y546214D01*
X243517Y546321D01*
X243531Y546427D01*
X243548Y546533D01*
X243569Y546638D01*
X243593Y546742D01*
X243622Y546845D01*
X243654Y546947D01*
X243689Y547048D01*
X243728Y547148D01*
X243771Y547246D01*
X243817Y547343D01*
X243867Y547438D01*
X243920Y547531D01*
X243976Y547622D01*
X244036Y547711D01*
X244098Y547798D01*
X244164Y547882D01*
X244233Y547965D01*
X244304Y548044D01*
X244379Y548121D01*
X244456Y548196D01*
X244535Y548267D01*
X244618Y548336D01*
X244702Y548402D01*
X244789Y548464D01*
X244878Y548524D01*
X244969Y548580D01*
X245062Y548633D01*
X245157Y548683D01*
X245254Y548729D01*
X245352Y548772D01*
X245452Y548811D01*
X245553Y548846D01*
X245655Y548878D01*
X245758Y548907D01*
X245862Y548931D01*
X245967Y548952D01*
X246073Y548969D01*
X246179Y548983D01*
X246286Y548992D01*
X246393Y548998D01*
X246500Y549000D01*
X249500Y549000D01*
X249607Y548998D01*
X249714Y548992D01*
X249821Y548983D01*
X249927Y548969D01*
X250033Y548952D01*
X250138Y548931D01*
X250242Y548907D01*
X250345Y548878D01*
X250447Y548846D01*
X250548Y548811D01*
X250648Y548772D01*
X250746Y548729D01*
X250843Y548683D01*
X250938Y548633D01*
X251031Y548580D01*
X251122Y548524D01*
X251211Y548464D01*
X251298Y548402D01*
X251382Y548336D01*
X251465Y548267D01*
X251544Y548196D01*
X251621Y548121D01*
X251696Y548044D01*
X251767Y547965D01*
X251836Y547882D01*
X251902Y547798D01*
X251964Y547711D01*
X252024Y547622D01*
X252080Y547531D01*
X252133Y547438D01*
X252183Y547343D01*
X252229Y547246D01*
X252272Y547148D01*
X252311Y547048D01*
X252346Y546947D01*
X252378Y546845D01*
X252407Y546742D01*
X252431Y546638D01*
X252452Y546533D01*
X252469Y546427D01*
X252483Y546321D01*
X252492Y546214D01*
X252498Y546107D01*
X252500Y546000D01*
X252498Y545893D01*
X252492Y545786D01*
X252483Y545679D01*
X252469Y545573D01*
X252452Y545467D01*
X252431Y545362D01*
X252407Y545258D01*
X252378Y545155D01*
X252346Y545053D01*
X252311Y544952D01*
X252272Y544852D01*
X252229Y544754D01*
X252183Y544657D01*
X252133Y544562D01*
X252080Y544469D01*
X252024Y544378D01*
X251964Y544289D01*
X251902Y544202D01*
X251836Y544118D01*
X251767Y544035D01*
X251696Y543956D01*
X251621Y543879D01*
X251544Y543804D01*
X251465Y543733D01*
X251382Y543664D01*
X251298Y543598D01*
X251211Y543536D01*
X251122Y543476D01*
X251031Y543420D01*
X250938Y543367D01*
X250843Y543317D01*
X250746Y543271D01*
X250648Y543228D01*
X250548Y543189D01*
X250447Y543154D01*
X250345Y543122D01*
X250242Y543093D01*
X250138Y543069D01*
X250033Y543048D01*
X249927Y543031D01*
X249821Y543017D01*
X249714Y543008D01*
X249607Y543002D01*
X249500Y543000D01*
X246500Y543000D01*
X246393Y543002D01*
X246286Y543008D01*
X246179Y543017D01*
X246073Y543031D01*
X245967Y543048D01*
X245862Y543069D01*
X245758Y543093D01*
X245655Y543122D01*
X245553Y543154D01*
X245452Y543189D01*
X245352Y543228D01*
X245254Y543271D01*
X245157Y543317D01*
X245062Y543367D01*
X244969Y543420D01*
X244878Y543476D01*
X244789Y543536D01*
X244702Y543598D01*
X244618Y543664D01*
X244535Y543733D01*
X244456Y543804D01*
X244379Y543879D01*
X244304Y543956D01*
X244233Y544035D01*
X244164Y544118D01*
X244098Y544202D01*
X244036Y544289D01*
X243976Y544378D01*
X243920Y544469D01*
X243867Y544562D01*
X243817Y544657D01*
X243771Y544754D01*
X243728Y544852D01*
X243689Y544952D01*
X243654Y545053D01*
X243622Y545155D01*
X243593Y545258D01*
X243569Y545362D01*
X243548Y545467D01*
X243531Y545573D01*
X243517Y545679D01*
X243508Y545786D01*
X243502Y545893D01*
X243500Y546000D01*
X179000Y568000D02*
X178897Y567993D01*
X178794Y567989D01*
X178691Y567990D01*
X178587Y567994D01*
X178484Y568002D01*
X178382Y568014D01*
X178280Y568029D01*
X178178Y568049D01*
X178078Y568072D01*
X177978Y568099D01*
X177880Y568130D01*
X177782Y568164D01*
X177686Y568202D01*
X177592Y568244D01*
X177499Y568289D01*
X177408Y568337D01*
X177318Y568389D01*
X177231Y568444D01*
X177146Y568503D01*
X177063Y568564D01*
X176982Y568629D01*
X176904Y568697D01*
X176829Y568767D01*
X176756Y568840D01*
X176686Y568916D01*
X176619Y568995D01*
X176555Y569075D01*
X176494Y569159D01*
X176436Y569244D01*
X176381Y569332D01*
X176330Y569421D01*
X176282Y569513D01*
X176237Y569606D01*
X176196Y569701D01*
X176159Y569797D01*
X176125Y569894D01*
X176095Y569993D01*
X176068Y570093D01*
X176046Y570194D01*
X176027Y570295D01*
X176012Y570397D01*
X176000Y570500D01*
X176000Y577500D01*
X176012Y577603D01*
X176027Y577705D01*
X176046Y577806D01*
X176068Y577907D01*
X176095Y578007D01*
X176125Y578106D01*
X176159Y578203D01*
X176196Y578299D01*
X176237Y578394D01*
X176282Y578487D01*
X176330Y578579D01*
X176381Y578668D01*
X176436Y578756D01*
X176494Y578841D01*
X176555Y578925D01*
X176619Y579005D01*
X176686Y579084D01*
X176756Y579160D01*
X176829Y579233D01*
X176904Y579303D01*
X176982Y579371D01*
X177063Y579436D01*
X177146Y579497D01*
X177231Y579556D01*
X177318Y579611D01*
X177408Y579663D01*
X177499Y579711D01*
X177592Y579756D01*
X177686Y579798D01*
X177782Y579836D01*
X177880Y579870D01*
X177978Y579901D01*
X178078Y579928D01*
X178178Y579951D01*
X178280Y579971D01*
X178382Y579986D01*
X178484Y579998D01*
X178587Y580006D01*
X178691Y580010D01*
X178794Y580011D01*
X178897Y580007D01*
X179000Y580000D01*
X179103Y580007D01*
X179206Y580011D01*
X179309Y580010D01*
X179413Y580006D01*
X179516Y579998D01*
X179618Y579986D01*
X179720Y579971D01*
X179822Y579951D01*
X179922Y579928D01*
X180022Y579901D01*
X180120Y579870D01*
X180218Y579836D01*
X180314Y579798D01*
X180408Y579756D01*
X180501Y579711D01*
X180592Y579663D01*
X180682Y579611D01*
X180769Y579556D01*
X180854Y579497D01*
X180937Y579436D01*
X181018Y579371D01*
X181096Y579303D01*
X181171Y579233D01*
X181244Y579160D01*
X181314Y579084D01*
X181381Y579005D01*
X181445Y578925D01*
X181506Y578841D01*
X181564Y578756D01*
X181619Y578668D01*
X181670Y578579D01*
X181718Y578487D01*
X181763Y578394D01*
X181804Y578299D01*
X181841Y578203D01*
X181875Y578106D01*
X181905Y578007D01*
X181932Y577907D01*
X181954Y577806D01*
X181973Y577705D01*
X181988Y577603D01*
X182000Y577500D01*
X182000Y570500D01*
X181988Y570397D01*
X181973Y570295D01*
X181954Y570194D01*
X181932Y570093D01*
X181905Y569993D01*
X181875Y569894D01*
X181841Y569797D01*
X181804Y569701D01*
X181763Y569606D01*
X181718Y569513D01*
X181670Y569421D01*
X181619Y569332D01*
X181564Y569244D01*
X181506Y569159D01*
X181445Y569075D01*
X181381Y568995D01*
X181314Y568916D01*
X181244Y568840D01*
X181171Y568767D01*
X181096Y568697D01*
X181018Y568629D01*
X180937Y568564D01*
X180854Y568503D01*
X180769Y568444D01*
X180682Y568389D01*
X180592Y568337D01*
X180501Y568289D01*
X180408Y568244D01*
X180314Y568202D01*
X180218Y568164D01*
X180120Y568130D01*
X180022Y568099D01*
X179922Y568072D01*
X179822Y568049D01*
X179720Y568029D01*
X179618Y568014D01*
X179516Y568002D01*
X179413Y567994D01*
X179309Y567990D01*
X179206Y567989D01*
X179103Y567993D01*
X179000Y568000D01*
D11*
X0Y115000D02*
X90000Y115000D01*
X92615Y114886D01*
X95209Y114544D01*
X97765Y113978D01*
X100261Y113191D01*
X102679Y112189D01*
X105000Y110981D01*
X107207Y109575D01*
X109284Y107981D01*
X111213Y106213D01*
X112981Y104284D01*
X114575Y102207D01*
X115981Y100000D01*
X117189Y97679D01*
X118191Y95261D01*
X118978Y92765D01*
X119544Y90209D01*
X119886Y87615D01*
X120000Y85000D01*
X120000Y0D01*
X790000Y0D01*
X790000Y85000D01*
X790114Y87615D01*
X790456Y90209D01*
X791022Y92765D01*
X791809Y95261D01*
X792811Y97679D01*
X794019Y100000D01*
X795425Y102207D01*
X797019Y104284D01*
X798787Y106213D01*
X800716Y107981D01*
X802793Y109575D01*
X805000Y110981D01*
X807321Y112189D01*
X809739Y113191D01*
X812235Y113978D01*
X814791Y114544D01*
X817385Y114886D01*
X820000Y115000D01*
X910000Y115000D01*
X910000Y455000D01*
X820000Y455000D01*
X817385Y455114D01*
X814791Y455456D01*
X812235Y456022D01*
X809739Y456809D01*
X807321Y457811D01*
X805000Y459019D01*
X802793Y460425D01*
X800716Y462019D01*
X798787Y463787D01*
X797019Y465716D01*
X795425Y467793D01*
X794019Y470000D01*
X792811Y472321D01*
X791809Y474739D01*
X791022Y477235D01*
X790456Y479791D01*
X790114Y482385D01*
X790000Y485000D01*
X790000Y570000D01*
X275505Y570000D01*
X275388Y570003D01*
X275214Y570021D01*
X275043Y570054D01*
X274875Y570102D01*
X274712Y570164D01*
X274555Y570240D01*
X274405Y570330D01*
X274264Y570432D01*
X274132Y570546D01*
X274010Y570671D01*
X273900Y570807D01*
X260000Y589500D01*
X170000Y589500D01*
X156100Y570807D01*
X156027Y570714D01*
X155909Y570586D01*
X155780Y570468D01*
X155642Y570362D01*
X155495Y570268D01*
X155340Y570187D01*
X155179Y570121D01*
X155012Y570068D01*
X154842Y570030D01*
X154669Y570008D01*
X154495Y570000D01*
X120000Y570000D01*
X120000Y485000D01*
X119886Y482385D01*
X119544Y479791D01*
X118978Y477235D01*
X118191Y474739D01*
X117189Y472321D01*
X115981Y470000D01*
X114575Y467793D01*
X112981Y465716D01*
X111213Y463787D01*
X109284Y462019D01*
X107207Y460425D01*
X105000Y459019D01*
X102679Y457811D01*
X100261Y456809D01*
X97765Y456022D01*
X95209Y455456D01*
X92615Y455114D01*
X90000Y455000D01*
X0Y455000D01*
X0Y115000D01*
M02*
