G04 EAGLE Gerber RS-274X export*
G75*
%MOMM*%
%FSLAX34Y34*%
%LPD*%
%INSoldermaskTOP*%
%IPPOS*%
%AMOC8*
5,1,8,0,0,1.08239X$1,22.5*%
G01*
%ADD10R,0.365600X0.912300*%
%ADD11R,0.912300X0.365600*%
%ADD12R,2.801600X2.801600*%
%ADD13R,0.700000X0.350000*%
%ADD14R,0.350000X0.700000*%
%ADD15R,1.800000X1.800000*%
%ADD16R,5.661600X5.661600*%
%ADD17R,0.950000X0.330000*%
%ADD18R,0.330000X0.950000*%
%ADD19C,0.204544*%
%ADD20C,0.261462*%
%ADD21C,0.280447*%
%ADD22R,2.301600X0.901600*%
%ADD23R,0.500000X0.340000*%
%ADD24R,0.400000X1.100000*%
%ADD25R,0.475000X0.400000*%
%ADD26R,0.400000X0.475000*%
%ADD27C,1.601600*%
%ADD28C,2.201600*%
%ADD29R,1.001600X2.101600*%
%ADD30R,2.101600X1.001600*%
%ADD31R,5.101600X5.101600*%
%ADD32R,0.501600X1.001600*%
%ADD33R,0.693100X1.374900*%
%ADD34C,3.001600*%
%ADD35C,3.351600*%
%ADD36C,2.546600*%
%ADD37C,1.436600*%
%ADD38C,1.631600*%
%ADD39R,1.101600X1.151600*%
%ADD40R,1.151600X2.301600*%
%ADD41R,0.501600X1.301600*%
%ADD42C,1.101600*%
%ADD43C,0.901600*%
%ADD44R,0.901600X0.901600*%
%ADD45R,2.750000X2.750000*%
%ADD46R,1.501600X1.251600*%
%ADD47R,2.201600X3.101600*%
%ADD48R,0.901600X1.401600*%
%ADD49R,1.374900X0.693100*%
%ADD50C,0.889000*%
%ADD51C,0.990600*%
%ADD52R,1.301600X1.151600*%
%ADD53C,1.270000*%
%ADD54C,0.254000*%

G36*
X313008Y544502D02*
X313008Y544502D01*
X313017Y544501D01*
X313105Y544522D01*
X313195Y544540D01*
X313202Y544545D01*
X313210Y544547D01*
X313283Y544601D01*
X313359Y544653D01*
X313363Y544660D01*
X313370Y544665D01*
X313417Y544743D01*
X313466Y544820D01*
X313467Y544829D01*
X313472Y544836D01*
X313499Y545000D01*
X313499Y561000D01*
X313498Y561008D01*
X313499Y561017D01*
X313478Y561105D01*
X313460Y561195D01*
X313455Y561202D01*
X313453Y561210D01*
X313399Y561283D01*
X313347Y561359D01*
X313340Y561363D01*
X313335Y561370D01*
X313257Y561417D01*
X313180Y561466D01*
X313171Y561467D01*
X313164Y561472D01*
X313000Y561499D01*
X269000Y561499D01*
X268992Y561498D01*
X268983Y561499D01*
X268895Y561478D01*
X268805Y561460D01*
X268798Y561455D01*
X268790Y561453D01*
X268717Y561399D01*
X268641Y561347D01*
X268637Y561340D01*
X268630Y561335D01*
X268583Y561257D01*
X268534Y561180D01*
X268533Y561171D01*
X268528Y561164D01*
X268501Y561000D01*
X268501Y545000D01*
X268502Y544992D01*
X268501Y544983D01*
X268522Y544895D01*
X268540Y544805D01*
X268545Y544798D01*
X268547Y544790D01*
X268601Y544717D01*
X268653Y544641D01*
X268660Y544637D01*
X268665Y544630D01*
X268743Y544583D01*
X268820Y544534D01*
X268829Y544533D01*
X268836Y544528D01*
X269000Y544501D01*
X313000Y544501D01*
X313008Y544502D01*
G37*
G36*
X608033Y431007D02*
X608033Y431007D01*
X608078Y431007D01*
X608387Y431056D01*
X608415Y431066D01*
X608536Y431104D01*
X608814Y431246D01*
X608838Y431265D01*
X608941Y431338D01*
X609162Y431559D01*
X609179Y431584D01*
X609254Y431686D01*
X609396Y431964D01*
X609404Y431994D01*
X609444Y432113D01*
X609493Y432422D01*
X609492Y432452D01*
X609492Y432475D01*
X609499Y432515D01*
X609493Y432540D01*
X609493Y432578D01*
X609444Y432887D01*
X609434Y432915D01*
X609396Y433036D01*
X609254Y433314D01*
X609235Y433338D01*
X609162Y433441D01*
X608941Y433662D01*
X608916Y433679D01*
X608814Y433754D01*
X608536Y433896D01*
X608507Y433904D01*
X608387Y433944D01*
X608078Y433993D01*
X608046Y433992D01*
X608019Y433996D01*
X608018Y433996D01*
X608000Y433999D01*
X602000Y433999D01*
X601985Y433996D01*
X601981Y433996D01*
X601963Y433993D01*
X601922Y433993D01*
X601613Y433944D01*
X601585Y433934D01*
X601464Y433896D01*
X601186Y433754D01*
X601162Y433735D01*
X601059Y433662D01*
X600838Y433441D01*
X600821Y433416D01*
X600746Y433314D01*
X600604Y433036D01*
X600596Y433006D01*
X600556Y432887D01*
X600507Y432578D01*
X600508Y432548D01*
X600508Y432521D01*
X600501Y432482D01*
X600507Y432457D01*
X600507Y432422D01*
X600556Y432113D01*
X600566Y432085D01*
X600604Y431964D01*
X600746Y431686D01*
X600765Y431662D01*
X600838Y431559D01*
X601059Y431338D01*
X601084Y431321D01*
X601186Y431246D01*
X601464Y431104D01*
X601494Y431096D01*
X601613Y431056D01*
X601922Y431007D01*
X601955Y431008D01*
X602000Y431001D01*
X608000Y431001D01*
X608033Y431007D01*
G37*
G36*
X568033Y431007D02*
X568033Y431007D01*
X568078Y431007D01*
X568387Y431056D01*
X568415Y431066D01*
X568536Y431104D01*
X568814Y431246D01*
X568838Y431265D01*
X568941Y431338D01*
X569162Y431559D01*
X569179Y431584D01*
X569254Y431686D01*
X569396Y431964D01*
X569404Y431994D01*
X569444Y432113D01*
X569493Y432422D01*
X569492Y432452D01*
X569492Y432475D01*
X569499Y432515D01*
X569493Y432540D01*
X569493Y432578D01*
X569444Y432887D01*
X569434Y432915D01*
X569396Y433036D01*
X569254Y433314D01*
X569235Y433338D01*
X569162Y433441D01*
X568941Y433662D01*
X568916Y433679D01*
X568814Y433754D01*
X568536Y433896D01*
X568507Y433904D01*
X568387Y433944D01*
X568078Y433993D01*
X568046Y433992D01*
X568019Y433996D01*
X568018Y433996D01*
X568000Y433999D01*
X562000Y433999D01*
X561985Y433996D01*
X561981Y433996D01*
X561963Y433993D01*
X561922Y433993D01*
X561613Y433944D01*
X561585Y433934D01*
X561464Y433896D01*
X561186Y433754D01*
X561162Y433735D01*
X561059Y433662D01*
X560838Y433441D01*
X560821Y433416D01*
X560746Y433314D01*
X560604Y433036D01*
X560596Y433006D01*
X560556Y432887D01*
X560507Y432578D01*
X560508Y432548D01*
X560508Y432521D01*
X560501Y432482D01*
X560507Y432457D01*
X560507Y432422D01*
X560556Y432113D01*
X560566Y432085D01*
X560604Y431964D01*
X560746Y431686D01*
X560765Y431662D01*
X560838Y431559D01*
X561059Y431338D01*
X561084Y431321D01*
X561186Y431246D01*
X561464Y431104D01*
X561494Y431096D01*
X561613Y431056D01*
X561922Y431007D01*
X561955Y431008D01*
X562000Y431001D01*
X568000Y431001D01*
X568033Y431007D01*
G37*
G36*
X568033Y427007D02*
X568033Y427007D01*
X568078Y427007D01*
X568387Y427056D01*
X568415Y427066D01*
X568536Y427104D01*
X568814Y427246D01*
X568838Y427265D01*
X568941Y427338D01*
X569162Y427559D01*
X569179Y427584D01*
X569254Y427686D01*
X569396Y427964D01*
X569404Y427994D01*
X569444Y428113D01*
X569493Y428422D01*
X569492Y428452D01*
X569492Y428475D01*
X569499Y428515D01*
X569493Y428540D01*
X569493Y428578D01*
X569444Y428887D01*
X569434Y428915D01*
X569396Y429036D01*
X569254Y429314D01*
X569235Y429338D01*
X569162Y429441D01*
X568941Y429662D01*
X568916Y429679D01*
X568814Y429754D01*
X568536Y429896D01*
X568507Y429904D01*
X568387Y429944D01*
X568078Y429993D01*
X568046Y429992D01*
X568019Y429996D01*
X568018Y429996D01*
X568000Y429999D01*
X562000Y429999D01*
X561985Y429996D01*
X561981Y429996D01*
X561963Y429993D01*
X561922Y429993D01*
X561613Y429944D01*
X561585Y429934D01*
X561464Y429896D01*
X561186Y429754D01*
X561162Y429735D01*
X561059Y429662D01*
X560838Y429441D01*
X560821Y429416D01*
X560746Y429314D01*
X560604Y429036D01*
X560596Y429006D01*
X560556Y428887D01*
X560507Y428578D01*
X560508Y428548D01*
X560508Y428521D01*
X560501Y428482D01*
X560507Y428457D01*
X560507Y428422D01*
X560556Y428113D01*
X560566Y428085D01*
X560604Y427964D01*
X560746Y427686D01*
X560765Y427662D01*
X560838Y427559D01*
X561059Y427338D01*
X561084Y427321D01*
X561186Y427246D01*
X561464Y427104D01*
X561494Y427096D01*
X561613Y427056D01*
X561922Y427007D01*
X561955Y427008D01*
X562000Y427001D01*
X568000Y427001D01*
X568033Y427007D01*
G37*
G36*
X608033Y427007D02*
X608033Y427007D01*
X608078Y427007D01*
X608387Y427056D01*
X608415Y427066D01*
X608536Y427104D01*
X608814Y427246D01*
X608838Y427265D01*
X608941Y427338D01*
X609162Y427559D01*
X609179Y427584D01*
X609254Y427686D01*
X609396Y427964D01*
X609404Y427994D01*
X609444Y428113D01*
X609493Y428422D01*
X609492Y428452D01*
X609492Y428475D01*
X609499Y428515D01*
X609493Y428540D01*
X609493Y428578D01*
X609444Y428887D01*
X609434Y428915D01*
X609396Y429036D01*
X609254Y429314D01*
X609235Y429338D01*
X609162Y429441D01*
X608941Y429662D01*
X608916Y429679D01*
X608814Y429754D01*
X608536Y429896D01*
X608507Y429904D01*
X608387Y429944D01*
X608078Y429993D01*
X608046Y429992D01*
X608019Y429996D01*
X608018Y429996D01*
X608000Y429999D01*
X602000Y429999D01*
X601985Y429996D01*
X601981Y429996D01*
X601963Y429993D01*
X601922Y429993D01*
X601613Y429944D01*
X601585Y429934D01*
X601464Y429896D01*
X601186Y429754D01*
X601162Y429735D01*
X601059Y429662D01*
X600838Y429441D01*
X600821Y429416D01*
X600746Y429314D01*
X600604Y429036D01*
X600596Y429006D01*
X600556Y428887D01*
X600507Y428578D01*
X600508Y428548D01*
X600508Y428521D01*
X600501Y428482D01*
X600507Y428457D01*
X600507Y428422D01*
X600556Y428113D01*
X600566Y428085D01*
X600604Y427964D01*
X600746Y427686D01*
X600765Y427662D01*
X600838Y427559D01*
X601059Y427338D01*
X601084Y427321D01*
X601186Y427246D01*
X601464Y427104D01*
X601494Y427096D01*
X601613Y427056D01*
X601922Y427007D01*
X601955Y427008D01*
X602000Y427001D01*
X608000Y427001D01*
X608033Y427007D01*
G37*
G36*
X568033Y423007D02*
X568033Y423007D01*
X568078Y423007D01*
X568387Y423056D01*
X568415Y423066D01*
X568536Y423104D01*
X568814Y423246D01*
X568838Y423265D01*
X568941Y423338D01*
X569162Y423559D01*
X569179Y423584D01*
X569254Y423686D01*
X569396Y423964D01*
X569404Y423994D01*
X569444Y424113D01*
X569493Y424422D01*
X569492Y424452D01*
X569492Y424475D01*
X569499Y424515D01*
X569493Y424540D01*
X569493Y424578D01*
X569444Y424887D01*
X569434Y424915D01*
X569396Y425036D01*
X569254Y425314D01*
X569235Y425338D01*
X569162Y425441D01*
X568941Y425662D01*
X568916Y425679D01*
X568814Y425754D01*
X568536Y425896D01*
X568507Y425904D01*
X568387Y425944D01*
X568078Y425993D01*
X568046Y425992D01*
X568019Y425996D01*
X568018Y425996D01*
X568000Y425999D01*
X562000Y425999D01*
X561985Y425996D01*
X561981Y425996D01*
X561963Y425993D01*
X561922Y425993D01*
X561613Y425944D01*
X561585Y425934D01*
X561464Y425896D01*
X561186Y425754D01*
X561162Y425735D01*
X561059Y425662D01*
X560838Y425441D01*
X560821Y425416D01*
X560746Y425314D01*
X560604Y425036D01*
X560596Y425006D01*
X560556Y424887D01*
X560507Y424578D01*
X560508Y424548D01*
X560508Y424521D01*
X560501Y424482D01*
X560507Y424457D01*
X560507Y424422D01*
X560556Y424113D01*
X560566Y424085D01*
X560604Y423964D01*
X560746Y423686D01*
X560765Y423662D01*
X560838Y423559D01*
X561059Y423338D01*
X561084Y423321D01*
X561186Y423246D01*
X561464Y423104D01*
X561494Y423096D01*
X561613Y423056D01*
X561922Y423007D01*
X561955Y423008D01*
X562000Y423001D01*
X568000Y423001D01*
X568033Y423007D01*
G37*
G36*
X608033Y423007D02*
X608033Y423007D01*
X608078Y423007D01*
X608387Y423056D01*
X608415Y423066D01*
X608536Y423104D01*
X608814Y423246D01*
X608838Y423265D01*
X608941Y423338D01*
X609162Y423559D01*
X609179Y423584D01*
X609254Y423686D01*
X609396Y423964D01*
X609404Y423994D01*
X609444Y424113D01*
X609493Y424422D01*
X609492Y424452D01*
X609492Y424475D01*
X609499Y424515D01*
X609493Y424540D01*
X609493Y424578D01*
X609444Y424887D01*
X609434Y424915D01*
X609396Y425036D01*
X609254Y425314D01*
X609235Y425338D01*
X609162Y425441D01*
X608941Y425662D01*
X608916Y425679D01*
X608814Y425754D01*
X608536Y425896D01*
X608507Y425904D01*
X608387Y425944D01*
X608078Y425993D01*
X608046Y425992D01*
X608019Y425996D01*
X608018Y425996D01*
X608000Y425999D01*
X602000Y425999D01*
X601985Y425996D01*
X601981Y425996D01*
X601963Y425993D01*
X601922Y425993D01*
X601613Y425944D01*
X601585Y425934D01*
X601464Y425896D01*
X601186Y425754D01*
X601162Y425735D01*
X601059Y425662D01*
X600838Y425441D01*
X600821Y425416D01*
X600746Y425314D01*
X600604Y425036D01*
X600596Y425006D01*
X600556Y424887D01*
X600507Y424578D01*
X600508Y424548D01*
X600508Y424521D01*
X600501Y424482D01*
X600507Y424457D01*
X600507Y424422D01*
X600556Y424113D01*
X600566Y424085D01*
X600604Y423964D01*
X600746Y423686D01*
X600765Y423662D01*
X600838Y423559D01*
X601059Y423338D01*
X601084Y423321D01*
X601186Y423246D01*
X601464Y423104D01*
X601494Y423096D01*
X601613Y423056D01*
X601922Y423007D01*
X601955Y423008D01*
X602000Y423001D01*
X608000Y423001D01*
X608033Y423007D01*
G37*
G36*
X608033Y419007D02*
X608033Y419007D01*
X608078Y419007D01*
X608387Y419056D01*
X608415Y419066D01*
X608536Y419104D01*
X608814Y419246D01*
X608838Y419265D01*
X608941Y419338D01*
X609162Y419559D01*
X609179Y419584D01*
X609254Y419686D01*
X609396Y419964D01*
X609404Y419994D01*
X609444Y420113D01*
X609493Y420422D01*
X609492Y420452D01*
X609492Y420475D01*
X609499Y420515D01*
X609493Y420540D01*
X609493Y420578D01*
X609444Y420887D01*
X609434Y420915D01*
X609396Y421036D01*
X609254Y421314D01*
X609235Y421338D01*
X609162Y421441D01*
X608941Y421662D01*
X608916Y421679D01*
X608814Y421754D01*
X608536Y421896D01*
X608507Y421904D01*
X608387Y421944D01*
X608078Y421993D01*
X608046Y421992D01*
X608019Y421996D01*
X608018Y421996D01*
X608000Y421999D01*
X602000Y421999D01*
X601985Y421996D01*
X601981Y421996D01*
X601963Y421993D01*
X601922Y421993D01*
X601613Y421944D01*
X601585Y421934D01*
X601464Y421896D01*
X601186Y421754D01*
X601162Y421735D01*
X601059Y421662D01*
X600838Y421441D01*
X600821Y421416D01*
X600746Y421314D01*
X600604Y421036D01*
X600596Y421006D01*
X600556Y420887D01*
X600507Y420578D01*
X600508Y420548D01*
X600508Y420521D01*
X600501Y420482D01*
X600507Y420457D01*
X600507Y420422D01*
X600556Y420113D01*
X600566Y420085D01*
X600604Y419964D01*
X600746Y419686D01*
X600765Y419662D01*
X600838Y419559D01*
X601059Y419338D01*
X601084Y419321D01*
X601186Y419246D01*
X601464Y419104D01*
X601494Y419096D01*
X601613Y419056D01*
X601922Y419007D01*
X601955Y419008D01*
X602000Y419001D01*
X608000Y419001D01*
X608033Y419007D01*
G37*
G36*
X568033Y419007D02*
X568033Y419007D01*
X568078Y419007D01*
X568387Y419056D01*
X568415Y419066D01*
X568536Y419104D01*
X568814Y419246D01*
X568838Y419265D01*
X568941Y419338D01*
X569162Y419559D01*
X569179Y419584D01*
X569254Y419686D01*
X569396Y419964D01*
X569404Y419994D01*
X569444Y420113D01*
X569493Y420422D01*
X569492Y420452D01*
X569492Y420475D01*
X569499Y420515D01*
X569493Y420540D01*
X569493Y420578D01*
X569444Y420887D01*
X569434Y420915D01*
X569396Y421036D01*
X569254Y421314D01*
X569235Y421338D01*
X569162Y421441D01*
X568941Y421662D01*
X568916Y421679D01*
X568814Y421754D01*
X568536Y421896D01*
X568507Y421904D01*
X568387Y421944D01*
X568078Y421993D01*
X568046Y421992D01*
X568019Y421996D01*
X568018Y421996D01*
X568000Y421999D01*
X562000Y421999D01*
X561985Y421996D01*
X561981Y421996D01*
X561963Y421993D01*
X561922Y421993D01*
X561613Y421944D01*
X561585Y421934D01*
X561464Y421896D01*
X561186Y421754D01*
X561162Y421735D01*
X561059Y421662D01*
X560838Y421441D01*
X560821Y421416D01*
X560746Y421314D01*
X560604Y421036D01*
X560596Y421006D01*
X560556Y420887D01*
X560507Y420578D01*
X560508Y420548D01*
X560508Y420521D01*
X560501Y420482D01*
X560507Y420457D01*
X560507Y420422D01*
X560556Y420113D01*
X560566Y420085D01*
X560604Y419964D01*
X560746Y419686D01*
X560765Y419662D01*
X560838Y419559D01*
X561059Y419338D01*
X561084Y419321D01*
X561186Y419246D01*
X561464Y419104D01*
X561494Y419096D01*
X561613Y419056D01*
X561922Y419007D01*
X561955Y419008D01*
X562000Y419001D01*
X568000Y419001D01*
X568033Y419007D01*
G37*
G36*
X608033Y415007D02*
X608033Y415007D01*
X608078Y415007D01*
X608387Y415056D01*
X608415Y415066D01*
X608536Y415104D01*
X608814Y415246D01*
X608838Y415265D01*
X608941Y415338D01*
X609162Y415559D01*
X609179Y415584D01*
X609254Y415686D01*
X609396Y415964D01*
X609404Y415994D01*
X609444Y416113D01*
X609493Y416422D01*
X609492Y416452D01*
X609492Y416475D01*
X609499Y416515D01*
X609493Y416540D01*
X609493Y416578D01*
X609444Y416887D01*
X609434Y416915D01*
X609396Y417036D01*
X609254Y417314D01*
X609235Y417338D01*
X609162Y417441D01*
X608941Y417662D01*
X608916Y417679D01*
X608814Y417754D01*
X608536Y417896D01*
X608507Y417904D01*
X608387Y417944D01*
X608078Y417993D01*
X608046Y417992D01*
X608019Y417996D01*
X608018Y417996D01*
X608000Y417999D01*
X602000Y417999D01*
X601985Y417996D01*
X601981Y417996D01*
X601963Y417993D01*
X601922Y417993D01*
X601613Y417944D01*
X601585Y417934D01*
X601464Y417896D01*
X601186Y417754D01*
X601162Y417735D01*
X601059Y417662D01*
X600838Y417441D01*
X600821Y417416D01*
X600746Y417314D01*
X600604Y417036D01*
X600596Y417006D01*
X600556Y416887D01*
X600507Y416578D01*
X600508Y416548D01*
X600508Y416521D01*
X600501Y416482D01*
X600507Y416457D01*
X600507Y416422D01*
X600556Y416113D01*
X600566Y416085D01*
X600604Y415964D01*
X600746Y415686D01*
X600765Y415662D01*
X600838Y415559D01*
X601059Y415338D01*
X601084Y415321D01*
X601186Y415246D01*
X601464Y415104D01*
X601494Y415096D01*
X601613Y415056D01*
X601922Y415007D01*
X601955Y415008D01*
X602000Y415001D01*
X608000Y415001D01*
X608033Y415007D01*
G37*
G36*
X568033Y415007D02*
X568033Y415007D01*
X568078Y415007D01*
X568387Y415056D01*
X568415Y415066D01*
X568536Y415104D01*
X568814Y415246D01*
X568838Y415265D01*
X568941Y415338D01*
X569162Y415559D01*
X569179Y415584D01*
X569254Y415686D01*
X569396Y415964D01*
X569404Y415994D01*
X569444Y416113D01*
X569493Y416422D01*
X569492Y416452D01*
X569492Y416475D01*
X569499Y416515D01*
X569493Y416540D01*
X569493Y416578D01*
X569444Y416887D01*
X569434Y416915D01*
X569396Y417036D01*
X569254Y417314D01*
X569235Y417338D01*
X569162Y417441D01*
X568941Y417662D01*
X568916Y417679D01*
X568814Y417754D01*
X568536Y417896D01*
X568507Y417904D01*
X568387Y417944D01*
X568078Y417993D01*
X568046Y417992D01*
X568019Y417996D01*
X568018Y417996D01*
X568000Y417999D01*
X562000Y417999D01*
X561985Y417996D01*
X561981Y417996D01*
X561963Y417993D01*
X561922Y417993D01*
X561613Y417944D01*
X561585Y417934D01*
X561464Y417896D01*
X561186Y417754D01*
X561162Y417735D01*
X561059Y417662D01*
X560838Y417441D01*
X560821Y417416D01*
X560746Y417314D01*
X560604Y417036D01*
X560596Y417006D01*
X560556Y416887D01*
X560507Y416578D01*
X560508Y416548D01*
X560508Y416521D01*
X560501Y416482D01*
X560507Y416457D01*
X560507Y416422D01*
X560556Y416113D01*
X560566Y416085D01*
X560604Y415964D01*
X560746Y415686D01*
X560765Y415662D01*
X560838Y415559D01*
X561059Y415338D01*
X561084Y415321D01*
X561186Y415246D01*
X561464Y415104D01*
X561494Y415096D01*
X561613Y415056D01*
X561922Y415007D01*
X561955Y415008D01*
X562000Y415001D01*
X568000Y415001D01*
X568033Y415007D01*
G37*
G36*
X568033Y435007D02*
X568033Y435007D01*
X568078Y435007D01*
X568387Y435056D01*
X568415Y435066D01*
X568536Y435104D01*
X568814Y435246D01*
X568838Y435265D01*
X568941Y435338D01*
X569162Y435559D01*
X569179Y435584D01*
X569254Y435686D01*
X569396Y435964D01*
X569404Y435994D01*
X569444Y436113D01*
X569493Y436422D01*
X569492Y436452D01*
X569492Y436475D01*
X569499Y436515D01*
X569493Y436540D01*
X569493Y436578D01*
X569444Y436887D01*
X569434Y436915D01*
X569396Y437036D01*
X569254Y437314D01*
X569235Y437338D01*
X569162Y437441D01*
X568941Y437662D01*
X568916Y437679D01*
X568814Y437754D01*
X568536Y437896D01*
X568507Y437904D01*
X568387Y437944D01*
X568078Y437993D01*
X568046Y437992D01*
X568019Y437996D01*
X568018Y437996D01*
X568000Y437999D01*
X562000Y437999D01*
X561985Y437996D01*
X561981Y437996D01*
X561963Y437993D01*
X561922Y437993D01*
X561613Y437944D01*
X561585Y437934D01*
X561464Y437896D01*
X561186Y437754D01*
X561162Y437735D01*
X561059Y437662D01*
X560838Y437441D01*
X560821Y437416D01*
X560746Y437314D01*
X560604Y437036D01*
X560596Y437006D01*
X560556Y436887D01*
X560507Y436578D01*
X560508Y436548D01*
X560508Y436521D01*
X560501Y436482D01*
X560507Y436457D01*
X560507Y436422D01*
X560556Y436113D01*
X560566Y436085D01*
X560604Y435964D01*
X560746Y435686D01*
X560765Y435662D01*
X560838Y435559D01*
X561059Y435338D01*
X561084Y435321D01*
X561186Y435246D01*
X561464Y435104D01*
X561494Y435096D01*
X561613Y435056D01*
X561922Y435007D01*
X561955Y435008D01*
X562000Y435001D01*
X568000Y435001D01*
X568033Y435007D01*
G37*
G36*
X608033Y435007D02*
X608033Y435007D01*
X608078Y435007D01*
X608387Y435056D01*
X608415Y435066D01*
X608536Y435104D01*
X608814Y435246D01*
X608838Y435265D01*
X608941Y435338D01*
X609162Y435559D01*
X609179Y435584D01*
X609254Y435686D01*
X609396Y435964D01*
X609404Y435994D01*
X609444Y436113D01*
X609493Y436422D01*
X609492Y436452D01*
X609492Y436475D01*
X609499Y436515D01*
X609493Y436540D01*
X609493Y436578D01*
X609444Y436887D01*
X609434Y436915D01*
X609396Y437036D01*
X609254Y437314D01*
X609235Y437338D01*
X609162Y437441D01*
X608941Y437662D01*
X608916Y437679D01*
X608814Y437754D01*
X608536Y437896D01*
X608507Y437904D01*
X608387Y437944D01*
X608078Y437993D01*
X608046Y437992D01*
X608019Y437996D01*
X608018Y437996D01*
X608000Y437999D01*
X602000Y437999D01*
X601985Y437996D01*
X601981Y437996D01*
X601963Y437993D01*
X601922Y437993D01*
X601613Y437944D01*
X601585Y437934D01*
X601464Y437896D01*
X601186Y437754D01*
X601162Y437735D01*
X601059Y437662D01*
X600838Y437441D01*
X600821Y437416D01*
X600746Y437314D01*
X600604Y437036D01*
X600596Y437006D01*
X600556Y436887D01*
X600507Y436578D01*
X600508Y436548D01*
X600508Y436521D01*
X600501Y436482D01*
X600507Y436457D01*
X600507Y436422D01*
X600556Y436113D01*
X600566Y436085D01*
X600604Y435964D01*
X600746Y435686D01*
X600765Y435662D01*
X600838Y435559D01*
X601059Y435338D01*
X601084Y435321D01*
X601186Y435246D01*
X601464Y435104D01*
X601494Y435096D01*
X601613Y435056D01*
X601922Y435007D01*
X601955Y435008D01*
X602000Y435001D01*
X608000Y435001D01*
X608033Y435007D01*
G37*
G36*
X575387Y442056D02*
X575387Y442056D01*
X575415Y442066D01*
X575536Y442104D01*
X575814Y442246D01*
X575838Y442265D01*
X575941Y442338D01*
X576162Y442559D01*
X576179Y442584D01*
X576254Y442686D01*
X576396Y442964D01*
X576404Y442994D01*
X576444Y443113D01*
X576493Y443422D01*
X576492Y443455D01*
X576499Y443500D01*
X576499Y449500D01*
X576499Y449504D01*
X576499Y449506D01*
X576493Y449533D01*
X576493Y449578D01*
X576444Y449887D01*
X576434Y449915D01*
X576396Y450036D01*
X576254Y450314D01*
X576235Y450338D01*
X576162Y450441D01*
X575941Y450662D01*
X575916Y450679D01*
X575814Y450754D01*
X575536Y450896D01*
X575507Y450904D01*
X575387Y450944D01*
X575078Y450993D01*
X575048Y450992D01*
X574922Y450993D01*
X574613Y450944D01*
X574585Y450934D01*
X574464Y450896D01*
X574186Y450754D01*
X574162Y450735D01*
X574059Y450662D01*
X573838Y450441D01*
X573821Y450416D01*
X573746Y450314D01*
X573604Y450036D01*
X573596Y450006D01*
X573556Y449887D01*
X573507Y449578D01*
X573508Y449545D01*
X573501Y449500D01*
X573501Y443500D01*
X573503Y443490D01*
X573501Y443482D01*
X573507Y443457D01*
X573507Y443422D01*
X573556Y443113D01*
X573566Y443085D01*
X573604Y442964D01*
X573746Y442686D01*
X573765Y442662D01*
X573838Y442559D01*
X574059Y442338D01*
X574084Y442321D01*
X574186Y442246D01*
X574464Y442104D01*
X574494Y442096D01*
X574613Y442056D01*
X574922Y442007D01*
X574952Y442008D01*
X575078Y442007D01*
X575387Y442056D01*
G37*
G36*
X587387Y442056D02*
X587387Y442056D01*
X587415Y442066D01*
X587536Y442104D01*
X587814Y442246D01*
X587838Y442265D01*
X587941Y442338D01*
X588162Y442559D01*
X588179Y442584D01*
X588254Y442686D01*
X588396Y442964D01*
X588404Y442994D01*
X588444Y443113D01*
X588493Y443422D01*
X588492Y443455D01*
X588499Y443500D01*
X588499Y449500D01*
X588499Y449504D01*
X588499Y449506D01*
X588493Y449533D01*
X588493Y449578D01*
X588444Y449887D01*
X588434Y449915D01*
X588396Y450036D01*
X588254Y450314D01*
X588235Y450338D01*
X588162Y450441D01*
X587941Y450662D01*
X587916Y450679D01*
X587814Y450754D01*
X587536Y450896D01*
X587507Y450904D01*
X587387Y450944D01*
X587078Y450993D01*
X587048Y450992D01*
X586922Y450993D01*
X586613Y450944D01*
X586585Y450934D01*
X586464Y450896D01*
X586186Y450754D01*
X586162Y450735D01*
X586059Y450662D01*
X585838Y450441D01*
X585821Y450416D01*
X585746Y450314D01*
X585604Y450036D01*
X585596Y450006D01*
X585556Y449887D01*
X585507Y449578D01*
X585508Y449545D01*
X585501Y449500D01*
X585501Y443500D01*
X585503Y443490D01*
X585501Y443482D01*
X585507Y443457D01*
X585507Y443422D01*
X585556Y443113D01*
X585566Y443085D01*
X585604Y442964D01*
X585746Y442686D01*
X585765Y442662D01*
X585838Y442559D01*
X586059Y442338D01*
X586084Y442321D01*
X586186Y442246D01*
X586464Y442104D01*
X586494Y442096D01*
X586613Y442056D01*
X586922Y442007D01*
X586952Y442008D01*
X587078Y442007D01*
X587387Y442056D01*
G37*
G36*
X595387Y442056D02*
X595387Y442056D01*
X595415Y442066D01*
X595536Y442104D01*
X595814Y442246D01*
X595838Y442265D01*
X595941Y442338D01*
X596162Y442559D01*
X596179Y442584D01*
X596254Y442686D01*
X596396Y442964D01*
X596404Y442994D01*
X596444Y443113D01*
X596493Y443422D01*
X596492Y443455D01*
X596499Y443500D01*
X596499Y449500D01*
X596499Y449504D01*
X596499Y449506D01*
X596493Y449533D01*
X596493Y449578D01*
X596444Y449887D01*
X596434Y449915D01*
X596396Y450036D01*
X596254Y450314D01*
X596235Y450338D01*
X596162Y450441D01*
X595941Y450662D01*
X595916Y450679D01*
X595814Y450754D01*
X595536Y450896D01*
X595507Y450904D01*
X595387Y450944D01*
X595078Y450993D01*
X595048Y450992D01*
X594922Y450993D01*
X594613Y450944D01*
X594585Y450934D01*
X594464Y450896D01*
X594186Y450754D01*
X594162Y450735D01*
X594059Y450662D01*
X593838Y450441D01*
X593821Y450416D01*
X593746Y450314D01*
X593604Y450036D01*
X593596Y450006D01*
X593556Y449887D01*
X593507Y449578D01*
X593508Y449545D01*
X593501Y449500D01*
X593501Y443500D01*
X593503Y443490D01*
X593501Y443482D01*
X593507Y443457D01*
X593507Y443422D01*
X593556Y443113D01*
X593566Y443085D01*
X593604Y442964D01*
X593746Y442686D01*
X593765Y442662D01*
X593838Y442559D01*
X594059Y442338D01*
X594084Y442321D01*
X594186Y442246D01*
X594464Y442104D01*
X594494Y442096D01*
X594613Y442056D01*
X594922Y442007D01*
X594952Y442008D01*
X595078Y442007D01*
X595387Y442056D01*
G37*
G36*
X591387Y442056D02*
X591387Y442056D01*
X591415Y442066D01*
X591536Y442104D01*
X591814Y442246D01*
X591838Y442265D01*
X591941Y442338D01*
X592162Y442559D01*
X592179Y442584D01*
X592254Y442686D01*
X592396Y442964D01*
X592404Y442994D01*
X592444Y443113D01*
X592493Y443422D01*
X592492Y443455D01*
X592499Y443500D01*
X592499Y449500D01*
X592499Y449504D01*
X592499Y449506D01*
X592493Y449533D01*
X592493Y449578D01*
X592444Y449887D01*
X592434Y449915D01*
X592396Y450036D01*
X592254Y450314D01*
X592235Y450338D01*
X592162Y450441D01*
X591941Y450662D01*
X591916Y450679D01*
X591814Y450754D01*
X591536Y450896D01*
X591507Y450904D01*
X591387Y450944D01*
X591078Y450993D01*
X591048Y450992D01*
X590922Y450993D01*
X590613Y450944D01*
X590585Y450934D01*
X590464Y450896D01*
X590186Y450754D01*
X590162Y450735D01*
X590059Y450662D01*
X589838Y450441D01*
X589821Y450416D01*
X589746Y450314D01*
X589604Y450036D01*
X589596Y450006D01*
X589556Y449887D01*
X589507Y449578D01*
X589508Y449545D01*
X589501Y449500D01*
X589501Y443500D01*
X589503Y443490D01*
X589501Y443482D01*
X589507Y443457D01*
X589507Y443422D01*
X589556Y443113D01*
X589566Y443085D01*
X589604Y442964D01*
X589746Y442686D01*
X589765Y442662D01*
X589838Y442559D01*
X590059Y442338D01*
X590084Y442321D01*
X590186Y442246D01*
X590464Y442104D01*
X590494Y442096D01*
X590613Y442056D01*
X590922Y442007D01*
X590952Y442008D01*
X591078Y442007D01*
X591387Y442056D01*
G37*
G36*
X579387Y442056D02*
X579387Y442056D01*
X579415Y442066D01*
X579536Y442104D01*
X579814Y442246D01*
X579838Y442265D01*
X579941Y442338D01*
X580162Y442559D01*
X580179Y442584D01*
X580254Y442686D01*
X580396Y442964D01*
X580404Y442994D01*
X580444Y443113D01*
X580493Y443422D01*
X580492Y443455D01*
X580499Y443500D01*
X580499Y449500D01*
X580499Y449504D01*
X580499Y449506D01*
X580493Y449533D01*
X580493Y449578D01*
X580444Y449887D01*
X580434Y449915D01*
X580396Y450036D01*
X580254Y450314D01*
X580235Y450338D01*
X580162Y450441D01*
X579941Y450662D01*
X579916Y450679D01*
X579814Y450754D01*
X579536Y450896D01*
X579507Y450904D01*
X579387Y450944D01*
X579078Y450993D01*
X579048Y450992D01*
X578922Y450993D01*
X578613Y450944D01*
X578585Y450934D01*
X578464Y450896D01*
X578186Y450754D01*
X578162Y450735D01*
X578059Y450662D01*
X577838Y450441D01*
X577821Y450416D01*
X577746Y450314D01*
X577604Y450036D01*
X577596Y450006D01*
X577556Y449887D01*
X577507Y449578D01*
X577508Y449545D01*
X577501Y449500D01*
X577501Y443500D01*
X577503Y443490D01*
X577501Y443482D01*
X577507Y443457D01*
X577507Y443422D01*
X577556Y443113D01*
X577566Y443085D01*
X577604Y442964D01*
X577746Y442686D01*
X577765Y442662D01*
X577838Y442559D01*
X578059Y442338D01*
X578084Y442321D01*
X578186Y442246D01*
X578464Y442104D01*
X578494Y442096D01*
X578613Y442056D01*
X578922Y442007D01*
X578952Y442008D01*
X579078Y442007D01*
X579387Y442056D01*
G37*
G36*
X583387Y442056D02*
X583387Y442056D01*
X583415Y442066D01*
X583536Y442104D01*
X583814Y442246D01*
X583838Y442265D01*
X583941Y442338D01*
X584162Y442559D01*
X584179Y442584D01*
X584254Y442686D01*
X584396Y442964D01*
X584404Y442994D01*
X584444Y443113D01*
X584493Y443422D01*
X584492Y443455D01*
X584499Y443500D01*
X584499Y449500D01*
X584499Y449504D01*
X584499Y449506D01*
X584493Y449533D01*
X584493Y449578D01*
X584444Y449887D01*
X584434Y449915D01*
X584396Y450036D01*
X584254Y450314D01*
X584235Y450338D01*
X584162Y450441D01*
X583941Y450662D01*
X583916Y450679D01*
X583814Y450754D01*
X583536Y450896D01*
X583507Y450904D01*
X583387Y450944D01*
X583078Y450993D01*
X583048Y450992D01*
X582922Y450993D01*
X582613Y450944D01*
X582585Y450934D01*
X582464Y450896D01*
X582186Y450754D01*
X582162Y450735D01*
X582059Y450662D01*
X581838Y450441D01*
X581821Y450416D01*
X581746Y450314D01*
X581604Y450036D01*
X581596Y450006D01*
X581556Y449887D01*
X581507Y449578D01*
X581508Y449545D01*
X581501Y449500D01*
X581501Y443500D01*
X581503Y443490D01*
X581501Y443482D01*
X581507Y443457D01*
X581507Y443422D01*
X581556Y443113D01*
X581566Y443085D01*
X581604Y442964D01*
X581746Y442686D01*
X581765Y442662D01*
X581838Y442559D01*
X582059Y442338D01*
X582084Y442321D01*
X582186Y442246D01*
X582464Y442104D01*
X582494Y442096D01*
X582613Y442056D01*
X582922Y442007D01*
X582952Y442008D01*
X583078Y442007D01*
X583387Y442056D01*
G37*
G36*
X595387Y402056D02*
X595387Y402056D01*
X595415Y402066D01*
X595536Y402104D01*
X595814Y402246D01*
X595838Y402265D01*
X595941Y402338D01*
X596162Y402559D01*
X596179Y402584D01*
X596254Y402686D01*
X596396Y402964D01*
X596404Y402994D01*
X596444Y403113D01*
X596493Y403422D01*
X596492Y403455D01*
X596499Y403500D01*
X596499Y409500D01*
X596499Y409504D01*
X596499Y409506D01*
X596493Y409533D01*
X596493Y409578D01*
X596444Y409887D01*
X596434Y409915D01*
X596396Y410036D01*
X596254Y410314D01*
X596235Y410338D01*
X596162Y410441D01*
X595941Y410662D01*
X595916Y410679D01*
X595814Y410754D01*
X595536Y410896D01*
X595507Y410904D01*
X595387Y410944D01*
X595078Y410993D01*
X595048Y410992D01*
X594922Y410993D01*
X594613Y410944D01*
X594585Y410934D01*
X594464Y410896D01*
X594186Y410754D01*
X594162Y410735D01*
X594059Y410662D01*
X593838Y410441D01*
X593821Y410416D01*
X593746Y410314D01*
X593604Y410036D01*
X593596Y410006D01*
X593556Y409887D01*
X593507Y409578D01*
X593508Y409545D01*
X593501Y409500D01*
X593501Y403500D01*
X593503Y403490D01*
X593501Y403482D01*
X593507Y403457D01*
X593507Y403422D01*
X593556Y403113D01*
X593566Y403085D01*
X593604Y402964D01*
X593746Y402686D01*
X593765Y402662D01*
X593838Y402559D01*
X594059Y402338D01*
X594084Y402321D01*
X594186Y402246D01*
X594464Y402104D01*
X594494Y402096D01*
X594613Y402056D01*
X594922Y402007D01*
X594952Y402008D01*
X595078Y402007D01*
X595387Y402056D01*
G37*
G36*
X591387Y402056D02*
X591387Y402056D01*
X591415Y402066D01*
X591536Y402104D01*
X591814Y402246D01*
X591838Y402265D01*
X591941Y402338D01*
X592162Y402559D01*
X592179Y402584D01*
X592254Y402686D01*
X592396Y402964D01*
X592404Y402994D01*
X592444Y403113D01*
X592493Y403422D01*
X592492Y403455D01*
X592499Y403500D01*
X592499Y409500D01*
X592499Y409504D01*
X592499Y409506D01*
X592493Y409533D01*
X592493Y409578D01*
X592444Y409887D01*
X592434Y409915D01*
X592396Y410036D01*
X592254Y410314D01*
X592235Y410338D01*
X592162Y410441D01*
X591941Y410662D01*
X591916Y410679D01*
X591814Y410754D01*
X591536Y410896D01*
X591507Y410904D01*
X591387Y410944D01*
X591078Y410993D01*
X591048Y410992D01*
X590922Y410993D01*
X590613Y410944D01*
X590585Y410934D01*
X590464Y410896D01*
X590186Y410754D01*
X590162Y410735D01*
X590059Y410662D01*
X589838Y410441D01*
X589821Y410416D01*
X589746Y410314D01*
X589604Y410036D01*
X589596Y410006D01*
X589556Y409887D01*
X589507Y409578D01*
X589508Y409545D01*
X589501Y409500D01*
X589501Y403500D01*
X589503Y403490D01*
X589501Y403482D01*
X589507Y403457D01*
X589507Y403422D01*
X589556Y403113D01*
X589566Y403085D01*
X589604Y402964D01*
X589746Y402686D01*
X589765Y402662D01*
X589838Y402559D01*
X590059Y402338D01*
X590084Y402321D01*
X590186Y402246D01*
X590464Y402104D01*
X590494Y402096D01*
X590613Y402056D01*
X590922Y402007D01*
X590952Y402008D01*
X591078Y402007D01*
X591387Y402056D01*
G37*
G36*
X587387Y402056D02*
X587387Y402056D01*
X587415Y402066D01*
X587536Y402104D01*
X587814Y402246D01*
X587838Y402265D01*
X587941Y402338D01*
X588162Y402559D01*
X588179Y402584D01*
X588254Y402686D01*
X588396Y402964D01*
X588404Y402994D01*
X588444Y403113D01*
X588493Y403422D01*
X588492Y403455D01*
X588499Y403500D01*
X588499Y409500D01*
X588499Y409504D01*
X588499Y409506D01*
X588493Y409533D01*
X588493Y409578D01*
X588444Y409887D01*
X588434Y409915D01*
X588396Y410036D01*
X588254Y410314D01*
X588235Y410338D01*
X588162Y410441D01*
X587941Y410662D01*
X587916Y410679D01*
X587814Y410754D01*
X587536Y410896D01*
X587507Y410904D01*
X587387Y410944D01*
X587078Y410993D01*
X587048Y410992D01*
X586922Y410993D01*
X586613Y410944D01*
X586585Y410934D01*
X586464Y410896D01*
X586186Y410754D01*
X586162Y410735D01*
X586059Y410662D01*
X585838Y410441D01*
X585821Y410416D01*
X585746Y410314D01*
X585604Y410036D01*
X585596Y410006D01*
X585556Y409887D01*
X585507Y409578D01*
X585508Y409545D01*
X585501Y409500D01*
X585501Y403500D01*
X585503Y403490D01*
X585501Y403482D01*
X585507Y403457D01*
X585507Y403422D01*
X585556Y403113D01*
X585566Y403085D01*
X585604Y402964D01*
X585746Y402686D01*
X585765Y402662D01*
X585838Y402559D01*
X586059Y402338D01*
X586084Y402321D01*
X586186Y402246D01*
X586464Y402104D01*
X586494Y402096D01*
X586613Y402056D01*
X586922Y402007D01*
X586952Y402008D01*
X587078Y402007D01*
X587387Y402056D01*
G37*
G36*
X583387Y402056D02*
X583387Y402056D01*
X583415Y402066D01*
X583536Y402104D01*
X583814Y402246D01*
X583838Y402265D01*
X583941Y402338D01*
X584162Y402559D01*
X584179Y402584D01*
X584254Y402686D01*
X584396Y402964D01*
X584404Y402994D01*
X584444Y403113D01*
X584493Y403422D01*
X584492Y403455D01*
X584499Y403500D01*
X584499Y409500D01*
X584499Y409504D01*
X584499Y409506D01*
X584493Y409533D01*
X584493Y409578D01*
X584444Y409887D01*
X584434Y409915D01*
X584396Y410036D01*
X584254Y410314D01*
X584235Y410338D01*
X584162Y410441D01*
X583941Y410662D01*
X583916Y410679D01*
X583814Y410754D01*
X583536Y410896D01*
X583507Y410904D01*
X583387Y410944D01*
X583078Y410993D01*
X583048Y410992D01*
X582922Y410993D01*
X582613Y410944D01*
X582585Y410934D01*
X582464Y410896D01*
X582186Y410754D01*
X582162Y410735D01*
X582059Y410662D01*
X581838Y410441D01*
X581821Y410416D01*
X581746Y410314D01*
X581604Y410036D01*
X581596Y410006D01*
X581556Y409887D01*
X581507Y409578D01*
X581508Y409545D01*
X581501Y409500D01*
X581501Y403500D01*
X581503Y403490D01*
X581501Y403482D01*
X581507Y403457D01*
X581507Y403422D01*
X581556Y403113D01*
X581566Y403085D01*
X581604Y402964D01*
X581746Y402686D01*
X581765Y402662D01*
X581838Y402559D01*
X582059Y402338D01*
X582084Y402321D01*
X582186Y402246D01*
X582464Y402104D01*
X582494Y402096D01*
X582613Y402056D01*
X582922Y402007D01*
X582952Y402008D01*
X583078Y402007D01*
X583387Y402056D01*
G37*
G36*
X579387Y402056D02*
X579387Y402056D01*
X579415Y402066D01*
X579536Y402104D01*
X579814Y402246D01*
X579838Y402265D01*
X579941Y402338D01*
X580162Y402559D01*
X580179Y402584D01*
X580254Y402686D01*
X580396Y402964D01*
X580404Y402994D01*
X580444Y403113D01*
X580493Y403422D01*
X580492Y403455D01*
X580499Y403500D01*
X580499Y409500D01*
X580499Y409504D01*
X580499Y409506D01*
X580493Y409533D01*
X580493Y409578D01*
X580444Y409887D01*
X580434Y409915D01*
X580396Y410036D01*
X580254Y410314D01*
X580235Y410338D01*
X580162Y410441D01*
X579941Y410662D01*
X579916Y410679D01*
X579814Y410754D01*
X579536Y410896D01*
X579507Y410904D01*
X579387Y410944D01*
X579078Y410993D01*
X579048Y410992D01*
X578922Y410993D01*
X578613Y410944D01*
X578585Y410934D01*
X578464Y410896D01*
X578186Y410754D01*
X578162Y410735D01*
X578059Y410662D01*
X577838Y410441D01*
X577821Y410416D01*
X577746Y410314D01*
X577604Y410036D01*
X577596Y410006D01*
X577556Y409887D01*
X577507Y409578D01*
X577508Y409545D01*
X577501Y409500D01*
X577501Y403500D01*
X577503Y403490D01*
X577501Y403482D01*
X577507Y403457D01*
X577507Y403422D01*
X577556Y403113D01*
X577566Y403085D01*
X577604Y402964D01*
X577746Y402686D01*
X577765Y402662D01*
X577838Y402559D01*
X578059Y402338D01*
X578084Y402321D01*
X578186Y402246D01*
X578464Y402104D01*
X578494Y402096D01*
X578613Y402056D01*
X578922Y402007D01*
X578952Y402008D01*
X579078Y402007D01*
X579387Y402056D01*
G37*
G36*
X575387Y402056D02*
X575387Y402056D01*
X575415Y402066D01*
X575536Y402104D01*
X575814Y402246D01*
X575838Y402265D01*
X575941Y402338D01*
X576162Y402559D01*
X576179Y402584D01*
X576254Y402686D01*
X576396Y402964D01*
X576404Y402994D01*
X576444Y403113D01*
X576493Y403422D01*
X576492Y403455D01*
X576499Y403500D01*
X576499Y409500D01*
X576499Y409504D01*
X576499Y409506D01*
X576493Y409533D01*
X576493Y409578D01*
X576444Y409887D01*
X576434Y409915D01*
X576396Y410036D01*
X576254Y410314D01*
X576235Y410338D01*
X576162Y410441D01*
X575941Y410662D01*
X575916Y410679D01*
X575814Y410754D01*
X575536Y410896D01*
X575507Y410904D01*
X575387Y410944D01*
X575078Y410993D01*
X575048Y410992D01*
X574922Y410993D01*
X574613Y410944D01*
X574585Y410934D01*
X574464Y410896D01*
X574186Y410754D01*
X574162Y410735D01*
X574059Y410662D01*
X573838Y410441D01*
X573821Y410416D01*
X573746Y410314D01*
X573604Y410036D01*
X573596Y410006D01*
X573556Y409887D01*
X573507Y409578D01*
X573508Y409545D01*
X573501Y409500D01*
X573501Y403500D01*
X573503Y403490D01*
X573501Y403482D01*
X573507Y403457D01*
X573507Y403422D01*
X573556Y403113D01*
X573566Y403085D01*
X573604Y402964D01*
X573746Y402686D01*
X573765Y402662D01*
X573838Y402559D01*
X574059Y402338D01*
X574084Y402321D01*
X574186Y402246D01*
X574464Y402104D01*
X574494Y402096D01*
X574613Y402056D01*
X574922Y402007D01*
X574952Y402008D01*
X575078Y402007D01*
X575387Y402056D01*
G37*
G36*
X567533Y439007D02*
X567533Y439007D01*
X567578Y439007D01*
X567887Y439056D01*
X567915Y439066D01*
X568036Y439104D01*
X568314Y439246D01*
X568338Y439265D01*
X568441Y439338D01*
X568662Y439559D01*
X568679Y439584D01*
X568754Y439686D01*
X568896Y439964D01*
X568904Y439994D01*
X568944Y440113D01*
X568993Y440422D01*
X568992Y440452D01*
X568992Y440475D01*
X568999Y440515D01*
X568993Y440540D01*
X568993Y440578D01*
X568944Y440887D01*
X568934Y440915D01*
X568896Y441036D01*
X568754Y441314D01*
X568735Y441338D01*
X568662Y441441D01*
X568441Y441662D01*
X568416Y441679D01*
X568314Y441754D01*
X568036Y441896D01*
X568007Y441904D01*
X567887Y441944D01*
X567578Y441993D01*
X567546Y441992D01*
X567519Y441996D01*
X567518Y441996D01*
X567500Y441999D01*
X562000Y441999D01*
X561985Y441996D01*
X561981Y441996D01*
X561963Y441993D01*
X561922Y441993D01*
X561613Y441944D01*
X561585Y441934D01*
X561464Y441896D01*
X561186Y441754D01*
X561162Y441735D01*
X561059Y441662D01*
X560838Y441441D01*
X560821Y441416D01*
X560746Y441314D01*
X560604Y441036D01*
X560596Y441006D01*
X560556Y440887D01*
X560507Y440578D01*
X560508Y440548D01*
X560508Y440521D01*
X560501Y440482D01*
X560507Y440457D01*
X560507Y440422D01*
X560556Y440113D01*
X560566Y440085D01*
X560604Y439964D01*
X560746Y439686D01*
X560765Y439662D01*
X560838Y439559D01*
X561059Y439338D01*
X561084Y439321D01*
X561186Y439246D01*
X561464Y439104D01*
X561494Y439096D01*
X561613Y439056D01*
X561922Y439007D01*
X561955Y439008D01*
X562000Y439001D01*
X567500Y439001D01*
X567533Y439007D01*
G37*
G36*
X608033Y439007D02*
X608033Y439007D01*
X608078Y439007D01*
X608387Y439056D01*
X608415Y439066D01*
X608536Y439104D01*
X608814Y439246D01*
X608838Y439265D01*
X608941Y439338D01*
X609162Y439559D01*
X609179Y439584D01*
X609254Y439686D01*
X609396Y439964D01*
X609404Y439994D01*
X609444Y440113D01*
X609493Y440422D01*
X609492Y440452D01*
X609492Y440475D01*
X609499Y440515D01*
X609493Y440540D01*
X609493Y440578D01*
X609444Y440887D01*
X609434Y440915D01*
X609396Y441036D01*
X609254Y441314D01*
X609235Y441338D01*
X609162Y441441D01*
X608941Y441662D01*
X608916Y441679D01*
X608814Y441754D01*
X608536Y441896D01*
X608507Y441904D01*
X608387Y441944D01*
X608078Y441993D01*
X608046Y441992D01*
X608019Y441996D01*
X608018Y441996D01*
X608000Y441999D01*
X602500Y441999D01*
X602485Y441996D01*
X602481Y441996D01*
X602463Y441993D01*
X602422Y441993D01*
X602113Y441944D01*
X602085Y441934D01*
X601964Y441896D01*
X601686Y441754D01*
X601662Y441735D01*
X601559Y441662D01*
X601338Y441441D01*
X601321Y441416D01*
X601246Y441314D01*
X601104Y441036D01*
X601096Y441006D01*
X601056Y440887D01*
X601007Y440578D01*
X601008Y440548D01*
X601008Y440521D01*
X601001Y440482D01*
X601007Y440457D01*
X601007Y440422D01*
X601056Y440113D01*
X601066Y440085D01*
X601104Y439964D01*
X601246Y439686D01*
X601265Y439662D01*
X601338Y439559D01*
X601559Y439338D01*
X601584Y439321D01*
X601686Y439246D01*
X601964Y439104D01*
X601994Y439096D01*
X602113Y439056D01*
X602422Y439007D01*
X602455Y439008D01*
X602500Y439001D01*
X608000Y439001D01*
X608033Y439007D01*
G37*
G36*
X567533Y411007D02*
X567533Y411007D01*
X567578Y411007D01*
X567887Y411056D01*
X567915Y411066D01*
X568036Y411104D01*
X568314Y411246D01*
X568338Y411265D01*
X568441Y411338D01*
X568662Y411559D01*
X568679Y411584D01*
X568754Y411686D01*
X568896Y411964D01*
X568904Y411994D01*
X568944Y412113D01*
X568993Y412422D01*
X568992Y412452D01*
X568992Y412475D01*
X568999Y412515D01*
X568993Y412540D01*
X568993Y412578D01*
X568944Y412887D01*
X568934Y412915D01*
X568896Y413036D01*
X568754Y413314D01*
X568735Y413338D01*
X568662Y413441D01*
X568441Y413662D01*
X568416Y413679D01*
X568314Y413754D01*
X568036Y413896D01*
X568007Y413904D01*
X567887Y413944D01*
X567578Y413993D01*
X567546Y413992D01*
X567519Y413996D01*
X567518Y413996D01*
X567500Y413999D01*
X562000Y413999D01*
X561985Y413996D01*
X561981Y413996D01*
X561963Y413993D01*
X561922Y413993D01*
X561613Y413944D01*
X561585Y413934D01*
X561464Y413896D01*
X561186Y413754D01*
X561162Y413735D01*
X561059Y413662D01*
X560838Y413441D01*
X560821Y413416D01*
X560746Y413314D01*
X560604Y413036D01*
X560596Y413006D01*
X560556Y412887D01*
X560507Y412578D01*
X560508Y412548D01*
X560508Y412521D01*
X560501Y412482D01*
X560507Y412457D01*
X560507Y412422D01*
X560556Y412113D01*
X560566Y412085D01*
X560604Y411964D01*
X560746Y411686D01*
X560765Y411662D01*
X560838Y411559D01*
X561059Y411338D01*
X561084Y411321D01*
X561186Y411246D01*
X561464Y411104D01*
X561494Y411096D01*
X561613Y411056D01*
X561922Y411007D01*
X561955Y411008D01*
X562000Y411001D01*
X567500Y411001D01*
X567533Y411007D01*
G37*
G36*
X608033Y411007D02*
X608033Y411007D01*
X608078Y411007D01*
X608387Y411056D01*
X608415Y411066D01*
X608536Y411104D01*
X608814Y411246D01*
X608838Y411265D01*
X608941Y411338D01*
X609162Y411559D01*
X609179Y411584D01*
X609254Y411686D01*
X609396Y411964D01*
X609404Y411994D01*
X609444Y412113D01*
X609493Y412422D01*
X609492Y412452D01*
X609492Y412475D01*
X609499Y412515D01*
X609493Y412540D01*
X609493Y412578D01*
X609444Y412887D01*
X609434Y412915D01*
X609396Y413036D01*
X609254Y413314D01*
X609235Y413338D01*
X609162Y413441D01*
X608941Y413662D01*
X608916Y413679D01*
X608814Y413754D01*
X608536Y413896D01*
X608507Y413904D01*
X608387Y413944D01*
X608078Y413993D01*
X608046Y413992D01*
X608019Y413996D01*
X608018Y413996D01*
X608000Y413999D01*
X602500Y413999D01*
X602485Y413996D01*
X602481Y413996D01*
X602463Y413993D01*
X602422Y413993D01*
X602113Y413944D01*
X602085Y413934D01*
X601964Y413896D01*
X601686Y413754D01*
X601662Y413735D01*
X601559Y413662D01*
X601338Y413441D01*
X601321Y413416D01*
X601246Y413314D01*
X601104Y413036D01*
X601096Y413006D01*
X601056Y412887D01*
X601007Y412578D01*
X601008Y412548D01*
X601008Y412521D01*
X601001Y412482D01*
X601007Y412457D01*
X601007Y412422D01*
X601056Y412113D01*
X601066Y412085D01*
X601104Y411964D01*
X601246Y411686D01*
X601265Y411662D01*
X601338Y411559D01*
X601559Y411338D01*
X601584Y411321D01*
X601686Y411246D01*
X601964Y411104D01*
X601994Y411096D01*
X602113Y411056D01*
X602422Y411007D01*
X602455Y411008D01*
X602500Y411001D01*
X608000Y411001D01*
X608033Y411007D01*
G37*
G36*
X571387Y442556D02*
X571387Y442556D01*
X571415Y442566D01*
X571536Y442604D01*
X571814Y442746D01*
X571838Y442765D01*
X571941Y442838D01*
X572162Y443059D01*
X572179Y443084D01*
X572254Y443186D01*
X572396Y443464D01*
X572404Y443494D01*
X572444Y443613D01*
X572493Y443922D01*
X572492Y443955D01*
X572499Y444000D01*
X572499Y449500D01*
X572498Y449504D01*
X572499Y449507D01*
X572493Y449533D01*
X572493Y449578D01*
X572444Y449887D01*
X572434Y449915D01*
X572396Y450036D01*
X572254Y450314D01*
X572235Y450338D01*
X572162Y450441D01*
X571941Y450662D01*
X571916Y450679D01*
X571814Y450754D01*
X571536Y450896D01*
X571507Y450904D01*
X571387Y450944D01*
X571078Y450993D01*
X571048Y450992D01*
X570922Y450993D01*
X570613Y450944D01*
X570585Y450934D01*
X570464Y450896D01*
X570186Y450754D01*
X570162Y450735D01*
X570059Y450662D01*
X569838Y450441D01*
X569821Y450416D01*
X569746Y450314D01*
X569604Y450036D01*
X569596Y450006D01*
X569556Y449887D01*
X569507Y449578D01*
X569508Y449545D01*
X569501Y449500D01*
X569501Y444000D01*
X569503Y443990D01*
X569501Y443982D01*
X569507Y443957D01*
X569507Y443922D01*
X569556Y443613D01*
X569566Y443585D01*
X569604Y443464D01*
X569746Y443186D01*
X569765Y443162D01*
X569838Y443059D01*
X570059Y442838D01*
X570084Y442821D01*
X570186Y442746D01*
X570464Y442604D01*
X570494Y442596D01*
X570613Y442556D01*
X570922Y442507D01*
X570952Y442508D01*
X571078Y442507D01*
X571387Y442556D01*
G37*
G36*
X599387Y442556D02*
X599387Y442556D01*
X599415Y442566D01*
X599536Y442604D01*
X599814Y442746D01*
X599838Y442765D01*
X599941Y442838D01*
X600162Y443059D01*
X600179Y443084D01*
X600254Y443186D01*
X600396Y443464D01*
X600404Y443494D01*
X600444Y443613D01*
X600493Y443922D01*
X600492Y443955D01*
X600499Y444000D01*
X600499Y449500D01*
X600498Y449504D01*
X600499Y449507D01*
X600493Y449533D01*
X600493Y449578D01*
X600444Y449887D01*
X600434Y449915D01*
X600396Y450036D01*
X600254Y450314D01*
X600235Y450338D01*
X600162Y450441D01*
X599941Y450662D01*
X599916Y450679D01*
X599814Y450754D01*
X599536Y450896D01*
X599507Y450904D01*
X599387Y450944D01*
X599078Y450993D01*
X599048Y450992D01*
X598922Y450993D01*
X598613Y450944D01*
X598585Y450934D01*
X598464Y450896D01*
X598186Y450754D01*
X598162Y450735D01*
X598059Y450662D01*
X597838Y450441D01*
X597821Y450416D01*
X597746Y450314D01*
X597604Y450036D01*
X597596Y450006D01*
X597556Y449887D01*
X597507Y449578D01*
X597508Y449545D01*
X597501Y449500D01*
X597501Y444000D01*
X597503Y443990D01*
X597501Y443982D01*
X597507Y443957D01*
X597507Y443922D01*
X597556Y443613D01*
X597566Y443585D01*
X597604Y443464D01*
X597746Y443186D01*
X597765Y443162D01*
X597838Y443059D01*
X598059Y442838D01*
X598084Y442821D01*
X598186Y442746D01*
X598464Y442604D01*
X598494Y442596D01*
X598613Y442556D01*
X598922Y442507D01*
X598952Y442508D01*
X599078Y442507D01*
X599387Y442556D01*
G37*
G36*
X599387Y402056D02*
X599387Y402056D01*
X599415Y402066D01*
X599536Y402104D01*
X599814Y402246D01*
X599838Y402265D01*
X599941Y402338D01*
X600162Y402559D01*
X600179Y402584D01*
X600254Y402686D01*
X600396Y402964D01*
X600404Y402994D01*
X600444Y403113D01*
X600493Y403422D01*
X600492Y403455D01*
X600499Y403500D01*
X600499Y409000D01*
X600498Y409004D01*
X600499Y409007D01*
X600493Y409033D01*
X600493Y409078D01*
X600444Y409387D01*
X600434Y409415D01*
X600396Y409536D01*
X600254Y409814D01*
X600235Y409838D01*
X600162Y409941D01*
X599941Y410162D01*
X599916Y410179D01*
X599814Y410254D01*
X599536Y410396D01*
X599507Y410404D01*
X599387Y410444D01*
X599078Y410493D01*
X599048Y410492D01*
X598922Y410493D01*
X598613Y410444D01*
X598585Y410434D01*
X598464Y410396D01*
X598186Y410254D01*
X598162Y410235D01*
X598059Y410162D01*
X597838Y409941D01*
X597821Y409916D01*
X597746Y409814D01*
X597604Y409536D01*
X597596Y409506D01*
X597556Y409387D01*
X597507Y409078D01*
X597508Y409045D01*
X597501Y409000D01*
X597501Y403500D01*
X597503Y403490D01*
X597501Y403482D01*
X597507Y403457D01*
X597507Y403422D01*
X597556Y403113D01*
X597566Y403085D01*
X597604Y402964D01*
X597746Y402686D01*
X597765Y402662D01*
X597838Y402559D01*
X598059Y402338D01*
X598084Y402321D01*
X598186Y402246D01*
X598464Y402104D01*
X598494Y402096D01*
X598613Y402056D01*
X598922Y402007D01*
X598952Y402008D01*
X599078Y402007D01*
X599387Y402056D01*
G37*
G36*
X571387Y402056D02*
X571387Y402056D01*
X571415Y402066D01*
X571536Y402104D01*
X571814Y402246D01*
X571838Y402265D01*
X571941Y402338D01*
X572162Y402559D01*
X572179Y402584D01*
X572254Y402686D01*
X572396Y402964D01*
X572404Y402994D01*
X572444Y403113D01*
X572493Y403422D01*
X572492Y403455D01*
X572499Y403500D01*
X572499Y409000D01*
X572498Y409004D01*
X572499Y409007D01*
X572493Y409033D01*
X572493Y409078D01*
X572444Y409387D01*
X572434Y409415D01*
X572396Y409536D01*
X572254Y409814D01*
X572235Y409838D01*
X572162Y409941D01*
X571941Y410162D01*
X571916Y410179D01*
X571814Y410254D01*
X571536Y410396D01*
X571507Y410404D01*
X571387Y410444D01*
X571078Y410493D01*
X571048Y410492D01*
X570922Y410493D01*
X570613Y410444D01*
X570585Y410434D01*
X570464Y410396D01*
X570186Y410254D01*
X570162Y410235D01*
X570059Y410162D01*
X569838Y409941D01*
X569821Y409916D01*
X569746Y409814D01*
X569604Y409536D01*
X569596Y409506D01*
X569556Y409387D01*
X569507Y409078D01*
X569508Y409045D01*
X569501Y409000D01*
X569501Y403500D01*
X569503Y403490D01*
X569501Y403482D01*
X569507Y403457D01*
X569507Y403422D01*
X569556Y403113D01*
X569566Y403085D01*
X569604Y402964D01*
X569746Y402686D01*
X569765Y402662D01*
X569838Y402559D01*
X570059Y402338D01*
X570084Y402321D01*
X570186Y402246D01*
X570464Y402104D01*
X570494Y402096D01*
X570613Y402056D01*
X570922Y402007D01*
X570952Y402008D01*
X571078Y402007D01*
X571387Y402056D01*
G37*
D10*
X402500Y195494D03*
X407500Y195494D03*
X412500Y195494D03*
X417500Y195494D03*
X422500Y195494D03*
X427500Y195494D03*
D11*
X434506Y202500D03*
X434506Y207500D03*
X434506Y212500D03*
X434506Y217500D03*
X434506Y222500D03*
X434506Y227500D03*
D10*
X427500Y234506D03*
X422500Y234506D03*
X417500Y234506D03*
X412500Y234506D03*
X407500Y234506D03*
X402500Y234506D03*
D11*
X395494Y227500D03*
X395494Y222500D03*
X395494Y217500D03*
X395494Y212500D03*
X395494Y207500D03*
X395494Y202500D03*
D12*
X415000Y215000D03*
D10*
X402500Y300494D03*
X407500Y300494D03*
X412500Y300494D03*
X417500Y300494D03*
X422500Y300494D03*
X427500Y300494D03*
D11*
X434506Y307500D03*
X434506Y312500D03*
X434506Y317500D03*
X434506Y322500D03*
X434506Y327500D03*
X434506Y332500D03*
D10*
X427500Y339506D03*
X422500Y339506D03*
X417500Y339506D03*
X412500Y339506D03*
X407500Y339506D03*
X402500Y339506D03*
D11*
X395494Y332500D03*
X395494Y327500D03*
X395494Y322500D03*
X395494Y317500D03*
X395494Y312500D03*
X395494Y307500D03*
D12*
X415000Y320000D03*
D13*
X284000Y282500D03*
X284000Y287500D03*
X284000Y292500D03*
X284000Y297500D03*
D14*
X277500Y304000D03*
X272500Y304000D03*
X267500Y304000D03*
X262500Y304000D03*
D13*
X256000Y297500D03*
X256000Y292500D03*
X256000Y287500D03*
X256000Y282500D03*
D14*
X262500Y276000D03*
X267500Y276000D03*
X272500Y276000D03*
X277500Y276000D03*
D15*
X270000Y290000D03*
D16*
X555000Y250000D03*
D17*
X589500Y222000D03*
X589500Y225500D03*
X589500Y229000D03*
X589500Y232500D03*
X589500Y236000D03*
X589500Y239500D03*
X589500Y243000D03*
X589500Y246500D03*
X589500Y250000D03*
X589500Y253500D03*
X589500Y257000D03*
X589500Y260500D03*
X589500Y264000D03*
X589500Y267500D03*
X589500Y271000D03*
X589500Y274500D03*
X589500Y278000D03*
D18*
X583000Y284500D03*
X579500Y284500D03*
X576000Y284500D03*
X572500Y284500D03*
X569000Y284500D03*
X565500Y284500D03*
X562000Y284500D03*
X558500Y284500D03*
X555000Y284500D03*
X551500Y284500D03*
X548000Y284500D03*
X544500Y284500D03*
X541000Y284500D03*
X537500Y284500D03*
X534000Y284500D03*
X530500Y284500D03*
X527000Y284500D03*
D17*
X520500Y278000D03*
X520500Y274500D03*
X520500Y271000D03*
X520500Y267500D03*
X520500Y264000D03*
X520500Y260500D03*
X520500Y257000D03*
X520500Y253500D03*
X520500Y250000D03*
X520500Y246500D03*
X520500Y243000D03*
X520500Y239500D03*
X520500Y236000D03*
X520500Y232500D03*
X520500Y229000D03*
X520500Y225500D03*
X520500Y222000D03*
D18*
X527000Y215500D03*
X530500Y215500D03*
X534000Y215500D03*
X537500Y215500D03*
X541000Y215500D03*
X544500Y215500D03*
X548000Y215500D03*
X551500Y215500D03*
X555000Y215500D03*
X558500Y215500D03*
X562000Y215500D03*
X565500Y215500D03*
X569000Y215500D03*
X572500Y215500D03*
X576000Y215500D03*
X579500Y215500D03*
X583000Y215500D03*
D19*
X242014Y275514D02*
X242014Y279486D01*
X245986Y279486D01*
X245986Y275514D01*
X242014Y275514D01*
X242014Y277457D02*
X245986Y277457D01*
X245986Y279400D02*
X242014Y279400D01*
X242014Y269486D02*
X242014Y265514D01*
X242014Y269486D02*
X245986Y269486D01*
X245986Y265514D01*
X242014Y265514D01*
X242014Y267457D02*
X245986Y267457D01*
X245986Y269400D02*
X242014Y269400D01*
X235986Y279486D02*
X232014Y279486D01*
X235986Y279486D02*
X235986Y275514D01*
X232014Y275514D01*
X232014Y279486D01*
X232014Y277457D02*
X235986Y277457D01*
X235986Y279400D02*
X232014Y279400D01*
X225986Y279486D02*
X222014Y279486D01*
X225986Y279486D02*
X225986Y275514D01*
X222014Y275514D01*
X222014Y279486D01*
X222014Y277457D02*
X225986Y277457D01*
X225986Y279400D02*
X222014Y279400D01*
X222014Y269486D02*
X225986Y269486D01*
X225986Y265514D01*
X222014Y265514D01*
X222014Y269486D01*
X222014Y267457D02*
X225986Y267457D01*
X225986Y269400D02*
X222014Y269400D01*
X215986Y269486D02*
X212014Y269486D01*
X215986Y269486D02*
X215986Y265514D01*
X212014Y265514D01*
X212014Y269486D01*
X212014Y267457D02*
X215986Y267457D01*
X215986Y269400D02*
X212014Y269400D01*
X232014Y255514D02*
X235986Y255514D01*
X232014Y255514D02*
X232014Y259486D01*
X235986Y259486D01*
X235986Y255514D01*
X235986Y257457D02*
X232014Y257457D01*
X232014Y259400D02*
X235986Y259400D01*
X242014Y255514D02*
X245986Y255514D01*
X242014Y255514D02*
X242014Y259486D01*
X245986Y259486D01*
X245986Y255514D01*
X245986Y257457D02*
X242014Y257457D01*
X242014Y259400D02*
X245986Y259400D01*
X225986Y259486D02*
X222014Y259486D01*
X225986Y259486D02*
X225986Y255514D01*
X222014Y255514D01*
X222014Y259486D01*
X222014Y257457D02*
X225986Y257457D01*
X225986Y259400D02*
X222014Y259400D01*
X215986Y259486D02*
X212014Y259486D01*
X215986Y259486D02*
X215986Y255514D01*
X212014Y255514D01*
X212014Y259486D01*
X212014Y257457D02*
X215986Y257457D01*
X215986Y259400D02*
X212014Y259400D01*
X257014Y259014D02*
X257014Y262986D01*
X260986Y262986D01*
X260986Y259014D01*
X257014Y259014D01*
X257014Y260957D02*
X260986Y260957D01*
X260986Y262900D02*
X257014Y262900D01*
X257014Y252986D02*
X257014Y249014D01*
X257014Y252986D02*
X260986Y252986D01*
X260986Y249014D01*
X257014Y249014D01*
X257014Y250957D02*
X260986Y250957D01*
X260986Y252900D02*
X257014Y252900D01*
X246986Y295514D02*
X246986Y299486D01*
X246986Y295514D02*
X243014Y295514D01*
X243014Y299486D01*
X246986Y299486D01*
X246986Y297457D02*
X243014Y297457D01*
X243014Y299400D02*
X246986Y299400D01*
X246986Y305514D02*
X246986Y309486D01*
X246986Y305514D02*
X243014Y305514D01*
X243014Y309486D01*
X246986Y309486D01*
X246986Y307457D02*
X243014Y307457D01*
X243014Y309400D02*
X246986Y309400D01*
X236986Y299486D02*
X233014Y299486D01*
X236986Y299486D02*
X236986Y295514D01*
X233014Y295514D01*
X233014Y299486D01*
X233014Y297457D02*
X236986Y297457D01*
X236986Y299400D02*
X233014Y299400D01*
X226986Y299486D02*
X223014Y299486D01*
X226986Y299486D02*
X226986Y295514D01*
X223014Y295514D01*
X223014Y299486D01*
X223014Y297457D02*
X226986Y297457D01*
X226986Y299400D02*
X223014Y299400D01*
X216986Y299486D02*
X216986Y295514D01*
X213014Y295514D01*
X213014Y299486D01*
X216986Y299486D01*
X216986Y297457D02*
X213014Y297457D01*
X213014Y299400D02*
X216986Y299400D01*
X216986Y305514D02*
X216986Y309486D01*
X216986Y305514D02*
X213014Y305514D01*
X213014Y309486D01*
X216986Y309486D01*
X216986Y307457D02*
X213014Y307457D01*
X213014Y309400D02*
X216986Y309400D01*
X206986Y299486D02*
X203014Y299486D01*
X206986Y299486D02*
X206986Y295514D01*
X203014Y295514D01*
X203014Y299486D01*
X203014Y297457D02*
X206986Y297457D01*
X206986Y299400D02*
X203014Y299400D01*
X196986Y299486D02*
X193014Y299486D01*
X196986Y299486D02*
X196986Y295514D01*
X193014Y295514D01*
X193014Y299486D01*
X193014Y297457D02*
X196986Y297457D01*
X196986Y299400D02*
X193014Y299400D01*
X183014Y288986D02*
X183014Y285014D01*
X183014Y288986D02*
X186986Y288986D01*
X186986Y285014D01*
X183014Y285014D01*
X183014Y286957D02*
X186986Y286957D01*
X186986Y288900D02*
X183014Y288900D01*
X183014Y278986D02*
X183014Y275014D01*
X183014Y278986D02*
X186986Y278986D01*
X186986Y275014D01*
X183014Y275014D01*
X183014Y276957D02*
X186986Y276957D01*
X186986Y278900D02*
X183014Y278900D01*
X186986Y295514D02*
X186986Y299486D01*
X186986Y295514D02*
X183014Y295514D01*
X183014Y299486D01*
X186986Y299486D01*
X186986Y297457D02*
X183014Y297457D01*
X183014Y299400D02*
X186986Y299400D01*
X186986Y305514D02*
X186986Y309486D01*
X186986Y305514D02*
X183014Y305514D01*
X183014Y309486D01*
X186986Y309486D01*
X186986Y307457D02*
X183014Y307457D01*
X183014Y309400D02*
X186986Y309400D01*
X277014Y262986D02*
X277014Y259014D01*
X277014Y262986D02*
X280986Y262986D01*
X280986Y259014D01*
X277014Y259014D01*
X277014Y260957D02*
X280986Y260957D01*
X280986Y262900D02*
X277014Y262900D01*
X277014Y252986D02*
X277014Y249014D01*
X277014Y252986D02*
X280986Y252986D01*
X280986Y249014D01*
X277014Y249014D01*
X277014Y250957D02*
X280986Y250957D01*
X280986Y252900D02*
X277014Y252900D01*
X277014Y239014D02*
X280986Y239014D01*
X277014Y239014D02*
X277014Y242986D01*
X280986Y242986D01*
X280986Y239014D01*
X280986Y240957D02*
X277014Y240957D01*
X277014Y242900D02*
X280986Y242900D01*
X287014Y239014D02*
X290986Y239014D01*
X287014Y239014D02*
X287014Y242986D01*
X290986Y242986D01*
X290986Y239014D01*
X290986Y240957D02*
X287014Y240957D01*
X287014Y242900D02*
X290986Y242900D01*
X260986Y242986D02*
X257014Y242986D01*
X260986Y242986D02*
X260986Y239014D01*
X257014Y239014D01*
X257014Y242986D01*
X257014Y240957D02*
X260986Y240957D01*
X260986Y242900D02*
X257014Y242900D01*
X250986Y242986D02*
X247014Y242986D01*
X250986Y242986D02*
X250986Y239014D01*
X247014Y239014D01*
X247014Y242986D01*
X247014Y240957D02*
X250986Y240957D01*
X250986Y242900D02*
X247014Y242900D01*
X306014Y280486D02*
X309986Y280486D01*
X309986Y276514D01*
X306014Y276514D01*
X306014Y280486D01*
X306014Y278457D02*
X309986Y278457D01*
X309986Y280400D02*
X306014Y280400D01*
X299986Y280486D02*
X296014Y280486D01*
X299986Y280486D02*
X299986Y276514D01*
X296014Y276514D01*
X296014Y280486D01*
X296014Y278457D02*
X299986Y278457D01*
X299986Y280400D02*
X296014Y280400D01*
X316014Y280486D02*
X316014Y276514D01*
X316014Y280486D02*
X319986Y280486D01*
X319986Y276514D01*
X316014Y276514D01*
X316014Y278457D02*
X319986Y278457D01*
X319986Y280400D02*
X316014Y280400D01*
X316014Y270486D02*
X316014Y266514D01*
X316014Y270486D02*
X319986Y270486D01*
X319986Y266514D01*
X316014Y266514D01*
X316014Y268457D02*
X319986Y268457D01*
X319986Y270400D02*
X316014Y270400D01*
X329986Y270486D02*
X329986Y266514D01*
X326014Y266514D01*
X326014Y270486D01*
X329986Y270486D01*
X329986Y268457D02*
X326014Y268457D01*
X326014Y270400D02*
X329986Y270400D01*
X329986Y276514D02*
X329986Y280486D01*
X329986Y276514D02*
X326014Y276514D01*
X326014Y280486D01*
X329986Y280486D01*
X329986Y278457D02*
X326014Y278457D01*
X326014Y280400D02*
X329986Y280400D01*
X329986Y256514D02*
X326014Y256514D01*
X326014Y260486D01*
X329986Y260486D01*
X329986Y256514D01*
X329986Y258457D02*
X326014Y258457D01*
X326014Y260400D02*
X329986Y260400D01*
X336014Y256514D02*
X339986Y256514D01*
X336014Y256514D02*
X336014Y260486D01*
X339986Y260486D01*
X339986Y256514D01*
X339986Y258457D02*
X336014Y258457D01*
X336014Y260400D02*
X339986Y260400D01*
X331986Y296986D02*
X328014Y296986D01*
X331986Y296986D02*
X331986Y293014D01*
X328014Y293014D01*
X328014Y296986D01*
X328014Y294957D02*
X331986Y294957D01*
X331986Y296900D02*
X328014Y296900D01*
X321986Y296986D02*
X318014Y296986D01*
X321986Y296986D02*
X321986Y293014D01*
X318014Y293014D01*
X318014Y296986D01*
X318014Y294957D02*
X321986Y294957D01*
X321986Y296900D02*
X318014Y296900D01*
X325514Y343014D02*
X325514Y346986D01*
X329486Y346986D01*
X329486Y343014D01*
X325514Y343014D01*
X325514Y344957D02*
X329486Y344957D01*
X329486Y346900D02*
X325514Y346900D01*
X325514Y336986D02*
X325514Y333014D01*
X325514Y336986D02*
X329486Y336986D01*
X329486Y333014D01*
X325514Y333014D01*
X325514Y334957D02*
X329486Y334957D01*
X329486Y336900D02*
X325514Y336900D01*
X329486Y316986D02*
X329486Y313014D01*
X325514Y313014D01*
X325514Y316986D01*
X329486Y316986D01*
X329486Y314957D02*
X325514Y314957D01*
X325514Y316900D02*
X329486Y316900D01*
X329486Y323014D02*
X329486Y326986D01*
X329486Y323014D02*
X325514Y323014D01*
X325514Y326986D01*
X329486Y326986D01*
X329486Y324957D02*
X325514Y324957D01*
X325514Y326900D02*
X329486Y326900D01*
X305514Y353014D02*
X305514Y356986D01*
X309486Y356986D01*
X309486Y353014D01*
X305514Y353014D01*
X305514Y354957D02*
X309486Y354957D01*
X309486Y356900D02*
X305514Y356900D01*
X305514Y346986D02*
X305514Y343014D01*
X305514Y346986D02*
X309486Y346986D01*
X309486Y343014D01*
X305514Y343014D01*
X305514Y344957D02*
X309486Y344957D01*
X309486Y346900D02*
X305514Y346900D01*
X299486Y333014D02*
X295514Y333014D01*
X295514Y336986D01*
X299486Y336986D01*
X299486Y333014D01*
X299486Y334957D02*
X295514Y334957D01*
X295514Y336900D02*
X299486Y336900D01*
X305514Y333014D02*
X309486Y333014D01*
X305514Y333014D02*
X305514Y336986D01*
X309486Y336986D01*
X309486Y333014D01*
X309486Y334957D02*
X305514Y334957D01*
X305514Y336900D02*
X309486Y336900D01*
X315514Y343014D02*
X315514Y346986D01*
X319486Y346986D01*
X319486Y343014D01*
X315514Y343014D01*
X315514Y344957D02*
X319486Y344957D01*
X319486Y346900D02*
X315514Y346900D01*
X315514Y336986D02*
X315514Y333014D01*
X315514Y336986D02*
X319486Y336986D01*
X319486Y333014D01*
X315514Y333014D01*
X315514Y334957D02*
X319486Y334957D01*
X319486Y336900D02*
X315514Y336900D01*
X319486Y316986D02*
X319486Y313014D01*
X315514Y313014D01*
X315514Y316986D01*
X319486Y316986D01*
X319486Y314957D02*
X315514Y314957D01*
X315514Y316900D02*
X319486Y316900D01*
X319486Y323014D02*
X319486Y326986D01*
X319486Y323014D02*
X315514Y323014D01*
X315514Y326986D01*
X319486Y326986D01*
X319486Y324957D02*
X315514Y324957D01*
X315514Y326900D02*
X319486Y326900D01*
X361986Y209486D02*
X361986Y205514D01*
X358014Y205514D01*
X358014Y209486D01*
X361986Y209486D01*
X361986Y207457D02*
X358014Y207457D01*
X358014Y209400D02*
X361986Y209400D01*
X361986Y215514D02*
X361986Y219486D01*
X361986Y215514D02*
X358014Y215514D01*
X358014Y219486D01*
X361986Y219486D01*
X361986Y217457D02*
X358014Y217457D01*
X358014Y219400D02*
X361986Y219400D01*
X368014Y235514D02*
X368014Y239486D01*
X371986Y239486D01*
X371986Y235514D01*
X368014Y235514D01*
X368014Y237457D02*
X371986Y237457D01*
X371986Y239400D02*
X368014Y239400D01*
X368014Y229486D02*
X368014Y225514D01*
X368014Y229486D02*
X371986Y229486D01*
X371986Y225514D01*
X368014Y225514D01*
X368014Y227457D02*
X371986Y227457D01*
X371986Y229400D02*
X368014Y229400D01*
X371986Y209486D02*
X371986Y205514D01*
X368014Y205514D01*
X368014Y209486D01*
X371986Y209486D01*
X371986Y207457D02*
X368014Y207457D01*
X368014Y209400D02*
X371986Y209400D01*
X371986Y215514D02*
X371986Y219486D01*
X371986Y215514D02*
X368014Y215514D01*
X368014Y219486D01*
X371986Y219486D01*
X371986Y217457D02*
X368014Y217457D01*
X368014Y219400D02*
X371986Y219400D01*
X371986Y249486D02*
X368014Y249486D01*
X371986Y249486D02*
X371986Y245514D01*
X368014Y245514D01*
X368014Y249486D01*
X368014Y247457D02*
X371986Y247457D01*
X371986Y249400D02*
X368014Y249400D01*
X361986Y249486D02*
X358014Y249486D01*
X361986Y249486D02*
X361986Y245514D01*
X358014Y245514D01*
X358014Y249486D01*
X358014Y247457D02*
X361986Y247457D01*
X361986Y249400D02*
X358014Y249400D01*
X332986Y209486D02*
X332986Y205514D01*
X329014Y205514D01*
X329014Y209486D01*
X332986Y209486D01*
X332986Y207457D02*
X329014Y207457D01*
X329014Y209400D02*
X332986Y209400D01*
X332986Y215514D02*
X332986Y219486D01*
X332986Y215514D02*
X329014Y215514D01*
X329014Y219486D01*
X332986Y219486D01*
X332986Y217457D02*
X329014Y217457D01*
X329014Y219400D02*
X332986Y219400D01*
X369014Y199486D02*
X372986Y199486D01*
X372986Y195514D01*
X369014Y195514D01*
X369014Y199486D01*
X369014Y197457D02*
X372986Y197457D01*
X372986Y199400D02*
X369014Y199400D01*
X362986Y199486D02*
X359014Y199486D01*
X362986Y199486D02*
X362986Y195514D01*
X359014Y195514D01*
X359014Y199486D01*
X359014Y197457D02*
X362986Y197457D01*
X362986Y199400D02*
X359014Y199400D01*
X378014Y199486D02*
X378014Y195514D01*
X378014Y199486D02*
X381986Y199486D01*
X381986Y195514D01*
X378014Y195514D01*
X378014Y197457D02*
X381986Y197457D01*
X381986Y199400D02*
X378014Y199400D01*
X378014Y189486D02*
X378014Y185514D01*
X378014Y189486D02*
X381986Y189486D01*
X381986Y185514D01*
X378014Y185514D01*
X378014Y187457D02*
X381986Y187457D01*
X381986Y189400D02*
X378014Y189400D01*
X352986Y189486D02*
X352986Y185514D01*
X349014Y185514D01*
X349014Y189486D01*
X352986Y189486D01*
X352986Y187457D02*
X349014Y187457D01*
X349014Y189400D02*
X352986Y189400D01*
X352986Y195514D02*
X352986Y199486D01*
X352986Y195514D02*
X349014Y195514D01*
X349014Y199486D01*
X352986Y199486D01*
X352986Y197457D02*
X349014Y197457D01*
X349014Y199400D02*
X352986Y199400D01*
X332986Y195514D02*
X329014Y195514D01*
X329014Y199486D01*
X332986Y199486D01*
X332986Y195514D01*
X332986Y197457D02*
X329014Y197457D01*
X329014Y199400D02*
X332986Y199400D01*
X339014Y195514D02*
X342986Y195514D01*
X339014Y195514D02*
X339014Y199486D01*
X342986Y199486D01*
X342986Y195514D01*
X342986Y197457D02*
X339014Y197457D01*
X339014Y199400D02*
X342986Y199400D01*
X322986Y225514D02*
X319014Y225514D01*
X319014Y229486D01*
X322986Y229486D01*
X322986Y225514D01*
X322986Y227457D02*
X319014Y227457D01*
X319014Y229400D02*
X322986Y229400D01*
X329014Y225514D02*
X332986Y225514D01*
X329014Y225514D02*
X329014Y229486D01*
X332986Y229486D01*
X332986Y225514D01*
X332986Y227457D02*
X329014Y227457D01*
X329014Y229400D02*
X332986Y229400D01*
X368014Y175514D02*
X371986Y175514D01*
X368014Y175514D02*
X368014Y179486D01*
X371986Y179486D01*
X371986Y175514D01*
X371986Y177457D02*
X368014Y177457D01*
X368014Y179400D02*
X371986Y179400D01*
X378014Y175514D02*
X381986Y175514D01*
X378014Y175514D02*
X378014Y179486D01*
X381986Y179486D01*
X381986Y175514D01*
X381986Y177457D02*
X378014Y177457D01*
X378014Y179400D02*
X381986Y179400D01*
X371986Y166014D02*
X368014Y166014D01*
X368014Y169986D01*
X371986Y169986D01*
X371986Y166014D01*
X371986Y167957D02*
X368014Y167957D01*
X368014Y169900D02*
X371986Y169900D01*
X378014Y166014D02*
X381986Y166014D01*
X378014Y166014D02*
X378014Y169986D01*
X381986Y169986D01*
X381986Y166014D01*
X381986Y167957D02*
X378014Y167957D01*
X378014Y169900D02*
X381986Y169900D01*
D20*
X245701Y216299D02*
X239299Y216299D01*
X239299Y222701D01*
X245701Y222701D01*
X245701Y216299D01*
X245701Y218783D02*
X239299Y218783D01*
X239299Y221267D02*
X245701Y221267D01*
X254299Y216299D02*
X260701Y216299D01*
X254299Y216299D02*
X254299Y222701D01*
X260701Y222701D01*
X260701Y216299D01*
X260701Y218783D02*
X254299Y218783D01*
X254299Y221267D02*
X260701Y221267D01*
D19*
X368014Y309486D02*
X371986Y309486D01*
X371986Y305514D01*
X368014Y305514D01*
X368014Y309486D01*
X368014Y307457D02*
X371986Y307457D01*
X371986Y309400D02*
X368014Y309400D01*
X361986Y309486D02*
X358014Y309486D01*
X361986Y309486D02*
X361986Y305514D01*
X358014Y305514D01*
X358014Y309486D01*
X358014Y307457D02*
X361986Y307457D01*
X361986Y309400D02*
X358014Y309400D01*
X358014Y315514D02*
X361986Y315514D01*
X358014Y315514D02*
X358014Y319486D01*
X361986Y319486D01*
X361986Y315514D01*
X361986Y317457D02*
X358014Y317457D01*
X358014Y319400D02*
X361986Y319400D01*
X368014Y315514D02*
X371986Y315514D01*
X368014Y315514D02*
X368014Y319486D01*
X371986Y319486D01*
X371986Y315514D01*
X371986Y317457D02*
X368014Y317457D01*
X368014Y319400D02*
X371986Y319400D01*
X381986Y309486D02*
X381986Y305514D01*
X378014Y305514D01*
X378014Y309486D01*
X381986Y309486D01*
X381986Y307457D02*
X378014Y307457D01*
X378014Y309400D02*
X381986Y309400D01*
X381986Y315514D02*
X381986Y319486D01*
X381986Y315514D02*
X378014Y315514D01*
X378014Y319486D01*
X381986Y319486D01*
X381986Y317457D02*
X378014Y317457D01*
X378014Y319400D02*
X381986Y319400D01*
X371986Y299486D02*
X368014Y299486D01*
X371986Y299486D02*
X371986Y295514D01*
X368014Y295514D01*
X368014Y299486D01*
X368014Y297457D02*
X371986Y297457D01*
X371986Y299400D02*
X368014Y299400D01*
X361986Y299486D02*
X358014Y299486D01*
X361986Y299486D02*
X361986Y295514D01*
X358014Y295514D01*
X358014Y299486D01*
X358014Y297457D02*
X361986Y297457D01*
X361986Y299400D02*
X358014Y299400D01*
X386986Y375014D02*
X386986Y378986D01*
X386986Y375014D02*
X383014Y375014D01*
X383014Y378986D01*
X386986Y378986D01*
X386986Y376957D02*
X383014Y376957D01*
X383014Y378900D02*
X386986Y378900D01*
X386986Y385014D02*
X386986Y388986D01*
X386986Y385014D02*
X383014Y385014D01*
X383014Y388986D01*
X386986Y388986D01*
X386986Y386957D02*
X383014Y386957D01*
X383014Y388900D02*
X386986Y388900D01*
X503014Y156986D02*
X503014Y153014D01*
X503014Y156986D02*
X506986Y156986D01*
X506986Y153014D01*
X503014Y153014D01*
X503014Y154957D02*
X506986Y154957D01*
X506986Y156900D02*
X503014Y156900D01*
X503014Y146986D02*
X503014Y143014D01*
X503014Y146986D02*
X506986Y146986D01*
X506986Y143014D01*
X503014Y143014D01*
X503014Y144957D02*
X506986Y144957D01*
X506986Y146900D02*
X503014Y146900D01*
X446986Y146986D02*
X443014Y146986D01*
X446986Y146986D02*
X446986Y143014D01*
X443014Y143014D01*
X443014Y146986D01*
X443014Y144957D02*
X446986Y144957D01*
X446986Y146900D02*
X443014Y146900D01*
X436986Y146986D02*
X433014Y146986D01*
X436986Y146986D02*
X436986Y143014D01*
X433014Y143014D01*
X433014Y146986D01*
X433014Y144957D02*
X436986Y144957D01*
X436986Y146900D02*
X433014Y146900D01*
X421986Y159986D02*
X418014Y159986D01*
X421986Y159986D02*
X421986Y156014D01*
X418014Y156014D01*
X418014Y159986D01*
X418014Y157957D02*
X421986Y157957D01*
X421986Y159900D02*
X418014Y159900D01*
X411986Y159986D02*
X408014Y159986D01*
X411986Y159986D02*
X411986Y156014D01*
X408014Y156014D01*
X408014Y159986D01*
X408014Y157957D02*
X411986Y157957D01*
X411986Y159900D02*
X408014Y159900D01*
X408014Y176014D02*
X408014Y179986D01*
X411986Y179986D01*
X411986Y176014D01*
X408014Y176014D01*
X408014Y177957D02*
X411986Y177957D01*
X411986Y179900D02*
X408014Y179900D01*
X408014Y169986D02*
X408014Y166014D01*
X408014Y169986D02*
X411986Y169986D01*
X411986Y166014D01*
X408014Y166014D01*
X408014Y167957D02*
X411986Y167957D01*
X411986Y169900D02*
X408014Y169900D01*
X402986Y263014D02*
X399014Y263014D01*
X399014Y266986D01*
X402986Y266986D01*
X402986Y263014D01*
X402986Y264957D02*
X399014Y264957D01*
X399014Y266900D02*
X402986Y266900D01*
X409014Y263014D02*
X412986Y263014D01*
X409014Y263014D02*
X409014Y266986D01*
X412986Y266986D01*
X412986Y263014D01*
X412986Y264957D02*
X409014Y264957D01*
X409014Y266900D02*
X412986Y266900D01*
X409014Y283014D02*
X409014Y286986D01*
X412986Y286986D01*
X412986Y283014D01*
X409014Y283014D01*
X409014Y284957D02*
X412986Y284957D01*
X412986Y286900D02*
X409014Y286900D01*
X409014Y276986D02*
X409014Y273014D01*
X409014Y276986D02*
X412986Y276986D01*
X412986Y273014D01*
X409014Y273014D01*
X409014Y274957D02*
X412986Y274957D01*
X412986Y276900D02*
X409014Y276900D01*
D21*
X462606Y189106D02*
X462606Y181894D01*
X451394Y181894D01*
X451394Y189106D01*
X462606Y189106D01*
X462606Y184558D02*
X451394Y184558D01*
X451394Y187222D02*
X462606Y187222D01*
X462606Y200894D02*
X462606Y208106D01*
X462606Y200894D02*
X451394Y200894D01*
X451394Y208106D01*
X462606Y208106D01*
X462606Y203558D02*
X451394Y203558D01*
X451394Y206222D02*
X462606Y206222D01*
D20*
X444701Y172701D02*
X444701Y166299D01*
X438299Y166299D01*
X438299Y172701D01*
X444701Y172701D01*
X444701Y168783D02*
X438299Y168783D01*
X438299Y171267D02*
X444701Y171267D01*
X444701Y181299D02*
X444701Y187701D01*
X444701Y181299D02*
X438299Y181299D01*
X438299Y187701D01*
X444701Y187701D01*
X444701Y183783D02*
X438299Y183783D01*
X438299Y186267D02*
X444701Y186267D01*
D19*
X457014Y218486D02*
X460986Y218486D01*
X460986Y214514D01*
X457014Y214514D01*
X457014Y218486D01*
X457014Y216457D02*
X460986Y216457D01*
X460986Y218400D02*
X457014Y218400D01*
X450986Y218486D02*
X447014Y218486D01*
X450986Y218486D02*
X450986Y214514D01*
X447014Y214514D01*
X447014Y218486D01*
X447014Y216457D02*
X450986Y216457D01*
X450986Y218400D02*
X447014Y218400D01*
X391986Y166014D02*
X388014Y166014D01*
X388014Y169986D01*
X391986Y169986D01*
X391986Y166014D01*
X391986Y167957D02*
X388014Y167957D01*
X388014Y169900D02*
X391986Y169900D01*
X398014Y166014D02*
X401986Y166014D01*
X398014Y166014D02*
X398014Y169986D01*
X401986Y169986D01*
X401986Y166014D01*
X401986Y167957D02*
X398014Y167957D01*
X398014Y169900D02*
X401986Y169900D01*
D21*
X463606Y286894D02*
X463606Y294106D01*
X463606Y286894D02*
X452394Y286894D01*
X452394Y294106D01*
X463606Y294106D01*
X463606Y289558D02*
X452394Y289558D01*
X452394Y292222D02*
X463606Y292222D01*
X463606Y305894D02*
X463606Y313106D01*
X463606Y305894D02*
X452394Y305894D01*
X452394Y313106D01*
X463606Y313106D01*
X463606Y308558D02*
X452394Y308558D01*
X452394Y311222D02*
X463606Y311222D01*
D20*
X445701Y278001D02*
X445701Y271599D01*
X439299Y271599D01*
X439299Y278001D01*
X445701Y278001D01*
X445701Y274083D02*
X439299Y274083D01*
X439299Y276567D02*
X445701Y276567D01*
X445701Y286599D02*
X445701Y293001D01*
X445701Y286599D02*
X439299Y286599D01*
X439299Y293001D01*
X445701Y293001D01*
X445701Y289083D02*
X439299Y289083D01*
X439299Y291567D02*
X445701Y291567D01*
D19*
X457014Y323486D02*
X460986Y323486D01*
X460986Y319514D01*
X457014Y319514D01*
X457014Y323486D01*
X457014Y321457D02*
X460986Y321457D01*
X460986Y323400D02*
X457014Y323400D01*
X450986Y323486D02*
X447014Y323486D01*
X450986Y323486D02*
X450986Y319514D01*
X447014Y319514D01*
X447014Y323486D01*
X447014Y321457D02*
X450986Y321457D01*
X450986Y323400D02*
X447014Y323400D01*
X392986Y283014D02*
X389014Y283014D01*
X389014Y286986D01*
X392986Y286986D01*
X392986Y283014D01*
X392986Y284957D02*
X389014Y284957D01*
X389014Y286900D02*
X392986Y286900D01*
X399014Y283014D02*
X402986Y283014D01*
X399014Y283014D02*
X399014Y286986D01*
X402986Y286986D01*
X402986Y283014D01*
X402986Y284957D02*
X399014Y284957D01*
X399014Y286900D02*
X402986Y286900D01*
X563514Y313014D02*
X563514Y316986D01*
X567486Y316986D01*
X567486Y313014D01*
X563514Y313014D01*
X563514Y314957D02*
X567486Y314957D01*
X567486Y316900D02*
X563514Y316900D01*
X563514Y306986D02*
X563514Y303014D01*
X563514Y306986D02*
X567486Y306986D01*
X567486Y303014D01*
X563514Y303014D01*
X563514Y304957D02*
X567486Y304957D01*
X567486Y306900D02*
X563514Y306900D01*
X608014Y236986D02*
X608014Y233014D01*
X608014Y236986D02*
X611986Y236986D01*
X611986Y233014D01*
X608014Y233014D01*
X608014Y234957D02*
X611986Y234957D01*
X611986Y236900D02*
X608014Y236900D01*
X608014Y226986D02*
X608014Y223014D01*
X608014Y226986D02*
X611986Y226986D01*
X611986Y223014D01*
X608014Y223014D01*
X608014Y224957D02*
X611986Y224957D01*
X611986Y226900D02*
X608014Y226900D01*
X542986Y186986D02*
X542986Y183014D01*
X539014Y183014D01*
X539014Y186986D01*
X542986Y186986D01*
X542986Y184957D02*
X539014Y184957D01*
X539014Y186900D02*
X542986Y186900D01*
X542986Y193014D02*
X542986Y196986D01*
X542986Y193014D02*
X539014Y193014D01*
X539014Y196986D01*
X542986Y196986D01*
X542986Y194957D02*
X539014Y194957D01*
X539014Y196900D02*
X542986Y196900D01*
X498014Y270014D02*
X498014Y273986D01*
X501986Y273986D01*
X501986Y270014D01*
X498014Y270014D01*
X498014Y271957D02*
X501986Y271957D01*
X501986Y273900D02*
X498014Y273900D01*
X498014Y263986D02*
X498014Y260014D01*
X498014Y263986D02*
X501986Y263986D01*
X501986Y260014D01*
X498014Y260014D01*
X498014Y261957D02*
X501986Y261957D01*
X501986Y263900D02*
X498014Y263900D01*
X539014Y313014D02*
X539014Y316986D01*
X542986Y316986D01*
X542986Y313014D01*
X539014Y313014D01*
X539014Y314957D02*
X542986Y314957D01*
X542986Y316900D02*
X539014Y316900D01*
X539014Y306986D02*
X539014Y303014D01*
X539014Y306986D02*
X542986Y306986D01*
X542986Y303014D01*
X539014Y303014D01*
X539014Y304957D02*
X542986Y304957D01*
X542986Y306900D02*
X539014Y306900D01*
X628014Y266986D02*
X631986Y266986D01*
X631986Y263014D01*
X628014Y263014D01*
X628014Y266986D01*
X628014Y264957D02*
X631986Y264957D01*
X631986Y266900D02*
X628014Y266900D01*
X621986Y266986D02*
X618014Y266986D01*
X621986Y266986D02*
X621986Y263014D01*
X618014Y263014D01*
X618014Y266986D01*
X618014Y264957D02*
X621986Y264957D01*
X621986Y266900D02*
X618014Y266900D01*
X560486Y186986D02*
X560486Y183014D01*
X556514Y183014D01*
X556514Y186986D01*
X560486Y186986D01*
X560486Y184957D02*
X556514Y184957D01*
X556514Y186900D02*
X560486Y186900D01*
X560486Y193014D02*
X560486Y196986D01*
X560486Y193014D02*
X556514Y193014D01*
X556514Y196986D01*
X560486Y196986D01*
X560486Y194957D02*
X556514Y194957D01*
X556514Y196900D02*
X560486Y196900D01*
X498014Y236014D02*
X498014Y239986D01*
X501986Y239986D01*
X501986Y236014D01*
X498014Y236014D01*
X498014Y237957D02*
X501986Y237957D01*
X501986Y239900D02*
X498014Y239900D01*
X498014Y229986D02*
X498014Y226014D01*
X498014Y229986D02*
X501986Y229986D01*
X501986Y226014D01*
X498014Y226014D01*
X498014Y227957D02*
X501986Y227957D01*
X501986Y229900D02*
X498014Y229900D01*
D20*
X640199Y159701D02*
X640199Y153299D01*
X640199Y159701D02*
X646601Y159701D01*
X646601Y153299D01*
X640199Y153299D01*
X640199Y155783D02*
X646601Y155783D01*
X646601Y158267D02*
X640199Y158267D01*
X640199Y144701D02*
X640199Y138299D01*
X640199Y144701D02*
X646601Y144701D01*
X646601Y138299D01*
X640199Y138299D01*
X640199Y140783D02*
X646601Y140783D01*
X646601Y143267D02*
X640199Y143267D01*
X540201Y142799D02*
X540201Y149201D01*
X540201Y142799D02*
X533799Y142799D01*
X533799Y149201D01*
X540201Y149201D01*
X540201Y145283D02*
X533799Y145283D01*
X533799Y147767D02*
X540201Y147767D01*
X540201Y157799D02*
X540201Y164201D01*
X540201Y157799D02*
X533799Y157799D01*
X533799Y164201D01*
X540201Y164201D01*
X540201Y160283D02*
X533799Y160283D01*
X533799Y162767D02*
X540201Y162767D01*
D22*
X571000Y140000D03*
X571000Y160000D03*
D23*
X288500Y200000D03*
X288500Y196000D03*
X288500Y192000D03*
X299500Y192000D03*
X299500Y196000D03*
X299500Y200000D03*
D24*
X294000Y196000D03*
D20*
X280701Y187701D02*
X280701Y181299D01*
X274299Y181299D01*
X274299Y187701D01*
X280701Y187701D01*
X280701Y183783D02*
X274299Y183783D01*
X274299Y186267D02*
X280701Y186267D01*
X280701Y196299D02*
X280701Y202701D01*
X280701Y196299D02*
X274299Y196299D01*
X274299Y202701D01*
X280701Y202701D01*
X280701Y198783D02*
X274299Y198783D01*
X274299Y201267D02*
X280701Y201267D01*
X287299Y209299D02*
X293701Y209299D01*
X287299Y209299D02*
X287299Y215701D01*
X293701Y215701D01*
X293701Y209299D01*
X293701Y211783D02*
X287299Y211783D01*
X287299Y214267D02*
X293701Y214267D01*
X302299Y209299D02*
X308701Y209299D01*
X302299Y209299D02*
X302299Y215701D01*
X308701Y215701D01*
X308701Y209299D01*
X308701Y211783D02*
X302299Y211783D01*
X302299Y214267D02*
X308701Y214267D01*
D19*
X513014Y156986D02*
X513014Y153014D01*
X513014Y156986D02*
X516986Y156986D01*
X516986Y153014D01*
X513014Y153014D01*
X513014Y154957D02*
X516986Y154957D01*
X516986Y156900D02*
X513014Y156900D01*
X513014Y146986D02*
X513014Y143014D01*
X513014Y146986D02*
X516986Y146986D01*
X516986Y143014D01*
X513014Y143014D01*
X513014Y144957D02*
X516986Y144957D01*
X516986Y146900D02*
X513014Y146900D01*
X362986Y185514D02*
X359014Y185514D01*
X359014Y189486D01*
X362986Y189486D01*
X362986Y185514D01*
X362986Y187457D02*
X359014Y187457D01*
X359014Y189400D02*
X362986Y189400D01*
X369014Y185514D02*
X372986Y185514D01*
X369014Y185514D02*
X369014Y189486D01*
X372986Y189486D01*
X372986Y185514D01*
X372986Y187457D02*
X369014Y187457D01*
X369014Y189400D02*
X372986Y189400D01*
X527486Y162986D02*
X527486Y159014D01*
X523514Y159014D01*
X523514Y162986D01*
X527486Y162986D01*
X527486Y160957D02*
X523514Y160957D01*
X523514Y162900D02*
X527486Y162900D01*
X527486Y169014D02*
X527486Y172986D01*
X527486Y169014D02*
X523514Y169014D01*
X523514Y172986D01*
X527486Y172986D01*
X527486Y170957D02*
X523514Y170957D01*
X523514Y172900D02*
X527486Y172900D01*
X281986Y413514D02*
X278014Y413514D01*
X278014Y417486D01*
X281986Y417486D01*
X281986Y413514D01*
X281986Y415457D02*
X278014Y415457D01*
X278014Y417400D02*
X281986Y417400D01*
X288014Y413514D02*
X291986Y413514D01*
X288014Y413514D02*
X288014Y417486D01*
X291986Y417486D01*
X291986Y413514D01*
X291986Y415457D02*
X288014Y415457D01*
X288014Y417400D02*
X291986Y417400D01*
X281986Y403514D02*
X278014Y403514D01*
X278014Y407486D01*
X281986Y407486D01*
X281986Y403514D01*
X281986Y405457D02*
X278014Y405457D01*
X278014Y407400D02*
X281986Y407400D01*
X288014Y403514D02*
X291986Y403514D01*
X288014Y403514D02*
X288014Y407486D01*
X291986Y407486D01*
X291986Y403514D01*
X291986Y405457D02*
X288014Y405457D01*
X288014Y407400D02*
X291986Y407400D01*
X280986Y212986D02*
X280986Y209014D01*
X277014Y209014D01*
X277014Y212986D01*
X280986Y212986D01*
X280986Y210957D02*
X277014Y210957D01*
X277014Y212900D02*
X280986Y212900D01*
X280986Y219014D02*
X280986Y222986D01*
X280986Y219014D02*
X277014Y219014D01*
X277014Y222986D01*
X280986Y222986D01*
X280986Y220957D02*
X277014Y220957D01*
X277014Y222900D02*
X280986Y222900D01*
X447014Y244514D02*
X450986Y244514D01*
X447014Y244514D02*
X447014Y248486D01*
X450986Y248486D01*
X450986Y244514D01*
X450986Y246457D02*
X447014Y246457D01*
X447014Y248400D02*
X450986Y248400D01*
X457014Y244514D02*
X460986Y244514D01*
X457014Y244514D02*
X457014Y248486D01*
X460986Y248486D01*
X460986Y244514D01*
X460986Y246457D02*
X457014Y246457D01*
X457014Y248400D02*
X460986Y248400D01*
X450986Y234514D02*
X447014Y234514D01*
X447014Y238486D01*
X450986Y238486D01*
X450986Y234514D01*
X450986Y236457D02*
X447014Y236457D01*
X447014Y238400D02*
X450986Y238400D01*
X457014Y234514D02*
X460986Y234514D01*
X457014Y234514D02*
X457014Y238486D01*
X460986Y238486D01*
X460986Y234514D01*
X460986Y236457D02*
X457014Y236457D01*
X457014Y238400D02*
X460986Y238400D01*
X418014Y179986D02*
X418014Y176014D01*
X418014Y179986D02*
X421986Y179986D01*
X421986Y176014D01*
X418014Y176014D01*
X418014Y177957D02*
X421986Y177957D01*
X421986Y179900D02*
X418014Y179900D01*
X418014Y169986D02*
X418014Y166014D01*
X418014Y169986D02*
X421986Y169986D01*
X421986Y166014D01*
X418014Y166014D01*
X418014Y167957D02*
X421986Y167957D01*
X421986Y169900D02*
X418014Y169900D01*
X447014Y224514D02*
X450986Y224514D01*
X447014Y224514D02*
X447014Y228486D01*
X450986Y228486D01*
X450986Y224514D01*
X450986Y226457D02*
X447014Y226457D01*
X447014Y228400D02*
X450986Y228400D01*
X457014Y224514D02*
X460986Y224514D01*
X457014Y224514D02*
X457014Y228486D01*
X460986Y228486D01*
X460986Y224514D01*
X460986Y226457D02*
X457014Y226457D01*
X457014Y228400D02*
X460986Y228400D01*
X450986Y349514D02*
X447014Y349514D01*
X447014Y353486D01*
X450986Y353486D01*
X450986Y349514D01*
X450986Y351457D02*
X447014Y351457D01*
X447014Y353400D02*
X450986Y353400D01*
X457014Y349514D02*
X460986Y349514D01*
X457014Y349514D02*
X457014Y353486D01*
X460986Y353486D01*
X460986Y349514D01*
X460986Y351457D02*
X457014Y351457D01*
X457014Y353400D02*
X460986Y353400D01*
X419014Y286986D02*
X419014Y283014D01*
X419014Y286986D02*
X422986Y286986D01*
X422986Y283014D01*
X419014Y283014D01*
X419014Y284957D02*
X422986Y284957D01*
X422986Y286900D02*
X419014Y286900D01*
X419014Y276986D02*
X419014Y273014D01*
X419014Y276986D02*
X422986Y276986D01*
X422986Y273014D01*
X419014Y273014D01*
X419014Y274957D02*
X422986Y274957D01*
X422986Y276900D02*
X419014Y276900D01*
X447014Y329514D02*
X450986Y329514D01*
X447014Y329514D02*
X447014Y333486D01*
X450986Y333486D01*
X450986Y329514D01*
X450986Y331457D02*
X447014Y331457D01*
X447014Y333400D02*
X450986Y333400D01*
X457014Y329514D02*
X460986Y329514D01*
X457014Y329514D02*
X457014Y333486D01*
X460986Y333486D01*
X460986Y329514D01*
X460986Y331457D02*
X457014Y331457D01*
X457014Y333400D02*
X460986Y333400D01*
X381986Y334486D02*
X381986Y330514D01*
X378014Y330514D01*
X378014Y334486D01*
X381986Y334486D01*
X381986Y332457D02*
X378014Y332457D01*
X378014Y334400D02*
X381986Y334400D01*
X381986Y340514D02*
X381986Y344486D01*
X381986Y340514D02*
X378014Y340514D01*
X378014Y344486D01*
X381986Y344486D01*
X381986Y342457D02*
X378014Y342457D01*
X378014Y344400D02*
X381986Y344400D01*
X447014Y339514D02*
X450986Y339514D01*
X447014Y339514D02*
X447014Y343486D01*
X450986Y343486D01*
X450986Y339514D01*
X450986Y341457D02*
X447014Y341457D01*
X447014Y343400D02*
X450986Y343400D01*
X457014Y339514D02*
X460986Y339514D01*
X457014Y339514D02*
X457014Y343486D01*
X460986Y343486D01*
X460986Y339514D01*
X460986Y341457D02*
X457014Y341457D01*
X457014Y343400D02*
X460986Y343400D01*
X381986Y229486D02*
X381986Y225514D01*
X378014Y225514D01*
X378014Y229486D01*
X381986Y229486D01*
X381986Y227457D02*
X378014Y227457D01*
X378014Y229400D02*
X381986Y229400D01*
X381986Y235514D02*
X381986Y239486D01*
X381986Y235514D02*
X378014Y235514D01*
X378014Y239486D01*
X381986Y239486D01*
X381986Y237457D02*
X378014Y237457D01*
X378014Y239400D02*
X381986Y239400D01*
X427014Y349514D02*
X430986Y349514D01*
X427014Y349514D02*
X427014Y353486D01*
X430986Y353486D01*
X430986Y349514D01*
X430986Y351457D02*
X427014Y351457D01*
X427014Y353400D02*
X430986Y353400D01*
X437014Y349514D02*
X440986Y349514D01*
X437014Y349514D02*
X437014Y353486D01*
X440986Y353486D01*
X440986Y349514D01*
X440986Y351457D02*
X437014Y351457D01*
X437014Y353400D02*
X440986Y353400D01*
X430986Y244514D02*
X427014Y244514D01*
X427014Y248486D01*
X430986Y248486D01*
X430986Y244514D01*
X430986Y246457D02*
X427014Y246457D01*
X427014Y248400D02*
X430986Y248400D01*
X437014Y244514D02*
X440986Y244514D01*
X437014Y244514D02*
X437014Y248486D01*
X440986Y248486D01*
X440986Y244514D01*
X440986Y246457D02*
X437014Y246457D01*
X437014Y248400D02*
X440986Y248400D01*
X591486Y186986D02*
X591486Y183014D01*
X587514Y183014D01*
X587514Y186986D01*
X591486Y186986D01*
X591486Y184957D02*
X587514Y184957D01*
X587514Y186900D02*
X591486Y186900D01*
X591486Y193014D02*
X591486Y196986D01*
X591486Y193014D02*
X587514Y193014D01*
X587514Y196986D01*
X591486Y196986D01*
X591486Y194957D02*
X587514Y194957D01*
X587514Y196900D02*
X591486Y196900D01*
X614514Y201986D02*
X618486Y201986D01*
X618486Y198014D01*
X614514Y198014D01*
X614514Y201986D01*
X614514Y199957D02*
X618486Y199957D01*
X618486Y201900D02*
X614514Y201900D01*
X608486Y201986D02*
X604514Y201986D01*
X608486Y201986D02*
X608486Y198014D01*
X604514Y198014D01*
X604514Y201986D01*
X604514Y199957D02*
X608486Y199957D01*
X608486Y201900D02*
X604514Y201900D01*
X577986Y303014D02*
X577986Y306986D01*
X577986Y303014D02*
X574014Y303014D01*
X574014Y306986D01*
X577986Y306986D01*
X577986Y304957D02*
X574014Y304957D01*
X574014Y306900D02*
X577986Y306900D01*
X577986Y313014D02*
X577986Y316986D01*
X577986Y313014D02*
X574014Y313014D01*
X574014Y316986D01*
X577986Y316986D01*
X577986Y314957D02*
X574014Y314957D01*
X574014Y316900D02*
X577986Y316900D01*
X628014Y256986D02*
X631986Y256986D01*
X631986Y253014D01*
X628014Y253014D01*
X628014Y256986D01*
X628014Y254957D02*
X631986Y254957D01*
X631986Y256900D02*
X628014Y256900D01*
X621986Y256986D02*
X618014Y256986D01*
X621986Y256986D02*
X621986Y253014D01*
X618014Y253014D01*
X618014Y256986D01*
X618014Y254957D02*
X621986Y254957D01*
X621986Y256900D02*
X618014Y256900D01*
X628014Y236986D02*
X631986Y236986D01*
X631986Y233014D01*
X628014Y233014D01*
X628014Y236986D01*
X628014Y234957D02*
X631986Y234957D01*
X631986Y236900D02*
X628014Y236900D01*
X621986Y236986D02*
X618014Y236986D01*
X621986Y236986D02*
X621986Y233014D01*
X618014Y233014D01*
X618014Y236986D01*
X618014Y234957D02*
X621986Y234957D01*
X621986Y236900D02*
X618014Y236900D01*
X553514Y313014D02*
X553514Y316986D01*
X557486Y316986D01*
X557486Y313014D01*
X553514Y313014D01*
X553514Y314957D02*
X557486Y314957D01*
X557486Y316900D02*
X553514Y316900D01*
X553514Y306986D02*
X553514Y303014D01*
X553514Y306986D02*
X557486Y306986D01*
X557486Y303014D01*
X553514Y303014D01*
X553514Y304957D02*
X557486Y304957D01*
X557486Y306900D02*
X553514Y306900D01*
X628014Y226986D02*
X631986Y226986D01*
X631986Y223014D01*
X628014Y223014D01*
X628014Y226986D01*
X628014Y224957D02*
X631986Y224957D01*
X631986Y226900D02*
X628014Y226900D01*
X621986Y226986D02*
X618014Y226986D01*
X621986Y226986D02*
X621986Y223014D01*
X618014Y223014D01*
X618014Y226986D01*
X618014Y224957D02*
X621986Y224957D01*
X621986Y226900D02*
X618014Y226900D01*
X508986Y183014D02*
X505014Y183014D01*
X505014Y186986D01*
X508986Y186986D01*
X508986Y183014D01*
X508986Y184957D02*
X505014Y184957D01*
X505014Y186900D02*
X508986Y186900D01*
X515014Y183014D02*
X518986Y183014D01*
X515014Y183014D02*
X515014Y186986D01*
X518986Y186986D01*
X518986Y183014D01*
X518986Y184957D02*
X515014Y184957D01*
X515014Y186900D02*
X518986Y186900D01*
X302014Y423514D02*
X302014Y427486D01*
X305986Y427486D01*
X305986Y423514D01*
X302014Y423514D01*
X302014Y425457D02*
X305986Y425457D01*
X305986Y427400D02*
X302014Y427400D01*
X302014Y417486D02*
X302014Y413514D01*
X302014Y417486D02*
X305986Y417486D01*
X305986Y413514D01*
X302014Y413514D01*
X302014Y415457D02*
X305986Y415457D01*
X305986Y417400D02*
X302014Y417400D01*
X305986Y397486D02*
X305986Y393514D01*
X302014Y393514D01*
X302014Y397486D01*
X305986Y397486D01*
X305986Y395457D02*
X302014Y395457D01*
X302014Y397400D02*
X305986Y397400D01*
X305986Y403514D02*
X305986Y407486D01*
X305986Y403514D02*
X302014Y403514D01*
X302014Y407486D01*
X305986Y407486D01*
X305986Y405457D02*
X302014Y405457D01*
X302014Y407400D02*
X305986Y407400D01*
X270986Y212986D02*
X270986Y209014D01*
X267014Y209014D01*
X267014Y212986D01*
X270986Y212986D01*
X270986Y210957D02*
X267014Y210957D01*
X267014Y212900D02*
X270986Y212900D01*
X270986Y219014D02*
X270986Y222986D01*
X270986Y219014D02*
X267014Y219014D01*
X267014Y222986D01*
X270986Y222986D01*
X270986Y220957D02*
X267014Y220957D01*
X267014Y222900D02*
X270986Y222900D01*
D25*
X328125Y243000D03*
X328125Y248000D03*
X333875Y243000D03*
X333875Y248000D03*
X331000Y238000D03*
D26*
G36*
X346768Y280440D02*
X343940Y283268D01*
X347298Y286626D01*
X350126Y283798D01*
X346768Y280440D01*
G37*
G36*
X350303Y276904D02*
X347475Y279732D01*
X350833Y283090D01*
X353661Y280262D01*
X350303Y276904D01*
G37*
G36*
X342702Y276374D02*
X339874Y279202D01*
X343232Y282560D01*
X346060Y279732D01*
X342702Y276374D01*
G37*
G36*
X346238Y272839D02*
X343410Y275667D01*
X346768Y279025D01*
X349596Y276197D01*
X346238Y272839D01*
G37*
G36*
X341199Y281943D02*
X338371Y284771D01*
X341729Y288129D01*
X344557Y285301D01*
X341199Y281943D01*
G37*
X265000Y340375D03*
X270000Y340375D03*
X265000Y334625D03*
X270000Y334625D03*
X260000Y337500D03*
D19*
X431986Y172986D02*
X431986Y169014D01*
X428014Y169014D01*
X428014Y172986D01*
X431986Y172986D01*
X431986Y170957D02*
X428014Y170957D01*
X428014Y172900D02*
X431986Y172900D01*
X431986Y179014D02*
X431986Y182986D01*
X431986Y179014D02*
X428014Y179014D01*
X428014Y182986D01*
X431986Y182986D01*
X431986Y180957D02*
X428014Y180957D01*
X428014Y182900D02*
X431986Y182900D01*
X432986Y276014D02*
X432986Y279986D01*
X432986Y276014D02*
X429014Y276014D01*
X429014Y279986D01*
X432986Y279986D01*
X432986Y277957D02*
X429014Y277957D01*
X429014Y279900D02*
X432986Y279900D01*
X432986Y286014D02*
X432986Y289986D01*
X432986Y286014D02*
X429014Y286014D01*
X429014Y289986D01*
X432986Y289986D01*
X432986Y287957D02*
X429014Y287957D01*
X429014Y289900D02*
X432986Y289900D01*
X236986Y309486D02*
X233014Y309486D01*
X236986Y309486D02*
X236986Y305514D01*
X233014Y305514D01*
X233014Y309486D01*
X233014Y307457D02*
X236986Y307457D01*
X236986Y309400D02*
X233014Y309400D01*
X226986Y309486D02*
X223014Y309486D01*
X226986Y309486D02*
X226986Y305514D01*
X223014Y305514D01*
X223014Y309486D01*
X223014Y307457D02*
X226986Y307457D01*
X226986Y309400D02*
X223014Y309400D01*
X503014Y456514D02*
X503014Y460486D01*
X506986Y460486D01*
X506986Y456514D01*
X503014Y456514D01*
X503014Y458457D02*
X506986Y458457D01*
X506986Y460400D02*
X503014Y460400D01*
X503014Y450486D02*
X503014Y446514D01*
X503014Y450486D02*
X506986Y450486D01*
X506986Y446514D01*
X503014Y446514D01*
X503014Y448457D02*
X506986Y448457D01*
X506986Y450400D02*
X503014Y450400D01*
X506986Y430486D02*
X506986Y426514D01*
X503014Y426514D01*
X503014Y430486D01*
X506986Y430486D01*
X506986Y428457D02*
X503014Y428457D01*
X503014Y430400D02*
X506986Y430400D01*
X506986Y436514D02*
X506986Y440486D01*
X506986Y436514D02*
X503014Y436514D01*
X503014Y440486D01*
X506986Y440486D01*
X506986Y438457D02*
X503014Y438457D01*
X503014Y440400D02*
X506986Y440400D01*
X493014Y431986D02*
X493014Y428014D01*
X493014Y431986D02*
X496986Y431986D01*
X496986Y428014D01*
X493014Y428014D01*
X493014Y429957D02*
X496986Y429957D01*
X496986Y431900D02*
X493014Y431900D01*
X493014Y421986D02*
X493014Y418014D01*
X493014Y421986D02*
X496986Y421986D01*
X496986Y418014D01*
X493014Y418014D01*
X493014Y419957D02*
X496986Y419957D01*
X496986Y421900D02*
X493014Y421900D01*
X496986Y401986D02*
X496986Y398014D01*
X493014Y398014D01*
X493014Y401986D01*
X496986Y401986D01*
X496986Y399957D02*
X493014Y399957D01*
X493014Y401900D02*
X496986Y401900D01*
X496986Y408014D02*
X496986Y411986D01*
X496986Y408014D02*
X493014Y408014D01*
X493014Y411986D01*
X496986Y411986D01*
X496986Y409957D02*
X493014Y409957D01*
X493014Y411900D02*
X496986Y411900D01*
D27*
X627500Y552500D03*
X582500Y552500D03*
D28*
X641000Y527500D03*
X569000Y527500D03*
D19*
X260986Y232986D02*
X257014Y232986D01*
X260986Y232986D02*
X260986Y229014D01*
X257014Y229014D01*
X257014Y232986D01*
X257014Y230957D02*
X260986Y230957D01*
X260986Y232900D02*
X257014Y232900D01*
X250986Y232986D02*
X247014Y232986D01*
X250986Y232986D02*
X250986Y229014D01*
X247014Y229014D01*
X247014Y232986D01*
X247014Y230957D02*
X250986Y230957D01*
X250986Y232900D02*
X247014Y232900D01*
X277014Y232986D02*
X280986Y232986D01*
X280986Y229014D01*
X277014Y229014D01*
X277014Y232986D01*
X277014Y230957D02*
X280986Y230957D01*
X280986Y232900D02*
X277014Y232900D01*
X270986Y232986D02*
X267014Y232986D01*
X270986Y232986D02*
X270986Y229014D01*
X267014Y229014D01*
X267014Y232986D01*
X267014Y230957D02*
X270986Y230957D01*
X270986Y232900D02*
X267014Y232900D01*
X493014Y156986D02*
X493014Y153014D01*
X493014Y156986D02*
X496986Y156986D01*
X496986Y153014D01*
X493014Y153014D01*
X493014Y154957D02*
X496986Y154957D01*
X496986Y156900D02*
X493014Y156900D01*
X493014Y146986D02*
X493014Y143014D01*
X493014Y146986D02*
X496986Y146986D01*
X496986Y143014D01*
X493014Y143014D01*
X493014Y144957D02*
X496986Y144957D01*
X496986Y146900D02*
X493014Y146900D01*
X493014Y163014D02*
X496986Y163014D01*
X493014Y163014D02*
X493014Y166986D01*
X496986Y166986D01*
X496986Y163014D01*
X496986Y164957D02*
X493014Y164957D01*
X493014Y166900D02*
X496986Y166900D01*
X503014Y163014D02*
X506986Y163014D01*
X503014Y163014D02*
X503014Y166986D01*
X506986Y166986D01*
X506986Y163014D01*
X506986Y164957D02*
X503014Y164957D01*
X503014Y166900D02*
X506986Y166900D01*
D29*
X833600Y365000D03*
X820900Y365000D03*
X808200Y365000D03*
X795500Y365000D03*
X782800Y365000D03*
X770100Y365000D03*
X757400Y365000D03*
X744700Y365000D03*
X732000Y365000D03*
X719300Y365000D03*
X706600Y365000D03*
X693900Y365000D03*
X681200Y365000D03*
X668500Y365000D03*
D30*
X658500Y337150D03*
X658500Y324450D03*
X658500Y311750D03*
X658500Y299050D03*
X658500Y286350D03*
X658500Y273650D03*
X658500Y260950D03*
X658500Y248250D03*
X658500Y235550D03*
X658500Y222850D03*
D29*
X668400Y195000D03*
X681100Y195000D03*
X693800Y195000D03*
X706500Y195000D03*
X719200Y195000D03*
X731900Y195000D03*
X744600Y195000D03*
X757300Y195000D03*
X770000Y195000D03*
X782700Y195000D03*
X795400Y195000D03*
X808100Y195000D03*
X820800Y195000D03*
X833500Y195000D03*
D31*
X758600Y290000D03*
D20*
X830799Y393201D02*
X837201Y393201D01*
X837201Y386799D01*
X830799Y386799D01*
X830799Y393201D01*
X830799Y389283D02*
X837201Y389283D01*
X837201Y391767D02*
X830799Y391767D01*
X822201Y393201D02*
X815799Y393201D01*
X822201Y393201D02*
X822201Y386799D01*
X815799Y386799D01*
X815799Y393201D01*
X815799Y389283D02*
X822201Y389283D01*
X822201Y391767D02*
X815799Y391767D01*
D32*
X178500Y209500D03*
X185000Y209500D03*
X191500Y209500D03*
X191500Y230500D03*
X185000Y230500D03*
X178500Y230500D03*
D19*
X156014Y191486D02*
X156014Y187514D01*
X156014Y191486D02*
X159986Y191486D01*
X159986Y187514D01*
X156014Y187514D01*
X156014Y189457D02*
X159986Y189457D01*
X159986Y191400D02*
X156014Y191400D01*
X156014Y181486D02*
X156014Y177514D01*
X156014Y181486D02*
X159986Y181486D01*
X159986Y177514D01*
X156014Y177514D01*
X156014Y179457D02*
X159986Y179457D01*
X159986Y181400D02*
X156014Y181400D01*
X149986Y191486D02*
X146014Y191486D01*
X149986Y191486D02*
X149986Y187514D01*
X146014Y187514D01*
X146014Y191486D01*
X146014Y189457D02*
X149986Y189457D01*
X149986Y191400D02*
X146014Y191400D01*
X139986Y191486D02*
X136014Y191486D01*
X139986Y191486D02*
X139986Y187514D01*
X136014Y187514D01*
X136014Y191486D01*
X136014Y189457D02*
X139986Y189457D01*
X139986Y191400D02*
X136014Y191400D01*
X126014Y191486D02*
X126014Y187514D01*
X126014Y191486D02*
X129986Y191486D01*
X129986Y187514D01*
X126014Y187514D01*
X126014Y189457D02*
X129986Y189457D01*
X129986Y191400D02*
X126014Y191400D01*
X126014Y181486D02*
X126014Y177514D01*
X126014Y181486D02*
X129986Y181486D01*
X129986Y177514D01*
X126014Y177514D01*
X126014Y179457D02*
X129986Y179457D01*
X129986Y181400D02*
X126014Y181400D01*
X253014Y156014D02*
X256986Y156014D01*
X253014Y156014D02*
X253014Y159986D01*
X256986Y159986D01*
X256986Y156014D01*
X256986Y157957D02*
X253014Y157957D01*
X253014Y159900D02*
X256986Y159900D01*
X263014Y156014D02*
X266986Y156014D01*
X263014Y156014D02*
X263014Y159986D01*
X266986Y159986D01*
X266986Y156014D01*
X266986Y157957D02*
X263014Y157957D01*
X263014Y159900D02*
X266986Y159900D01*
X253014Y149986D02*
X253014Y146014D01*
X253014Y149986D02*
X256986Y149986D01*
X256986Y146014D01*
X253014Y146014D01*
X253014Y147957D02*
X256986Y147957D01*
X256986Y149900D02*
X253014Y149900D01*
X253014Y139986D02*
X253014Y136014D01*
X253014Y139986D02*
X256986Y139986D01*
X256986Y136014D01*
X253014Y136014D01*
X253014Y137957D02*
X256986Y137957D01*
X256986Y139900D02*
X253014Y139900D01*
X253014Y126014D02*
X256986Y126014D01*
X253014Y126014D02*
X253014Y129986D01*
X256986Y129986D01*
X256986Y126014D01*
X256986Y127957D02*
X253014Y127957D01*
X253014Y129900D02*
X256986Y129900D01*
X263014Y126014D02*
X266986Y126014D01*
X263014Y126014D02*
X263014Y129986D01*
X266986Y129986D01*
X266986Y126014D01*
X266986Y127957D02*
X263014Y127957D01*
X263014Y129900D02*
X266986Y129900D01*
X186986Y243014D02*
X186986Y246986D01*
X186986Y243014D02*
X183014Y243014D01*
X183014Y246986D01*
X186986Y246986D01*
X186986Y244957D02*
X183014Y244957D01*
X183014Y246900D02*
X186986Y246900D01*
X186986Y253014D02*
X186986Y256986D01*
X186986Y253014D02*
X183014Y253014D01*
X183014Y256986D01*
X186986Y256986D01*
X186986Y254957D02*
X183014Y254957D01*
X183014Y256900D02*
X186986Y256900D01*
X308014Y156986D02*
X311986Y156986D01*
X311986Y153014D01*
X308014Y153014D01*
X308014Y156986D01*
X308014Y154957D02*
X311986Y154957D01*
X311986Y156900D02*
X308014Y156900D01*
X301986Y156986D02*
X298014Y156986D01*
X301986Y156986D02*
X301986Y153014D01*
X298014Y153014D01*
X298014Y156986D01*
X298014Y154957D02*
X301986Y154957D01*
X301986Y156900D02*
X298014Y156900D01*
X308014Y166986D02*
X311986Y166986D01*
X311986Y163014D01*
X308014Y163014D01*
X308014Y166986D01*
X308014Y164957D02*
X311986Y164957D01*
X311986Y166900D02*
X308014Y166900D01*
X301986Y166986D02*
X298014Y166986D01*
X301986Y166986D02*
X301986Y163014D01*
X298014Y163014D01*
X298014Y166986D01*
X298014Y164957D02*
X301986Y164957D01*
X301986Y166900D02*
X298014Y166900D01*
D20*
X230701Y493201D02*
X224299Y493201D01*
X230701Y493201D02*
X230701Y486799D01*
X224299Y486799D01*
X224299Y493201D01*
X224299Y489283D02*
X230701Y489283D01*
X230701Y491767D02*
X224299Y491767D01*
X215701Y493201D02*
X209299Y493201D01*
X215701Y493201D02*
X215701Y486799D01*
X209299Y486799D01*
X209299Y493201D01*
X209299Y489283D02*
X215701Y489283D01*
X215701Y491767D02*
X209299Y491767D01*
X229299Y431201D02*
X235701Y431201D01*
X235701Y424799D01*
X229299Y424799D01*
X229299Y431201D01*
X229299Y427283D02*
X235701Y427283D01*
X235701Y429767D02*
X229299Y429767D01*
X220701Y431201D02*
X214299Y431201D01*
X220701Y431201D02*
X220701Y424799D01*
X214299Y424799D01*
X214299Y431201D01*
X214299Y427283D02*
X220701Y427283D01*
X220701Y429767D02*
X214299Y429767D01*
D19*
X194014Y484014D02*
X194014Y487986D01*
X197986Y487986D01*
X197986Y484014D01*
X194014Y484014D01*
X194014Y485957D02*
X197986Y485957D01*
X197986Y487900D02*
X194014Y487900D01*
X194014Y477986D02*
X194014Y474014D01*
X194014Y477986D02*
X197986Y477986D01*
X197986Y474014D01*
X194014Y474014D01*
X194014Y475957D02*
X197986Y475957D01*
X197986Y477900D02*
X194014Y477900D01*
X194014Y467986D02*
X194014Y464014D01*
X194014Y467986D02*
X197986Y467986D01*
X197986Y464014D01*
X194014Y464014D01*
X194014Y465957D02*
X197986Y465957D01*
X197986Y467900D02*
X194014Y467900D01*
X194014Y457986D02*
X194014Y454014D01*
X194014Y457986D02*
X197986Y457986D01*
X197986Y454014D01*
X194014Y454014D01*
X194014Y455957D02*
X197986Y455957D01*
X197986Y457900D02*
X194014Y457900D01*
D33*
X210500Y447310D03*
X220000Y447310D03*
X229500Y447310D03*
X229500Y472690D03*
X210500Y472690D03*
D22*
X253000Y450000D03*
X253000Y430000D03*
D20*
X830799Y406201D02*
X837201Y406201D01*
X837201Y399799D01*
X830799Y399799D01*
X830799Y406201D01*
X830799Y402283D02*
X837201Y402283D01*
X837201Y404767D02*
X830799Y404767D01*
X822201Y406201D02*
X815799Y406201D01*
X822201Y406201D02*
X822201Y399799D01*
X815799Y399799D01*
X815799Y406201D01*
X815799Y402283D02*
X822201Y402283D01*
X822201Y404767D02*
X815799Y404767D01*
D19*
X822486Y412514D02*
X822486Y416486D01*
X822486Y412514D02*
X818514Y412514D01*
X818514Y416486D01*
X822486Y416486D01*
X822486Y414457D02*
X818514Y414457D01*
X818514Y416400D02*
X822486Y416400D01*
X822486Y422514D02*
X822486Y426486D01*
X822486Y422514D02*
X818514Y422514D01*
X818514Y426486D01*
X822486Y426486D01*
X822486Y424457D02*
X818514Y424457D01*
X818514Y426400D02*
X822486Y426400D01*
X203486Y196986D02*
X199514Y196986D01*
X203486Y196986D02*
X203486Y193014D01*
X199514Y193014D01*
X199514Y196986D01*
X199514Y194957D02*
X203486Y194957D01*
X203486Y196900D02*
X199514Y196900D01*
X193486Y196986D02*
X189514Y196986D01*
X193486Y196986D02*
X193486Y193014D01*
X189514Y193014D01*
X189514Y196986D01*
X189514Y194957D02*
X193486Y194957D01*
X193486Y196900D02*
X189514Y196900D01*
D34*
X145000Y430000D03*
X145000Y140000D03*
X765000Y140000D03*
X765000Y430000D03*
D19*
X159986Y227514D02*
X156014Y227514D01*
X156014Y231486D01*
X159986Y231486D01*
X159986Y227514D01*
X159986Y229457D02*
X156014Y229457D01*
X156014Y231400D02*
X159986Y231400D01*
X166014Y227514D02*
X169986Y227514D01*
X166014Y227514D02*
X166014Y231486D01*
X169986Y231486D01*
X169986Y227514D01*
X169986Y229457D02*
X166014Y229457D01*
X166014Y231400D02*
X169986Y231400D01*
D21*
X244894Y504394D02*
X244894Y511606D01*
X268106Y511606D01*
X268106Y504394D01*
X244894Y504394D01*
X244894Y507058D02*
X268106Y507058D01*
X268106Y509722D02*
X244894Y509722D01*
X244894Y480606D02*
X244894Y473394D01*
X244894Y480606D02*
X268106Y480606D01*
X268106Y473394D01*
X244894Y473394D01*
X244894Y476058D02*
X268106Y476058D01*
X268106Y478722D02*
X244894Y478722D01*
D20*
X261299Y412201D02*
X261299Y405799D01*
X261299Y412201D02*
X267701Y412201D01*
X267701Y405799D01*
X261299Y405799D01*
X261299Y408283D02*
X267701Y408283D01*
X267701Y410767D02*
X261299Y410767D01*
X261299Y397201D02*
X261299Y390799D01*
X261299Y397201D02*
X267701Y397201D01*
X267701Y390799D01*
X261299Y390799D01*
X261299Y393283D02*
X267701Y393283D01*
X267701Y395767D02*
X261299Y395767D01*
D19*
X746986Y498014D02*
X746986Y501986D01*
X746986Y498014D02*
X743014Y498014D01*
X743014Y501986D01*
X746986Y501986D01*
X746986Y499957D02*
X743014Y499957D01*
X743014Y501900D02*
X746986Y501900D01*
X746986Y508014D02*
X746986Y511986D01*
X746986Y508014D02*
X743014Y508014D01*
X743014Y511986D01*
X746986Y511986D01*
X746986Y509957D02*
X743014Y509957D01*
X743014Y511900D02*
X746986Y511900D01*
X736986Y501986D02*
X736986Y498014D01*
X733014Y498014D01*
X733014Y501986D01*
X736986Y501986D01*
X736986Y499957D02*
X733014Y499957D01*
X733014Y501900D02*
X736986Y501900D01*
X736986Y508014D02*
X736986Y511986D01*
X736986Y508014D02*
X733014Y508014D01*
X733014Y511986D01*
X736986Y511986D01*
X736986Y509957D02*
X733014Y509957D01*
X733014Y511900D02*
X736986Y511900D01*
X216986Y236986D02*
X213014Y236986D01*
X216986Y236986D02*
X216986Y233014D01*
X213014Y233014D01*
X213014Y236986D01*
X213014Y234957D02*
X216986Y234957D01*
X216986Y236900D02*
X213014Y236900D01*
X206986Y236986D02*
X203014Y236986D01*
X206986Y236986D02*
X206986Y233014D01*
X203014Y233014D01*
X203014Y236986D01*
X203014Y234957D02*
X206986Y234957D01*
X206986Y236900D02*
X203014Y236900D01*
X206986Y216986D02*
X206986Y213014D01*
X203014Y213014D01*
X203014Y216986D01*
X206986Y216986D01*
X206986Y214957D02*
X203014Y214957D01*
X203014Y216900D02*
X206986Y216900D01*
X206986Y223014D02*
X206986Y226986D01*
X206986Y223014D02*
X203014Y223014D01*
X203014Y226986D01*
X206986Y226986D01*
X206986Y224957D02*
X203014Y224957D01*
X203014Y226900D02*
X206986Y226900D01*
D35*
X347850Y505000D03*
X462150Y505000D03*
D36*
X327550Y474500D03*
X482450Y474500D03*
D37*
X449500Y441500D03*
X425000Y441500D03*
X398700Y441500D03*
X373300Y441500D03*
X436800Y416100D03*
X411400Y416100D03*
X386000Y416100D03*
X360600Y416100D03*
D38*
X471250Y554000D03*
X445850Y554000D03*
X364150Y554000D03*
X338750Y554000D03*
D21*
X526894Y539606D02*
X534106Y539606D01*
X534106Y525394D01*
X526894Y525394D01*
X526894Y539606D01*
X526894Y528058D02*
X534106Y528058D01*
X534106Y530722D02*
X526894Y530722D01*
X526894Y533386D02*
X534106Y533386D01*
X534106Y536050D02*
X526894Y536050D01*
X526894Y538714D02*
X534106Y538714D01*
X503106Y539606D02*
X495894Y539606D01*
X503106Y539606D02*
X503106Y525394D01*
X495894Y525394D01*
X495894Y539606D01*
X495894Y528058D02*
X503106Y528058D01*
X503106Y530722D02*
X495894Y530722D01*
X495894Y533386D02*
X503106Y533386D01*
X503106Y536050D02*
X495894Y536050D01*
X495894Y538714D02*
X503106Y538714D01*
D39*
X191500Y162750D03*
D40*
X176750Y147500D03*
D39*
X191500Y132250D03*
D40*
X206250Y147500D03*
D19*
X189514Y193014D02*
X189514Y196986D01*
X193486Y196986D01*
X193486Y193014D01*
X189514Y193014D01*
X189514Y194957D02*
X193486Y194957D01*
X193486Y196900D02*
X189514Y196900D01*
X189514Y186986D02*
X189514Y183014D01*
X189514Y186986D02*
X193486Y186986D01*
X193486Y183014D01*
X189514Y183014D01*
X189514Y184957D02*
X193486Y184957D01*
X193486Y186900D02*
X189514Y186900D01*
D21*
X526894Y562106D02*
X534106Y562106D01*
X534106Y547894D01*
X526894Y547894D01*
X526894Y562106D01*
X526894Y550558D02*
X534106Y550558D01*
X534106Y553222D02*
X526894Y553222D01*
X526894Y555886D02*
X534106Y555886D01*
X534106Y558550D02*
X526894Y558550D01*
X526894Y561214D02*
X534106Y561214D01*
X503106Y562106D02*
X495894Y562106D01*
X503106Y562106D02*
X503106Y547894D01*
X495894Y547894D01*
X495894Y562106D01*
X495894Y550558D02*
X503106Y550558D01*
X503106Y553222D02*
X495894Y553222D01*
X495894Y555886D02*
X503106Y555886D01*
X503106Y558550D02*
X495894Y558550D01*
X495894Y561214D02*
X503106Y561214D01*
D19*
X213014Y226986D02*
X213014Y223014D01*
X213014Y226986D02*
X216986Y226986D01*
X216986Y223014D01*
X213014Y223014D01*
X213014Y224957D02*
X216986Y224957D01*
X216986Y226900D02*
X213014Y226900D01*
X213014Y216986D02*
X213014Y213014D01*
X213014Y216986D02*
X216986Y216986D01*
X216986Y213014D01*
X213014Y213014D01*
X213014Y214957D02*
X216986Y214957D01*
X216986Y216900D02*
X213014Y216900D01*
D41*
X215000Y547000D03*
X228000Y547000D03*
X221500Y547000D03*
X208500Y547000D03*
X202000Y547000D03*
D42*
X251000Y571000D02*
X251000Y577000D01*
X183500Y546000D02*
X180500Y546000D01*
X246500Y546000D02*
X249500Y546000D01*
X179000Y571000D02*
X179000Y577000D01*
D43*
X234000Y555000D03*
X196000Y555000D03*
D44*
X711500Y524500D03*
X711500Y539500D03*
X698500Y524500D03*
X698500Y539500D03*
D45*
X585000Y426500D03*
D20*
X536701Y388201D02*
X536701Y381799D01*
X530299Y381799D01*
X530299Y388201D01*
X536701Y388201D01*
X536701Y384283D02*
X530299Y384283D01*
X530299Y386767D02*
X536701Y386767D01*
X536701Y396799D02*
X536701Y403201D01*
X536701Y396799D02*
X530299Y396799D01*
X530299Y403201D01*
X536701Y403201D01*
X536701Y399283D02*
X530299Y399283D01*
X530299Y401767D02*
X536701Y401767D01*
D19*
X546986Y393486D02*
X546986Y389514D01*
X543014Y389514D01*
X543014Y393486D01*
X546986Y393486D01*
X546986Y391457D02*
X543014Y391457D01*
X543014Y393400D02*
X546986Y393400D01*
X546986Y399514D02*
X546986Y403486D01*
X546986Y399514D02*
X543014Y399514D01*
X543014Y403486D01*
X546986Y403486D01*
X546986Y401457D02*
X543014Y401457D01*
X543014Y403400D02*
X546986Y403400D01*
D20*
X529799Y474799D02*
X529799Y481201D01*
X536201Y481201D01*
X536201Y474799D01*
X529799Y474799D01*
X529799Y477283D02*
X536201Y477283D01*
X536201Y479767D02*
X529799Y479767D01*
X529799Y466201D02*
X529799Y459799D01*
X529799Y466201D02*
X536201Y466201D01*
X536201Y459799D01*
X529799Y459799D01*
X529799Y462283D02*
X536201Y462283D01*
X536201Y464767D02*
X529799Y464767D01*
D19*
X543014Y469514D02*
X543014Y473486D01*
X546986Y473486D01*
X546986Y469514D01*
X543014Y469514D01*
X543014Y471457D02*
X546986Y471457D01*
X546986Y473400D02*
X543014Y473400D01*
X543014Y463486D02*
X543014Y459514D01*
X543014Y463486D02*
X546986Y463486D01*
X546986Y459514D01*
X543014Y459514D01*
X543014Y461457D02*
X546986Y461457D01*
X546986Y463400D02*
X543014Y463400D01*
X553014Y469514D02*
X553014Y473486D01*
X556986Y473486D01*
X556986Y469514D01*
X553014Y469514D01*
X553014Y471457D02*
X556986Y471457D01*
X556986Y473400D02*
X553014Y473400D01*
X553014Y463486D02*
X553014Y459514D01*
X553014Y463486D02*
X556986Y463486D01*
X556986Y459514D01*
X553014Y459514D01*
X553014Y461457D02*
X556986Y461457D01*
X556986Y463400D02*
X553014Y463400D01*
D20*
X654701Y416701D02*
X654701Y410299D01*
X648299Y410299D01*
X648299Y416701D01*
X654701Y416701D01*
X654701Y412783D02*
X648299Y412783D01*
X648299Y415267D02*
X654701Y415267D01*
X654701Y425299D02*
X654701Y431701D01*
X654701Y425299D02*
X648299Y425299D01*
X648299Y431701D01*
X654701Y431701D01*
X654701Y427783D02*
X648299Y427783D01*
X648299Y430267D02*
X654701Y430267D01*
D19*
X641986Y421986D02*
X641986Y418014D01*
X638014Y418014D01*
X638014Y421986D01*
X641986Y421986D01*
X641986Y419957D02*
X638014Y419957D01*
X638014Y421900D02*
X641986Y421900D01*
X641986Y428014D02*
X641986Y431986D01*
X641986Y428014D02*
X638014Y428014D01*
X638014Y431986D01*
X641986Y431986D01*
X641986Y429957D02*
X638014Y429957D01*
X638014Y431900D02*
X641986Y431900D01*
X566986Y383486D02*
X566986Y379514D01*
X563014Y379514D01*
X563014Y383486D01*
X566986Y383486D01*
X566986Y381457D02*
X563014Y381457D01*
X563014Y383400D02*
X566986Y383400D01*
X566986Y389514D02*
X566986Y393486D01*
X566986Y389514D02*
X563014Y389514D01*
X563014Y393486D01*
X566986Y393486D01*
X566986Y391457D02*
X563014Y391457D01*
X563014Y393400D02*
X566986Y393400D01*
X553014Y373486D02*
X553014Y369514D01*
X553014Y373486D02*
X556986Y373486D01*
X556986Y369514D01*
X553014Y369514D01*
X553014Y371457D02*
X556986Y371457D01*
X556986Y373400D02*
X553014Y373400D01*
X553014Y363486D02*
X553014Y359514D01*
X553014Y363486D02*
X556986Y363486D01*
X556986Y359514D01*
X553014Y359514D01*
X553014Y361457D02*
X556986Y361457D01*
X556986Y363400D02*
X553014Y363400D01*
X608986Y363486D02*
X608986Y359514D01*
X605014Y359514D01*
X605014Y363486D01*
X608986Y363486D01*
X608986Y361457D02*
X605014Y361457D01*
X605014Y363400D02*
X608986Y363400D01*
X608986Y369514D02*
X608986Y373486D01*
X608986Y369514D02*
X605014Y369514D01*
X605014Y373486D01*
X608986Y373486D01*
X608986Y371457D02*
X605014Y371457D01*
X605014Y373400D02*
X608986Y373400D01*
X556986Y489514D02*
X553014Y489514D01*
X553014Y493486D01*
X556986Y493486D01*
X556986Y489514D01*
X556986Y491457D02*
X553014Y491457D01*
X553014Y493400D02*
X556986Y493400D01*
X563014Y489514D02*
X566986Y489514D01*
X563014Y489514D02*
X563014Y493486D01*
X566986Y493486D01*
X566986Y489514D01*
X566986Y491457D02*
X563014Y491457D01*
X563014Y493400D02*
X566986Y493400D01*
X556986Y499514D02*
X553014Y499514D01*
X553014Y503486D01*
X556986Y503486D01*
X556986Y499514D01*
X556986Y501457D02*
X553014Y501457D01*
X553014Y503400D02*
X556986Y503400D01*
X563014Y499514D02*
X566986Y499514D01*
X563014Y499514D02*
X563014Y503486D01*
X566986Y503486D01*
X566986Y499514D01*
X566986Y501457D02*
X563014Y501457D01*
X563014Y503400D02*
X566986Y503400D01*
X566986Y483486D02*
X563014Y483486D01*
X566986Y483486D02*
X566986Y479514D01*
X563014Y479514D01*
X563014Y483486D01*
X563014Y481457D02*
X566986Y481457D01*
X566986Y483400D02*
X563014Y483400D01*
X556986Y483486D02*
X553014Y483486D01*
X556986Y483486D02*
X556986Y479514D01*
X553014Y479514D01*
X553014Y483486D01*
X553014Y481457D02*
X556986Y481457D01*
X556986Y483400D02*
X553014Y483400D01*
X583014Y503486D02*
X586986Y503486D01*
X586986Y499514D01*
X583014Y499514D01*
X583014Y503486D01*
X583014Y501457D02*
X586986Y501457D01*
X586986Y503400D02*
X583014Y503400D01*
X576986Y503486D02*
X573014Y503486D01*
X576986Y503486D02*
X576986Y499514D01*
X573014Y499514D01*
X573014Y503486D01*
X573014Y501457D02*
X576986Y501457D01*
X576986Y503400D02*
X573014Y503400D01*
X566986Y463486D02*
X566986Y459514D01*
X563014Y459514D01*
X563014Y463486D01*
X566986Y463486D01*
X566986Y461457D02*
X563014Y461457D01*
X563014Y463400D02*
X566986Y463400D01*
X566986Y469514D02*
X566986Y473486D01*
X566986Y469514D02*
X563014Y469514D01*
X563014Y473486D01*
X566986Y473486D01*
X566986Y471457D02*
X563014Y471457D01*
X563014Y473400D02*
X566986Y473400D01*
X556986Y383486D02*
X556986Y379514D01*
X553014Y379514D01*
X553014Y383486D01*
X556986Y383486D01*
X556986Y381457D02*
X553014Y381457D01*
X553014Y383400D02*
X556986Y383400D01*
X556986Y389514D02*
X556986Y393486D01*
X556986Y389514D02*
X553014Y389514D01*
X553014Y393486D01*
X556986Y393486D01*
X556986Y391457D02*
X553014Y391457D01*
X553014Y393400D02*
X556986Y393400D01*
X581986Y459514D02*
X581986Y463486D01*
X581986Y459514D02*
X578014Y459514D01*
X578014Y463486D01*
X581986Y463486D01*
X581986Y461457D02*
X578014Y461457D01*
X578014Y463400D02*
X581986Y463400D01*
X581986Y469514D02*
X581986Y473486D01*
X581986Y469514D02*
X578014Y469514D01*
X578014Y473486D01*
X581986Y473486D01*
X581986Y471457D02*
X578014Y471457D01*
X578014Y473400D02*
X581986Y473400D01*
X593014Y393486D02*
X593014Y389514D01*
X593014Y393486D02*
X596986Y393486D01*
X596986Y389514D01*
X593014Y389514D01*
X593014Y391457D02*
X596986Y391457D01*
X596986Y393400D02*
X593014Y393400D01*
X593014Y383486D02*
X593014Y379514D01*
X593014Y383486D02*
X596986Y383486D01*
X596986Y379514D01*
X593014Y379514D01*
X593014Y381457D02*
X596986Y381457D01*
X596986Y383400D02*
X593014Y383400D01*
X591986Y459514D02*
X591986Y463486D01*
X591986Y459514D02*
X588014Y459514D01*
X588014Y463486D01*
X591986Y463486D01*
X591986Y461457D02*
X588014Y461457D01*
X588014Y463400D02*
X591986Y463400D01*
X591986Y469514D02*
X591986Y473486D01*
X591986Y469514D02*
X588014Y469514D01*
X588014Y473486D01*
X591986Y473486D01*
X591986Y471457D02*
X588014Y471457D01*
X588014Y473400D02*
X591986Y473400D01*
X576986Y383486D02*
X576986Y379514D01*
X573014Y379514D01*
X573014Y383486D01*
X576986Y383486D01*
X576986Y381457D02*
X573014Y381457D01*
X573014Y383400D02*
X576986Y383400D01*
X576986Y389514D02*
X576986Y393486D01*
X576986Y389514D02*
X573014Y389514D01*
X573014Y393486D01*
X576986Y393486D01*
X576986Y391457D02*
X573014Y391457D01*
X573014Y393400D02*
X576986Y393400D01*
X628014Y448486D02*
X631986Y448486D01*
X631986Y444514D01*
X628014Y444514D01*
X628014Y448486D01*
X628014Y446457D02*
X631986Y446457D01*
X631986Y448400D02*
X628014Y448400D01*
X621986Y448486D02*
X618014Y448486D01*
X621986Y448486D02*
X621986Y444514D01*
X618014Y444514D01*
X618014Y448486D01*
X618014Y446457D02*
X621986Y446457D01*
X621986Y448400D02*
X618014Y448400D01*
X628014Y458486D02*
X631986Y458486D01*
X631986Y454514D01*
X628014Y454514D01*
X628014Y458486D01*
X628014Y456457D02*
X631986Y456457D01*
X631986Y458400D02*
X628014Y458400D01*
X621986Y458486D02*
X618014Y458486D01*
X621986Y458486D02*
X621986Y454514D01*
X618014Y454514D01*
X618014Y458486D01*
X618014Y456457D02*
X621986Y456457D01*
X621986Y458400D02*
X618014Y458400D01*
X631986Y401986D02*
X631986Y398014D01*
X628014Y398014D01*
X628014Y401986D01*
X631986Y401986D01*
X631986Y399957D02*
X628014Y399957D01*
X628014Y401900D02*
X631986Y401900D01*
X631986Y408014D02*
X631986Y411986D01*
X631986Y408014D02*
X628014Y408014D01*
X628014Y411986D01*
X631986Y411986D01*
X631986Y409957D02*
X628014Y409957D01*
X628014Y411900D02*
X631986Y411900D01*
X631986Y468486D02*
X628014Y468486D01*
X631986Y468486D02*
X631986Y464514D01*
X628014Y464514D01*
X628014Y468486D01*
X628014Y466457D02*
X631986Y466457D01*
X631986Y468400D02*
X628014Y468400D01*
X621986Y468486D02*
X618014Y468486D01*
X621986Y468486D02*
X621986Y464514D01*
X618014Y464514D01*
X618014Y468486D01*
X618014Y466457D02*
X621986Y466457D01*
X621986Y468400D02*
X618014Y468400D01*
X631986Y381986D02*
X631986Y378014D01*
X628014Y378014D01*
X628014Y381986D01*
X631986Y381986D01*
X631986Y379957D02*
X628014Y379957D01*
X628014Y381900D02*
X631986Y381900D01*
X631986Y388014D02*
X631986Y391986D01*
X631986Y388014D02*
X628014Y388014D01*
X628014Y391986D01*
X631986Y391986D01*
X631986Y389957D02*
X628014Y389957D01*
X628014Y391900D02*
X631986Y391900D01*
X641986Y381986D02*
X641986Y378014D01*
X638014Y378014D01*
X638014Y381986D01*
X641986Y381986D01*
X641986Y379957D02*
X638014Y379957D01*
X638014Y381900D02*
X641986Y381900D01*
X641986Y388014D02*
X641986Y391986D01*
X641986Y388014D02*
X638014Y388014D01*
X638014Y391986D01*
X641986Y391986D01*
X641986Y389957D02*
X638014Y389957D01*
X638014Y391900D02*
X641986Y391900D01*
X396986Y378986D02*
X396986Y375014D01*
X393014Y375014D01*
X393014Y378986D01*
X396986Y378986D01*
X396986Y376957D02*
X393014Y376957D01*
X393014Y378900D02*
X396986Y378900D01*
X396986Y385014D02*
X396986Y388986D01*
X396986Y385014D02*
X393014Y385014D01*
X393014Y388986D01*
X396986Y388986D01*
X396986Y386957D02*
X393014Y386957D01*
X393014Y388900D02*
X396986Y388900D01*
X159986Y201486D02*
X159986Y197514D01*
X156014Y197514D01*
X156014Y201486D01*
X159986Y201486D01*
X159986Y199457D02*
X156014Y199457D01*
X156014Y201400D02*
X159986Y201400D01*
X159986Y207514D02*
X159986Y211486D01*
X159986Y207514D02*
X156014Y207514D01*
X156014Y211486D01*
X159986Y211486D01*
X159986Y209457D02*
X156014Y209457D01*
X156014Y211400D02*
X159986Y211400D01*
D39*
X145000Y252750D03*
D40*
X159750Y268000D03*
D39*
X145000Y283250D03*
D40*
X130250Y268000D03*
D19*
X159986Y211486D02*
X159986Y207514D01*
X156014Y207514D01*
X156014Y211486D01*
X159986Y211486D01*
X159986Y209457D02*
X156014Y209457D01*
X156014Y211400D02*
X159986Y211400D01*
X159986Y217514D02*
X159986Y221486D01*
X159986Y217514D02*
X156014Y217514D01*
X156014Y221486D01*
X159986Y221486D01*
X159986Y219457D02*
X156014Y219457D01*
X156014Y221400D02*
X159986Y221400D01*
X636014Y182014D02*
X639986Y182014D01*
X636014Y182014D02*
X636014Y185986D01*
X639986Y185986D01*
X639986Y182014D01*
X639986Y183957D02*
X636014Y183957D01*
X636014Y185900D02*
X639986Y185900D01*
X646014Y182014D02*
X649986Y182014D01*
X646014Y182014D02*
X646014Y185986D01*
X649986Y185986D01*
X649986Y182014D01*
X649986Y183957D02*
X646014Y183957D01*
X646014Y185900D02*
X649986Y185900D01*
X520014Y399514D02*
X520014Y403486D01*
X523986Y403486D01*
X523986Y399514D01*
X520014Y399514D01*
X520014Y401457D02*
X523986Y401457D01*
X523986Y403400D02*
X520014Y403400D01*
X520014Y393486D02*
X520014Y389514D01*
X520014Y393486D02*
X523986Y393486D01*
X523986Y389514D01*
X520014Y389514D01*
X520014Y391457D02*
X523986Y391457D01*
X523986Y393400D02*
X520014Y393400D01*
D46*
X592000Y368000D03*
X570000Y368000D03*
X570000Y352000D03*
X592000Y352000D03*
D19*
X631986Y418014D02*
X631986Y421986D01*
X631986Y418014D02*
X628014Y418014D01*
X628014Y421986D01*
X631986Y421986D01*
X631986Y419957D02*
X628014Y419957D01*
X628014Y421900D02*
X631986Y421900D01*
X631986Y428014D02*
X631986Y431986D01*
X631986Y428014D02*
X628014Y428014D01*
X628014Y431986D01*
X631986Y431986D01*
X631986Y429957D02*
X628014Y429957D01*
X628014Y431900D02*
X631986Y431900D01*
D47*
X758000Y477500D03*
X657000Y477500D03*
D48*
X732500Y450000D03*
X720000Y450000D03*
X707500Y450000D03*
X695000Y450000D03*
X682500Y450000D03*
D19*
X774014Y390014D02*
X777986Y390014D01*
X774014Y390014D02*
X774014Y393986D01*
X777986Y393986D01*
X777986Y390014D01*
X777986Y391957D02*
X774014Y391957D01*
X774014Y393900D02*
X777986Y393900D01*
X784014Y390014D02*
X787986Y390014D01*
X784014Y390014D02*
X784014Y393986D01*
X787986Y393986D01*
X787986Y390014D01*
X787986Y391957D02*
X784014Y391957D01*
X784014Y393900D02*
X787986Y393900D01*
X767986Y383986D02*
X767986Y380014D01*
X764014Y380014D01*
X764014Y383986D01*
X767986Y383986D01*
X767986Y381957D02*
X764014Y381957D01*
X764014Y383900D02*
X767986Y383900D01*
X767986Y390014D02*
X767986Y393986D01*
X767986Y390014D02*
X764014Y390014D01*
X764014Y393986D01*
X767986Y393986D01*
X767986Y391957D02*
X764014Y391957D01*
X764014Y393900D02*
X767986Y393900D01*
X236986Y331986D02*
X236986Y328014D01*
X233014Y328014D01*
X233014Y331986D01*
X236986Y331986D01*
X236986Y329957D02*
X233014Y329957D01*
X233014Y331900D02*
X236986Y331900D01*
X236986Y338014D02*
X236986Y341986D01*
X236986Y338014D02*
X233014Y338014D01*
X233014Y341986D01*
X236986Y341986D01*
X236986Y339957D02*
X233014Y339957D01*
X233014Y341900D02*
X236986Y341900D01*
X233014Y358014D02*
X233014Y361986D01*
X236986Y361986D01*
X236986Y358014D01*
X233014Y358014D01*
X233014Y359957D02*
X236986Y359957D01*
X236986Y361900D02*
X233014Y361900D01*
X233014Y351986D02*
X233014Y348014D01*
X233014Y351986D02*
X236986Y351986D01*
X236986Y348014D01*
X233014Y348014D01*
X233014Y349957D02*
X236986Y349957D01*
X236986Y351900D02*
X233014Y351900D01*
X226986Y331986D02*
X226986Y328014D01*
X223014Y328014D01*
X223014Y331986D01*
X226986Y331986D01*
X226986Y329957D02*
X223014Y329957D01*
X223014Y331900D02*
X226986Y331900D01*
X226986Y338014D02*
X226986Y341986D01*
X226986Y338014D02*
X223014Y338014D01*
X223014Y341986D01*
X226986Y341986D01*
X226986Y339957D02*
X223014Y339957D01*
X223014Y341900D02*
X226986Y341900D01*
X804014Y396014D02*
X804014Y399986D01*
X807986Y399986D01*
X807986Y396014D01*
X804014Y396014D01*
X804014Y397957D02*
X807986Y397957D01*
X807986Y399900D02*
X804014Y399900D01*
X804014Y389986D02*
X804014Y386014D01*
X804014Y389986D02*
X807986Y389986D01*
X807986Y386014D01*
X804014Y386014D01*
X804014Y387957D02*
X807986Y387957D01*
X807986Y389900D02*
X804014Y389900D01*
D49*
X598310Y158500D03*
X598310Y149000D03*
X598310Y139500D03*
X623690Y139500D03*
X623690Y158500D03*
D19*
X618886Y173986D02*
X614914Y173986D01*
X618886Y173986D02*
X618886Y170014D01*
X614914Y170014D01*
X614914Y173986D01*
X614914Y171957D02*
X618886Y171957D01*
X618886Y173900D02*
X614914Y173900D01*
X608886Y173986D02*
X604914Y173986D01*
X608886Y173986D02*
X608886Y170014D01*
X604914Y170014D01*
X604914Y173986D01*
X604914Y171957D02*
X608886Y171957D01*
X608886Y173900D02*
X604914Y173900D01*
X634914Y173986D02*
X638886Y173986D01*
X638886Y170014D01*
X634914Y170014D01*
X634914Y173986D01*
X634914Y171957D02*
X638886Y171957D01*
X638886Y173900D02*
X634914Y173900D01*
X628886Y173986D02*
X624914Y173986D01*
X628886Y173986D02*
X628886Y170014D01*
X624914Y170014D01*
X624914Y173986D01*
X624914Y171957D02*
X628886Y171957D01*
X628886Y173900D02*
X624914Y173900D01*
D20*
X546799Y164201D02*
X546799Y157799D01*
X546799Y164201D02*
X553201Y164201D01*
X553201Y157799D01*
X546799Y157799D01*
X546799Y160283D02*
X553201Y160283D01*
X553201Y162767D02*
X546799Y162767D01*
X546799Y149201D02*
X546799Y142799D01*
X546799Y149201D02*
X553201Y149201D01*
X553201Y142799D01*
X546799Y142799D01*
X546799Y145283D02*
X553201Y145283D01*
X553201Y147767D02*
X546799Y147767D01*
D50*
X683600Y153650D03*
X696300Y153650D03*
X709000Y153650D03*
X709000Y140950D03*
X696300Y140950D03*
X683600Y140950D03*
D51*
X670900Y147300D03*
X721700Y137140D03*
X721700Y157460D03*
D19*
X176986Y264014D02*
X173014Y264014D01*
X173014Y267986D01*
X176986Y267986D01*
X176986Y264014D01*
X176986Y265957D02*
X173014Y265957D01*
X173014Y267900D02*
X176986Y267900D01*
X183014Y264014D02*
X186986Y264014D01*
X183014Y264014D02*
X183014Y267986D01*
X186986Y267986D01*
X186986Y264014D01*
X186986Y265957D02*
X183014Y265957D01*
X183014Y267900D02*
X186986Y267900D01*
X156986Y242986D02*
X153014Y242986D01*
X156986Y242986D02*
X156986Y239014D01*
X153014Y239014D01*
X153014Y242986D01*
X153014Y240957D02*
X156986Y240957D01*
X156986Y242900D02*
X153014Y242900D01*
X146986Y242986D02*
X143014Y242986D01*
X146986Y242986D02*
X146986Y239014D01*
X143014Y239014D01*
X143014Y242986D01*
X143014Y240957D02*
X146986Y240957D01*
X146986Y242900D02*
X143014Y242900D01*
X179514Y173014D02*
X183486Y173014D01*
X179514Y173014D02*
X179514Y176986D01*
X183486Y176986D01*
X183486Y173014D01*
X183486Y174957D02*
X179514Y174957D01*
X179514Y176900D02*
X183486Y176900D01*
X189514Y173014D02*
X193486Y173014D01*
X189514Y173014D02*
X189514Y176986D01*
X193486Y176986D01*
X193486Y173014D01*
X193486Y174957D02*
X189514Y174957D01*
X189514Y176900D02*
X193486Y176900D01*
D52*
X478250Y143500D03*
X478250Y156500D03*
X461750Y156500D03*
X461750Y143500D03*
D53*
X717500Y505000D03*
X692500Y505000D03*
D54*
X0Y115000D02*
X90000Y115000D01*
X92615Y114886D01*
X95209Y114544D01*
X97765Y113978D01*
X100261Y113191D01*
X102679Y112189D01*
X105000Y110981D01*
X107207Y109575D01*
X109284Y107981D01*
X111213Y106213D01*
X112981Y104284D01*
X114575Y102207D01*
X115981Y100000D01*
X117189Y97679D01*
X118191Y95261D01*
X118978Y92765D01*
X119544Y90209D01*
X119886Y87615D01*
X120000Y85000D01*
X120000Y0D01*
X790000Y0D01*
X790000Y85000D01*
X790114Y87615D01*
X790456Y90209D01*
X791022Y92765D01*
X791809Y95261D01*
X792811Y97679D01*
X794019Y100000D01*
X795425Y102207D01*
X797019Y104284D01*
X798787Y106213D01*
X800716Y107981D01*
X802793Y109575D01*
X805000Y110981D01*
X807321Y112189D01*
X809739Y113191D01*
X812235Y113978D01*
X814791Y114544D01*
X817385Y114886D01*
X820000Y115000D01*
X910000Y115000D01*
X910000Y455000D01*
X820000Y455000D01*
X817385Y455114D01*
X814791Y455456D01*
X812235Y456022D01*
X809739Y456809D01*
X807321Y457811D01*
X805000Y459019D01*
X802793Y460425D01*
X800716Y462019D01*
X798787Y463787D01*
X797019Y465716D01*
X795425Y467793D01*
X794019Y470000D01*
X792811Y472321D01*
X791809Y474739D01*
X791022Y477235D01*
X790456Y479791D01*
X790114Y482385D01*
X790000Y485000D01*
X790000Y570000D01*
X275505Y570000D01*
X275388Y570003D01*
X275214Y570021D01*
X275043Y570054D01*
X274875Y570102D01*
X274712Y570164D01*
X274555Y570240D01*
X274405Y570330D01*
X274264Y570432D01*
X274132Y570546D01*
X274010Y570671D01*
X273900Y570807D01*
X260000Y589500D01*
X170000Y589500D01*
X156100Y570807D01*
X156027Y570714D01*
X155909Y570586D01*
X155780Y570468D01*
X155642Y570362D01*
X155495Y570268D01*
X155340Y570187D01*
X155179Y570121D01*
X155012Y570068D01*
X154842Y570030D01*
X154669Y570008D01*
X154495Y570000D01*
X120000Y570000D01*
X120000Y485000D01*
X119886Y482385D01*
X119544Y479791D01*
X118978Y477235D01*
X118191Y474739D01*
X117189Y472321D01*
X115981Y470000D01*
X114575Y467793D01*
X112981Y465716D01*
X111213Y463787D01*
X109284Y462019D01*
X107207Y460425D01*
X105000Y459019D01*
X102679Y457811D01*
X100261Y456809D01*
X97765Y456022D01*
X95209Y455456D01*
X92615Y455114D01*
X90000Y455000D01*
X0Y455000D01*
X0Y115000D01*
M02*
