G04 EAGLE Gerber RS-274X export*
G75*
%MOMM*%
%FSLAX34Y34*%
%LPD*%
%INSoldermaskBOT*%
%IPPOS*%
%AMOC8*
5,1,8,0,0,1.08239X$1,22.5*%
G01*
%ADD10C,1.601600*%
%ADD11C,2.201600*%
%ADD12C,3.001600*%
%ADD13C,3.351600*%
%ADD14C,2.546600*%
%ADD15C,1.436600*%
%ADD16C,1.631600*%
%ADD17C,1.101600*%
%ADD18C,0.901600*%
%ADD19C,0.261462*%
%ADD20R,1.101600X1.371600*%
%ADD21R,1.371600X1.101600*%
%ADD22R,2.844800X1.320800*%
%ADD23C,0.990600*%
%ADD24C,1.270000*%
%ADD25R,2.147100X0.746800*%
%ADD26C,0.254000*%

G36*
X313008Y544502D02*
X313008Y544502D01*
X313017Y544501D01*
X313105Y544522D01*
X313195Y544540D01*
X313202Y544545D01*
X313210Y544547D01*
X313283Y544601D01*
X313359Y544653D01*
X313363Y544660D01*
X313370Y544665D01*
X313417Y544743D01*
X313466Y544820D01*
X313467Y544829D01*
X313472Y544836D01*
X313499Y545000D01*
X313499Y561000D01*
X313498Y561008D01*
X313499Y561017D01*
X313478Y561105D01*
X313460Y561195D01*
X313455Y561202D01*
X313453Y561210D01*
X313399Y561283D01*
X313347Y561359D01*
X313340Y561363D01*
X313335Y561370D01*
X313257Y561417D01*
X313180Y561466D01*
X313171Y561467D01*
X313164Y561472D01*
X313000Y561499D01*
X269000Y561499D01*
X268992Y561498D01*
X268983Y561499D01*
X268895Y561478D01*
X268805Y561460D01*
X268798Y561455D01*
X268790Y561453D01*
X268717Y561399D01*
X268641Y561347D01*
X268637Y561340D01*
X268630Y561335D01*
X268583Y561257D01*
X268534Y561180D01*
X268533Y561171D01*
X268528Y561164D01*
X268501Y561000D01*
X268501Y545000D01*
X268502Y544992D01*
X268501Y544983D01*
X268522Y544895D01*
X268540Y544805D01*
X268545Y544798D01*
X268547Y544790D01*
X268601Y544717D01*
X268653Y544641D01*
X268660Y544637D01*
X268665Y544630D01*
X268743Y544583D01*
X268820Y544534D01*
X268829Y544533D01*
X268836Y544528D01*
X269000Y544501D01*
X313000Y544501D01*
X313008Y544502D01*
G37*
D10*
X627500Y552500D03*
X582500Y552500D03*
D11*
X641000Y527500D03*
X569000Y527500D03*
D12*
X145000Y430000D03*
X145000Y140000D03*
X765000Y140000D03*
X765000Y430000D03*
D10*
X623000Y261000D03*
D13*
X347850Y505000D03*
X462150Y505000D03*
D14*
X327550Y474500D03*
X482450Y474500D03*
D15*
X449500Y441500D03*
X425000Y441500D03*
X398700Y441500D03*
X373300Y441500D03*
X436800Y416100D03*
X411400Y416100D03*
X386000Y416100D03*
X360600Y416100D03*
D16*
X471250Y554000D03*
X445850Y554000D03*
X364150Y554000D03*
X338750Y554000D03*
D10*
X526500Y169500D03*
X321500Y430000D03*
X430000Y282000D03*
X257000Y194000D03*
X287000Y154000D03*
X295000Y465000D03*
X211000Y226000D03*
X623000Y227000D03*
X599000Y212000D03*
X616000Y190000D03*
X581000Y187000D03*
X655400Y233700D03*
X805000Y189000D03*
X830000Y189000D03*
X721000Y187000D03*
X681000Y165000D03*
X819000Y392000D03*
X609500Y553500D03*
D17*
X251000Y571000D02*
X251000Y577000D01*
X183500Y546000D02*
X180500Y546000D01*
X246500Y546000D02*
X249500Y546000D01*
X179000Y571000D02*
X179000Y577000D01*
D18*
X234000Y555000D03*
X196000Y555000D03*
D19*
X819299Y340201D02*
X825701Y340201D01*
X825701Y333799D01*
X819299Y333799D01*
X819299Y340201D01*
X819299Y336283D02*
X825701Y336283D01*
X825701Y338767D02*
X819299Y338767D01*
X810701Y340201D02*
X804299Y340201D01*
X810701Y340201D02*
X810701Y333799D01*
X804299Y333799D01*
X804299Y340201D01*
X804299Y336283D02*
X810701Y336283D01*
X810701Y338767D02*
X804299Y338767D01*
X775701Y338201D02*
X769299Y338201D01*
X775701Y338201D02*
X775701Y331799D01*
X769299Y331799D01*
X769299Y338201D01*
X769299Y334283D02*
X775701Y334283D01*
X775701Y336767D02*
X769299Y336767D01*
X760701Y338201D02*
X754299Y338201D01*
X760701Y338201D02*
X760701Y331799D01*
X754299Y331799D01*
X754299Y338201D01*
X754299Y334283D02*
X760701Y334283D01*
X760701Y336767D02*
X754299Y336767D01*
D20*
X655000Y152000D03*
X664500Y172000D03*
X645500Y172000D03*
D21*
X693000Y209000D03*
X673000Y218500D03*
X673000Y199500D03*
D19*
X644701Y213799D02*
X638299Y213799D01*
X638299Y220201D01*
X644701Y220201D01*
X644701Y213799D01*
X644701Y216283D02*
X638299Y216283D01*
X638299Y218767D02*
X644701Y218767D01*
X653299Y213799D02*
X659701Y213799D01*
X653299Y213799D02*
X653299Y220201D01*
X659701Y220201D01*
X659701Y213799D01*
X659701Y216283D02*
X653299Y216283D01*
X653299Y218767D02*
X659701Y218767D01*
X659701Y202201D02*
X653299Y202201D01*
X659701Y202201D02*
X659701Y195799D01*
X653299Y195799D01*
X653299Y202201D01*
X653299Y198283D02*
X659701Y198283D01*
X659701Y200767D02*
X653299Y200767D01*
X644701Y202201D02*
X638299Y202201D01*
X644701Y202201D02*
X644701Y195799D01*
X638299Y195799D01*
X638299Y202201D01*
X638299Y198283D02*
X644701Y198283D01*
X644701Y200767D02*
X638299Y200767D01*
D22*
X233000Y499000D03*
X233000Y518000D03*
D10*
X557000Y460000D03*
X648000Y315600D03*
X771000Y190000D03*
X270000Y238000D03*
X247000Y445000D03*
D23*
X670900Y147300D03*
X721700Y137140D03*
X721700Y157460D03*
D10*
X231000Y481000D03*
X230000Y536000D03*
D24*
X717500Y505000D03*
X692500Y505000D03*
D25*
X816349Y319450D03*
X816349Y306750D03*
X816349Y294050D03*
X816349Y281350D03*
X816349Y268650D03*
X816349Y255950D03*
X816349Y243250D03*
X816349Y230550D03*
X763651Y230550D03*
X763651Y243250D03*
X763651Y255950D03*
X763651Y268650D03*
X763651Y281350D03*
X763651Y294050D03*
X763651Y306750D03*
X763651Y319450D03*
D26*
X0Y115000D02*
X90000Y115000D01*
X92615Y114886D01*
X95209Y114544D01*
X97765Y113978D01*
X100261Y113191D01*
X102679Y112189D01*
X105000Y110981D01*
X107207Y109575D01*
X109284Y107981D01*
X111213Y106213D01*
X112981Y104284D01*
X114575Y102207D01*
X115981Y100000D01*
X117189Y97679D01*
X118191Y95261D01*
X118978Y92765D01*
X119544Y90209D01*
X119886Y87615D01*
X120000Y85000D01*
X120000Y0D01*
X790000Y0D01*
X790000Y85000D01*
X790114Y87615D01*
X790456Y90209D01*
X791022Y92765D01*
X791809Y95261D01*
X792811Y97679D01*
X794019Y100000D01*
X795425Y102207D01*
X797019Y104284D01*
X798787Y106213D01*
X800716Y107981D01*
X802793Y109575D01*
X805000Y110981D01*
X807321Y112189D01*
X809739Y113191D01*
X812235Y113978D01*
X814791Y114544D01*
X817385Y114886D01*
X820000Y115000D01*
X910000Y115000D01*
X910000Y455000D01*
X820000Y455000D01*
X817385Y455114D01*
X814791Y455456D01*
X812235Y456022D01*
X809739Y456809D01*
X807321Y457811D01*
X805000Y459019D01*
X802793Y460425D01*
X800716Y462019D01*
X798787Y463787D01*
X797019Y465716D01*
X795425Y467793D01*
X794019Y470000D01*
X792811Y472321D01*
X791809Y474739D01*
X791022Y477235D01*
X790456Y479791D01*
X790114Y482385D01*
X790000Y485000D01*
X790000Y570000D01*
X275505Y570000D01*
X275388Y570003D01*
X275214Y570021D01*
X275043Y570054D01*
X274875Y570102D01*
X274712Y570164D01*
X274555Y570240D01*
X274405Y570330D01*
X274264Y570432D01*
X274132Y570546D01*
X274010Y570671D01*
X273900Y570807D01*
X260000Y589500D01*
X170000Y589500D01*
X156100Y570807D01*
X156027Y570714D01*
X155909Y570586D01*
X155780Y570468D01*
X155642Y570362D01*
X155495Y570268D01*
X155340Y570187D01*
X155179Y570121D01*
X155012Y570068D01*
X154842Y570030D01*
X154669Y570008D01*
X154495Y570000D01*
X120000Y570000D01*
X120000Y485000D01*
X119886Y482385D01*
X119544Y479791D01*
X118978Y477235D01*
X118191Y474739D01*
X117189Y472321D01*
X115981Y470000D01*
X114575Y467793D01*
X112981Y465716D01*
X111213Y463787D01*
X109284Y462019D01*
X107207Y460425D01*
X105000Y459019D01*
X102679Y457811D01*
X100261Y456809D01*
X97765Y456022D01*
X95209Y455456D01*
X92615Y455114D01*
X90000Y455000D01*
X0Y455000D01*
X0Y115000D01*
M02*
